<svg width="181" height="124" viewBox="0 0 181 124" fill="none" xmlns="http://www.w3.org/2000/svg">
<path d="M42.3176 39.7988H141.512C142.751 39.7988 143.938 40.155 144.814 40.7889C145.69 41.4228 146.182 42.2826 146.182 43.1791V89.7495C146.182 90.2351 146.05 90.7158 145.793 91.1644C145.536 91.6129 145.16 92.0205 144.686 92.3638C144.212 92.7071 143.649 92.9794 143.029 93.1652C142.409 93.351 141.745 93.4467 141.075 93.4467H42.7552C42.0845 93.4467 41.4204 93.351 40.8008 93.1652C40.1812 92.9794 39.6182 92.7071 39.144 92.3638C38.6698 92.0205 38.2936 91.6129 38.0369 91.1644C37.7803 90.7158 37.6482 90.2351 37.6482 89.7495V43.1791C37.6482 42.2826 38.1401 41.4228 39.0158 40.7889C39.8915 40.155 41.0792 39.7988 42.3176 39.7988Z" fill="white" stroke="#2E353A" stroke-width="0.28112" stroke-linecap="round" stroke-linejoin="round"/>
<path d="M78.6223 45.0801H72.5132V47.9852H78.6223V45.0801Z" fill="#2E353A"/>
<path d="M58.829 63.002H53.1575V67.0761H58.829V63.002Z" fill="#2E353A"/>
<path d="M83.8869 48.6816H78.1716V52.7558H83.8869V48.6816Z" fill="#2E353A"/>
<path d="M71.5461 45.0801H65.437V47.9852H71.5461V45.0801Z" fill="#2E353A"/>
<path d="M90.5651 48.6816H84.8499V52.7558H90.5651V48.6816Z" fill="#2E353A"/>
<path d="M85.6941 45.0801H79.585V47.9852H85.6941V45.0801Z" fill="#2E353A"/>
<path d="M55.4024 58.2275H44.6545V62.3017H55.4024V58.2275Z" fill="#2E353A"/>
<path d="M70.5266 48.6816H64.8113V52.7558H70.5266V48.6816Z" fill="#2E353A"/>
<path d="M52.1947 63.002H44.6545V67.0761H52.1947V63.002Z" fill="#2E353A"/>
<path d="M92.7708 45.0801H86.6616V47.9852H92.7708V45.0801Z" fill="#2E353A"/>
<path d="M57.166 48.6816H51.4507V52.7558H57.166V48.6816Z" fill="#2E353A"/>
<path d="M57.3977 45.0801H51.2886V47.9852H57.3977V45.0801Z" fill="#2E353A"/>
<path d="M64.4741 45.0801H58.365V47.9852H64.4741V45.0801Z" fill="#2E353A"/>
<path d="M63.8439 48.6816H58.1287V52.7558H63.8439V48.6816Z" fill="#2E353A"/>
<path d="M77.2045 48.6816H71.4893V52.7558H77.2045V48.6816Z" fill="#2E353A"/>
<path d="M121.071 45.0801H114.962V47.9852H121.071V45.0801Z" fill="#2E353A"/>
<path d="M128.143 45.0801H122.034V47.9852H128.143V45.0801Z" fill="#2E353A"/>
<path d="M123.968 48.6816H118.253V52.7558H123.968V48.6816Z" fill="#2E353A"/>
<path d="M130.651 48.6816H124.935V52.7558H130.651V48.6816Z" fill="#2E353A"/>
<path d="M141.219 63.002H132.804V67.0761H141.219V63.002Z" fill="#2E353A"/>
<path d="M135.219 45.0801H129.11V47.9852H135.219V45.0801Z" fill="#2E353A"/>
<path d="M50.488 48.6816H44.6545V52.7558H50.488V48.6816Z" fill="#2E353A"/>
<path d="M99.8469 45.0801H93.7378V47.9852H99.8469V45.0801Z" fill="#2E353A"/>
<path d="M106.919 45.0801H100.81V47.9852H106.919V45.0801Z" fill="#2E353A"/>
<path d="M103.93 48.6816H98.2144V52.7558H103.93V48.6816Z" fill="#2E353A"/>
<path d="M117.29 48.6816H111.575V52.7558H117.29V48.6816Z" fill="#2E353A"/>
<path d="M97.2475 48.6816H91.5322V52.7558H97.2475V48.6816Z" fill="#2E353A"/>
<path d="M110.608 48.6816H104.893V52.7558H110.608V48.6816Z" fill="#2E353A"/>
<path d="M113.995 45.0801H107.886V47.9852H113.995V45.0801Z" fill="#2E353A"/>
<path d="M105.291 63.002H99.6194V67.0761H105.291V63.002Z" fill="#2E353A"/>
<path d="M135.049 58.2275H129.377V62.3017H135.049V58.2275Z" fill="#2E353A"/>
<path d="M128.41 58.2275H122.738V62.3017H128.41V58.2275Z" fill="#2E353A"/>
<path d="M131.837 63.002H126.165V67.0761H131.837V63.002Z" fill="#2E353A"/>
<path d="M125.202 63.002H119.531V67.0761H125.202V63.002Z" fill="#2E353A"/>
<path d="M111.925 63.002H106.254V67.0761H111.925V63.002Z" fill="#2E353A"/>
<path d="M118.564 63.002H112.893V67.0761H118.564V63.002Z" fill="#2E353A"/>
<path d="M121.771 58.2275H116.1V62.3017H121.771V58.2275Z" fill="#2E353A"/>
<path d="M115.137 58.2275H109.466V62.3017H115.137V58.2275Z" fill="#2E353A"/>
<path d="M141.224 45.0801H136.187V47.9852H141.224V45.0801Z" fill="#2E353A"/>
<path d="M50.3261 45.0801H44.6545V47.9852H50.3261V45.0801Z" fill="#2E353A"/>
<path d="M141.224 67.7725H44.6545V72.0081H141.224V67.7725Z" fill="#2E353A"/>
<path d="M141.219 48.6816H131.614V52.7558H141.219V48.6816Z" fill="#2E353A"/>
<path d="M141.219 58.2275H136.012V62.3017H141.219V58.2275Z" fill="#2E353A"/>
<path d="M134.41 57.4985H133.443V53.4561H127.771V57.4985H126.808V53.4561H121.137V57.4985H120.17V53.4561H114.498V57.4985H113.531V53.4561H107.86V57.4985H106.897V53.4561H101.225V57.4985H100.258V53.4561H94.5866V57.4985H93.6195V53.4561H87.948V57.4985H86.9852V53.4561H81.3137V57.4985H80.3466V53.4561H74.6751V57.4985H73.7079V53.4561H68.0364V57.4985H67.0737V53.4561H61.4021V57.4985H60.435V53.4561H54.7635V57.4985H53.7964V53.4561H44.6545V57.5302H141.219V53.4561H134.41V57.4985Z" fill="#2E353A"/>
<path d="M88.5873 58.2275H82.9158V62.3017H88.5873V58.2275Z" fill="#2E353A"/>
<path d="M108.499 58.2275H102.827V62.3017H108.499V58.2275Z" fill="#2E353A"/>
<path d="M75.3143 58.2275H69.6428V62.3017H75.3143V58.2275Z" fill="#2E353A"/>
<path d="M78.7406 63.002H73.0691V67.0761H78.7406V63.002Z" fill="#2E353A"/>
<path d="M81.9484 58.2275H76.2769V62.3017H81.9484V58.2275Z" fill="#2E353A"/>
<path d="M68.6754 58.2275H63.0039V62.3017H68.6754V58.2275Z" fill="#2E353A"/>
<path d="M65.4677 63.002H59.7961V67.0761H65.4677V63.002Z" fill="#2E353A"/>
<path d="M72.1019 63.002H66.4304V67.0761H72.1019V63.002Z" fill="#2E353A"/>
<path d="M95.2257 58.2275H89.5542V62.3017H95.2257V58.2275Z" fill="#2E353A"/>
<path d="M98.652 63.002H92.9805V67.0761H98.652V63.002Z" fill="#2E353A"/>
<path d="M101.86 58.2275H96.1882V62.3017H101.86V58.2275Z" fill="#2E353A"/>
<path d="M85.379 63.002H79.7075V67.0761H85.379V63.002Z" fill="#2E353A"/>
<path d="M92.0133 63.002H86.3418V67.0761H92.0133V63.002Z" fill="#2E353A"/>
<path d="M62.0368 58.2275H56.3652V62.3017H62.0368V58.2275Z" fill="#2E353A"/>
<path d="M152.379 10.6523H30.8698C30.2739 10.6527 29.6861 10.7522 29.1519 10.9433C28.6176 11.1343 28.1512 11.4117 27.7887 11.7541C27.4262 12.0964 27.1773 12.4946 27.0612 12.9177C26.9452 13.3408 26.9651 13.7776 27.1194 14.1942L36.0031 38.1384C36.2245 38.7361 36.7119 39.2643 37.3899 39.6411C38.0679 40.018 38.8986 40.2225 39.7534 40.223H52.1555V41.8799H131.666V40.2325H143.482C144.337 40.232 145.167 40.0275 145.845 39.6506C146.523 39.2738 147.011 38.7456 147.232 38.1479L156.116 14.2037C156.272 13.7872 156.294 13.3503 156.18 12.9266C156.066 12.503 155.818 12.1041 155.457 11.7607C155.096 11.4174 154.63 11.1388 154.096 10.9466C153.563 10.7544 152.975 10.6537 152.379 10.6523Z" fill="#2E353A" stroke="#2E353A" stroke-width="0.28112" stroke-linecap="round" stroke-linejoin="round"/>
<path d="M138.637 38.1099H44.6107L35.2063 13.6113H148.037L138.637 38.1099Z" fill="#7795FF" stroke="#2E353A" stroke-width="0.28112" stroke-linecap="round" stroke-linejoin="round"/>
<path d="M50.8512 27.3584V27.6752H49.1926V27.3584H50.8512Z" fill="#2E353A"/>
<path d="M52.9171 27.3584V27.6752H51.2542V27.3584H52.9171Z" fill="#2E353A"/>
<path d="M54.9823 27.3584V27.6752H53.3325V27.3584H54.9823Z" fill="#2E353A"/>
<path d="M57.0438 27.3584V27.6752H55.3853V27.3584H57.0438Z" fill="#2E353A"/>
<path d="M59.109 27.3584V27.6752H57.446V27.3584H59.109Z" fill="#2E353A"/>
<path d="M61.1747 27.3584V27.6752H59.5117V27.3584H61.1747Z" fill="#2E353A"/>
<path d="M63.2357 27.3584V27.6752H61.5771V27.3584H63.2357Z" fill="#2E353A"/>
<path d="M65.2794 29.0273L63.4502 25.498H63.8878L65.7171 29.0273H65.2794Z" fill="#2E353A"/>
<path d="M49.1796 22.2197V22.5365H47.521V22.2197H49.1796Z" fill="#2E353A"/>
<path d="M51.245 22.2197V22.5365H49.5864V22.2197H51.245Z" fill="#2E353A"/>
<path d="M53.3326 22.2197V22.5365H51.6697V22.2197H53.3326Z" fill="#2E353A"/>
<path d="M55.3763 22.2197V22.5365H53.7134V22.2197H55.3763Z" fill="#2E353A"/>
<path d="M57.4376 22.2197V22.5365H55.7791V22.2197H57.4376Z" fill="#2E353A"/>
<path d="M60.9295 22.2197V22.5365H59.2666V22.2197H60.9295Z" fill="#2E353A"/>
<path d="M62.9908 22.2197V22.5365H61.3323V22.2197H62.9908Z" fill="#2E353A"/>
<path d="M65.0563 22.2197V22.5365H63.3977V22.2197H65.0563Z" fill="#2E353A"/>
<path d="M67.1217 22.2197V22.5365H65.4587V22.2197H67.1217Z" fill="#2E353A"/>
<path d="M69.183 22.2197V22.5365H67.5244V22.2197H69.183Z" fill="#2E353A"/>
<path d="M71.2484 22.2197V22.5365H69.5898V22.2197H71.2484Z" fill="#2E353A"/>
<path d="M73.3141 22.2197V22.5365H71.6511V22.2197H73.3141Z" fill="#2E353A"/>
<path d="M76.8019 22.2197V22.5365H75.1433V22.2197H76.8019Z" fill="#2E353A"/>
<path d="M78.8675 22.2197V22.5365H77.2046V22.2197H78.8675Z" fill="#2E353A"/>
<path d="M80.933 22.2197V22.5365H79.27V22.2197H80.933Z" fill="#2E353A"/>
<path d="M84.4034 22.2197V22.5365H82.7449V22.2197H84.4034Z" fill="#2E353A"/>
<path d="M86.4865 22.2197V22.5365H84.8411V22.2197H86.4865Z" fill="#2E353A"/>
<path d="M88.5519 22.2197V22.5365H86.8889V22.2197H88.5519Z" fill="#2E353A"/>
<path d="M96.3153 22.2197V22.5365H94.6567V22.2197H96.3153Z" fill="#2E353A"/>
<path d="M98.3807 22.2197V22.5365H96.7178V22.2197H98.3807Z" fill="#2E353A"/>
<path d="M100.446 22.2197V22.5365H98.7834V22.2197H100.446Z" fill="#2E353A"/>
<path d="M102.507 22.2197V22.5365H100.849V22.2197H102.507Z" fill="#2E353A"/>
<path d="M104.573 22.2197V22.5365H102.91V22.2197H104.573Z" fill="#2E353A"/>
<path d="M108.061 22.2197V22.5365H106.402V22.2197H108.061Z" fill="#2E353A"/>
<path d="M110.127 22.2197V22.5365H108.472V22.2197H110.127Z" fill="#2E353A"/>
<path d="M112.192 22.2197V22.5365H110.529V22.2197H112.192Z" fill="#2E353A"/>
<path d="M115.68 22.2197V22.5365H114.021V22.2197H115.68Z" fill="#2E353A"/>
<path d="M119.172 22.2197V22.5365H117.509V22.2197H119.172Z" fill="#2E353A"/>
<path d="M51.4291 60.7275C51.1491 61.0127 50.8734 61.3105 50.5977 61.6241" stroke="white" stroke-width="0.28112" stroke-linecap="round" stroke-linejoin="round"/>
<path d="M56.0066 56.9121C54.7873 57.7303 53.6591 58.617 52.6326 59.5638" stroke="white" stroke-width="0.28112" stroke-linecap="round" stroke-linejoin="round"/>
<path d="M51.0394 58.5947C49.8437 59.8088 48.7605 61.0788 47.7966 62.3964" stroke="white" stroke-width="0.28112" stroke-linecap="round" stroke-linejoin="round"/>
<path d="M81.9047 65.5605C81.629 65.8457 81.3489 66.1435 81.0732 66.4539" stroke="white" stroke-width="0.28112" stroke-linecap="round" stroke-linejoin="round"/>
<path d="M86.482 61.7471C85.2648 62.5659 84.1382 63.4525 83.1123 64.3987" stroke="white" stroke-width="0.28112" stroke-linecap="round" stroke-linejoin="round"/>
<path d="M81.5194 63.4219C80.3244 64.6428 79.2412 65.9191 78.2766 67.2425" stroke="white" stroke-width="0.28112" stroke-linecap="round" stroke-linejoin="round"/>
<path d="M125.588 57.7201C125.189 57.5237 124.769 57.3273 124.336 57.1309" stroke="white" stroke-width="0.28112" stroke-linecap="round" stroke-linejoin="round"/>
<path d="M130.927 60.9773C129.776 60.1095 128.533 59.3077 127.211 58.5791" stroke="white" stroke-width="0.28112" stroke-linecap="round" stroke-linejoin="round"/>
<path d="M128.528 57.4038C126.825 56.5572 125.048 55.792 123.207 55.1133" stroke="white" stroke-width="0.28112" stroke-linecap="round" stroke-linejoin="round"/>
<path d="M80.5743 77.3623C80.3467 78.5535 80.0054 80.2135 79.6641 81.1988" stroke="#2E353A" stroke-width="0.28112" stroke-linecap="round" stroke-linejoin="round"/>
<path d="M80.8282 75.9141C80.8282 75.9141 80.7932 76.139 80.7275 76.5033" stroke="#2E353A" stroke-width="0.28112" stroke-linecap="round" stroke-linejoin="round"/>
<path d="M81.9963 79.2949C81.5185 80.4489 80.9337 81.5782 80.2458 82.6752" stroke="#2E353A" stroke-width="0.28112" stroke-linecap="round" stroke-linejoin="round"/>
<path d="M103.877 80.9834C103.877 80.9834 104.17 83.7301 106.21 85.2096" stroke="#2E353A" stroke-width="0.28112" stroke-linecap="round" stroke-linejoin="round"/>
<path d="M103.584 83.7305C103.584 83.7305 104.459 85.6313 106.21 86.4772" stroke="#2E353A" stroke-width="0.28112" stroke-linecap="round" stroke-linejoin="round"/>
<g style="mix-blend-mode:multiply">
<path d="M44.1426 98.411C44.1426 98.411 46.0856 97.28 46.0856 87.5573C46.0856 77.8345 48.3218 70.7317 51.0788 67.6175C53.8358 64.5033 56.4134 63.2551 57.6212 63.2551C58.829 63.2551 57.9625 64.3766 56.2427 65.9955C54.5229 67.6144 52.9737 68.4887 52.2823 70.4846C51.5908 72.4805 51.5952 74.9706 52.4573 74.7203C53.3194 74.47 54.6935 69.4867 55.897 67.6175C57.1004 65.7484 60.0325 63.3787 61.7523 62.2572C63.4721 61.1357 67.2619 57.7712 68.9817 58.6424C70.7016 59.5137 69.6732 60.7619 68.6404 61.2592C67.6076 61.7566 63.4721 64.7441 61.5816 66.6196C59.6911 68.4951 58.4833 73.225 59.5161 73.3485C60.5488 73.4721 63.6472 66.496 65.367 65.0007C67.0868 63.5054 73.9749 59.3901 75.5241 59.2665C77.0733 59.143 77.2483 60.8854 75.8698 61.7598C74.4913 62.6342 69.8438 66.3693 68.2947 68.6123C66.7455 70.8553 66.0541 74.9706 67.4194 73.9726C68.7848 72.9747 71.0341 68.8626 72.929 67.4908C74.8239 66.119 80.5042 61.7598 81.8827 62.2572C83.2612 62.7546 82.9155 64.0028 81.712 64.874C80.5086 65.7452 75.8567 70.4846 74.6532 72.9747C73.4498 75.4648 72.0669 82.4472 72.7584 81.4524C73.4498 80.4577 75.686 75.3444 76.8895 73.2155C78.0929 71.0866 80.5042 70.1013 80.8499 71.0961C81.1956 72.0908 80.5042 72.5914 79.6421 74.8375C78.78 77.0837 78.7668 83.0745 76.2024 86.4263C73.638 89.7781 63.3452 96.9505 61.9711 99.4406C60.9757 101.156 59.7872 102.809 58.4176 104.383" fill="#7795FF"/>
</g>
<g style="mix-blend-mode:multiply">
<path d="M139.784 99.2537C139.784 99.2537 137.793 97.28 137.793 87.5573C137.793 77.8345 135.552 70.7317 132.799 67.6175C130.047 64.5033 127.46 63.2551 126.257 63.2551C125.054 63.2551 125.911 64.3766 127.635 65.9955C129.36 67.6144 130.904 68.4888 131.574 70.4846C132.244 72.4805 132.265 74.9706 131.403 74.7203C130.541 74.47 129.167 69.4867 127.959 67.6175C126.751 65.7484 123.828 63.3787 122.108 62.2572C120.389 61.1357 116.599 57.7712 114.875 58.6424C113.15 59.5137 114.188 60.7619 115.22 61.2592C116.253 61.7566 120.384 64.7441 122.279 66.6196C124.174 68.4951 125.377 73.225 124.345 73.3485C123.312 73.4721 120.227 66.496 118.507 65.0071C116.787 63.5181 109.894 59.3964 108.345 59.2729C106.796 59.1493 106.625 60.8918 108.004 61.7661C109.382 62.6405 114.03 66.3757 115.579 68.6186C117.128 70.8616 117.815 74.9769 116.454 73.979C115.093 72.9811 112.84 68.8689 110.949 67.4971C109.059 66.1254 103.374 61.7661 101.995 62.2635C100.617 62.7609 100.963 64.0091 102.166 64.8803C103.37 65.7516 108.021 70.491 109.225 72.9811C110.428 75.4711 111.807 82.4535 111.12 81.4588C110.433 80.464 108.192 75.3508 106.989 73.2218C105.785 71.0929 103.374 70.1076 103.028 71.1024C102.683 72.0972 103.374 72.5977 104.232 74.8439C105.089 77.09 105.107 83.0808 107.676 86.4326C110.245 89.7844 120.244 96.3264 121.623 98.8197C123.001 101.313 125.496 105.241 125.496 105.241" fill="#7795FF"/>
</g>
<path d="M43.4861 100.806C43.4861 100.806 46.068 94.7009 46.068 84.9655C46.068 75.23 48.3042 68.1399 51.0612 65.0257C53.8182 61.9115 56.3958 60.6633 57.6036 60.6633C58.8114 60.6633 57.945 61.7848 56.2251 63.4037C54.5053 65.0226 52.9561 65.897 52.2647 67.8897C51.5732 69.8824 51.5776 72.3788 52.4397 72.1285C53.3018 71.8782 54.676 66.8949 55.8794 65.0257C57.0829 63.1566 60.0149 60.7869 61.7347 59.6654C63.4546 58.5439 67.2443 55.1794 68.9642 56.0506C70.684 56.9219 69.6556 58.1701 68.6228 58.6675C67.59 59.1648 63.4546 62.1523 61.564 64.0278C59.6735 65.9033 58.4657 70.6332 59.4985 70.7567C60.5313 70.8803 63.6296 63.9042 65.3494 62.4058C67.0693 60.9073 73.9574 56.7983 75.5065 56.6747C77.0557 56.5512 77.2307 58.2936 75.8522 59.168C74.4738 60.0424 69.8263 63.7775 68.2771 66.0205C66.7279 68.2635 66.0365 72.3788 67.4019 71.3809C68.7672 70.3829 71.0166 66.2708 72.9115 64.899C74.8063 63.5273 80.4866 59.168 81.8651 59.6654C83.2436 60.1628 82.8979 61.411 81.6944 62.2822C80.491 63.1534 75.8391 67.8897 74.6357 70.3829C73.4322 72.8762 72.0494 79.8554 72.7408 78.8575C73.4322 77.8595 75.6684 72.7526 76.8719 70.6205C78.0753 68.4884 80.4866 67.5032 80.8323 68.5011C81.178 69.499 80.4866 69.9964 79.6245 72.2394C78.7624 74.4824 78.7493 80.4763 76.1848 83.8313C73.6204 87.1863 63.6165 96.2944 62.238 98.7877C60.8595 101.281 57.7612 106.765 57.7612 106.765" fill="white"/>
<path d="M43.4861 100.806C43.4861 100.806 46.068 94.7009 46.068 84.9655C46.068 75.23 48.3042 68.1399 51.0612 65.0257C53.8182 61.9115 56.3958 60.6633 57.6036 60.6633C58.8114 60.6633 57.945 61.7848 56.2251 63.4037C54.5053 65.0226 52.9561 65.897 52.2647 67.8897C51.5732 69.8824 51.5776 72.3788 52.4397 72.1285C53.3018 71.8782 54.676 66.8949 55.8794 65.0257C57.0829 63.1566 60.0149 60.7869 61.7347 59.6654C63.4546 58.5439 67.2443 55.1794 68.9642 56.0506C70.684 56.9219 69.6556 58.1701 68.6228 58.6675C67.59 59.1648 63.4546 62.1523 61.564 64.0278C59.6735 65.9033 58.4657 70.6332 59.4985 70.7567C60.5313 70.8803 63.6296 63.9042 65.3494 62.4058C67.0693 60.9073 73.9574 56.7983 75.5065 56.6747C77.0557 56.5512 77.2307 58.2936 75.8522 59.168C74.4738 60.0424 69.8263 63.7775 68.2771 66.0205C66.7279 68.2635 66.0365 72.3788 67.4019 71.3809C68.7672 70.3829 71.0166 66.2708 72.9115 64.899C74.8063 63.5273 80.4866 59.168 81.8651 59.6654C83.2436 60.1628 82.8979 61.411 81.6944 62.2822C80.491 63.1534 75.8391 67.8897 74.6357 70.3829C73.4322 72.8762 72.0494 79.8554 72.7408 78.8575C73.4322 77.8595 75.6684 72.7526 76.8719 70.6205C78.0753 68.4884 80.4866 67.5032 80.8323 68.5011C81.178 69.499 80.4866 69.9964 79.6245 72.2394C78.7624 74.4824 78.7493 80.4763 76.1848 83.8313C73.6204 87.1863 63.6165 96.2944 62.238 98.7877C60.8595 101.281 57.7612 106.765 57.7612 106.765" stroke="#2E353A" stroke-width="0.28112" stroke-linecap="round" stroke-linejoin="round"/>
<path d="M140.37 100.806C140.37 100.806 137.788 94.7009 137.788 84.9655C137.788 75.23 135.548 68.1399 132.795 65.0257C130.042 61.9115 127.456 60.6633 126.253 60.6633C125.049 60.6633 125.907 61.7848 127.631 63.4037C129.355 65.0226 130.9 65.897 131.57 67.8897C132.239 69.8824 132.261 72.3788 131.399 72.1285C130.537 71.8782 129.163 66.8949 127.955 65.0257C126.747 63.1566 123.824 60.7869 122.104 59.6654C120.384 58.5439 116.594 55.1794 114.87 56.0506C113.146 56.9219 114.183 58.1701 115.216 58.6675C116.249 59.1648 120.38 62.1523 122.275 64.0278C124.169 65.9033 125.373 70.6332 124.34 70.7567C123.307 70.8803 120.209 63.9042 118.489 62.4058C116.769 60.9073 109.877 56.7983 108.328 56.6747C106.779 56.5512 106.608 58.2936 107.986 59.168C109.365 60.0424 114.012 63.7775 115.562 66.0205C117.111 68.2635 117.798 72.3788 116.437 71.3809C115.076 70.3829 112.822 66.2708 110.932 64.899C109.041 63.5273 103.356 59.168 101.978 59.6654C100.599 60.1628 100.945 61.411 102.149 62.2822C103.352 63.1534 108.004 67.8897 109.207 70.3829C110.411 72.8762 111.789 79.8554 111.102 78.8575C110.415 77.8595 108.175 72.7526 106.971 70.6205C105.768 68.4884 103.356 67.5032 103.011 68.5011C102.665 69.499 103.356 69.9964 104.214 72.2394C105.072 74.4824 105.089 80.4763 107.658 83.8313C110.227 87.1863 120.227 96.2944 121.605 98.7877C122.984 101.281 126.082 106.765 126.082 106.765" fill="white"/>
<path d="M140.37 100.806C140.37 100.806 137.788 94.7009 137.788 84.9655C137.788 75.23 135.548 68.1399 132.795 65.0257C130.042 61.9115 127.456 60.6633 126.253 60.6633C125.049 60.6633 125.907 61.7848 127.631 63.4037C129.355 65.0226 130.9 65.897 131.57 67.8897C132.239 69.8824 132.261 72.3788 131.399 72.1285C130.537 71.8782 129.163 66.8949 127.955 65.0257C126.747 63.1566 123.824 60.7869 122.104 59.6654C120.384 58.5439 116.594 55.1794 114.87 56.0506C113.146 56.9219 114.183 58.1701 115.216 58.6675C116.249 59.1648 120.38 62.1523 122.275 64.0278C124.169 65.9033 125.373 70.6332 124.34 70.7567C123.307 70.8803 120.209 63.9042 118.489 62.4058C116.769 60.9073 109.877 56.7983 108.328 56.6747C106.779 56.5512 106.608 58.2936 107.986 59.168C109.365 60.0424 114.012 63.7775 115.562 66.0205C117.111 68.2635 117.798 72.3788 116.437 71.3809C115.076 70.3829 112.822 66.2708 110.932 64.899C109.041 63.5273 103.356 59.168 101.978 59.6654C100.599 60.1628 100.945 61.411 102.149 62.2822C103.352 63.1534 108.004 67.8897 109.207 70.3829C110.411 72.8762 111.789 79.8554 111.102 78.8575C110.415 77.8595 108.175 72.7526 106.971 70.6205C105.768 68.4884 103.356 67.5032 103.011 68.5011C102.665 69.499 103.356 69.9964 104.214 72.2394C105.072 74.4824 105.089 80.4763 107.658 83.8313C110.227 87.1863 120.227 96.2944 121.605 98.7877C122.984 101.281 126.082 106.765 126.082 106.765" stroke="#2E353A" stroke-width="0.28112" stroke-linecap="round" stroke-linejoin="round"/>
<path d="M32.5894 119.814H58.8464C59.1877 118.863 59.6166 117.799 60.1592 116.646C62.2248 112.166 68.9116 106.565 68.9116 106.565C64.1191 103.509 58.4875 101.223 52.3872 99.855C42.322 97.612 34.9525 98.2709 34.9525 98.2709C36.3091 102.32 36.4583 106.532 35.3901 110.626C34.0773 115.239 33.202 118.157 32.5894 119.814Z" fill="#2E353A" stroke="#2E353A" stroke-width="0.28112" stroke-linecap="round" stroke-linejoin="round"/>
<path d="M124.839 119.814H152.12C151.245 118.173 149.354 114.609 147.464 111.045C144.882 106.191 145.915 99.6588 144.882 99.6588C143.849 99.6588 132.248 99.0981 126.576 100.403C120.905 101.709 114.454 105.444 114.454 105.444C117.374 107.9 119.885 110.597 121.933 113.478C123.25 115.498 124.226 117.625 124.839 119.814Z" fill="#2E353A" stroke="#2E353A" stroke-width="0.28112" stroke-linecap="round" stroke-linejoin="round"/>
<path d="M48.9913 102.136C48.8031 101.598 46.0024 102.409 46.0024 102.409C46.0024 102.409 46.9389 99.8428 45.4466 99.8428C43.9543 99.8428 43.7662 101.744 43.7662 101.744C43.7662 101.744 40.9654 100.936 40.9654 102.149C40.9654 103.362 42.8297 103.34 42.8297 103.34C42.8297 103.34 40.5891 105.368 42.2695 105.77C43.95 106.173 45.0659 104.69 45.0659 104.69C45.0659 104.69 46.1862 106.043 47.6916 105.501C49.197 104.959 48.0636 103.746 48.0636 103.746C48.0636 103.746 49.1751 102.678 48.9913 102.136ZM45.2584 104.164C45.1176 104.141 44.9884 104.09 44.8859 104.017C44.7833 103.943 44.7116 103.85 44.6789 103.749C44.6461 103.647 44.6538 103.54 44.7009 103.442C44.748 103.343 44.8328 103.256 44.9453 103.19C45.0578 103.125 45.1936 103.084 45.3369 103.072C45.4803 103.06 45.6254 103.078 45.7555 103.123C45.8857 103.168 45.9956 103.239 46.0725 103.327C46.1495 103.415 46.1904 103.518 46.1906 103.622C46.159 103.781 46.0452 103.926 45.8721 104.026C45.6991 104.127 45.4797 104.176 45.2584 104.164ZM53.0962 117.28C52.908 116.741 50.1072 117.552 50.1072 117.552C50.1072 117.552 51.0437 114.986 49.5471 114.986C48.0504 114.986 47.871 116.887 47.871 116.887C47.871 116.887 45.0703 116.076 45.0703 117.289C45.0703 118.503 46.9389 118.506 46.9389 118.506C46.9389 118.506 44.6983 120.533 46.3787 120.939C48.0592 121.344 49.1751 119.855 49.1751 119.855C49.1751 119.855 50.2954 121.208 51.8008 120.666C53.3062 120.125 52.1728 118.911 52.1728 118.911C52.1728 118.911 53.28 117.806 53.0962 117.28ZM49.3633 119.307C49.2224 119.285 49.0933 119.234 48.9907 119.16C48.8882 119.087 48.8164 118.994 48.7837 118.892C48.751 118.79 48.7586 118.684 48.8058 118.585C48.8529 118.486 48.9376 118.399 49.0501 118.334C49.1627 118.268 49.2984 118.227 49.4418 118.215C49.5851 118.203 49.7302 118.221 49.8604 118.266C49.9905 118.311 50.1004 118.382 50.1774 118.47C50.2543 118.559 50.2953 118.661 50.2954 118.766C50.2638 118.923 50.1492 119.066 49.9754 119.164C49.8017 119.262 49.5824 119.308 49.3633 119.291V119.307ZM36.6724 119.307C36.4842 118.766 33.6878 119.577 33.6878 119.577C33.6878 119.577 34.62 117.01 33.1277 117.01C31.6354 117.01 31.4472 118.911 31.4472 118.911C31.4472 118.911 28.6465 118.1 28.6465 119.317C28.6465 120.533 30.5151 120.533 30.5151 120.533C30.5151 120.533 28.2745 122.558 29.955 122.963C31.6354 123.369 32.7513 121.883 32.7513 121.883C32.7513 121.883 33.8716 123.233 35.377 122.694C36.8824 122.155 35.7534 120.939 35.7534 120.939C35.7534 120.939 36.8606 119.83 36.6768 119.291L36.6724 119.307ZM32.9395 121.332C32.7985 121.309 32.6692 121.258 32.5666 121.184C32.464 121.111 32.3923 121.017 32.3597 120.915C32.3271 120.814 32.335 120.707 32.3825 120.608C32.43 120.509 32.5152 120.422 32.6281 120.357C32.741 120.292 32.8771 120.251 33.0207 120.24C33.1643 120.228 33.3095 120.246 33.4396 120.292C33.5696 120.337 33.6792 120.408 33.7557 120.497C33.8321 120.586 33.8723 120.689 33.8716 120.793C33.839 120.95 33.7246 121.091 33.5519 121.189C33.3793 121.286 33.1616 121.331 32.9439 121.316L32.9395 121.332ZM57.0084 108.77H59.0609C60.5531 108.77 61.4853 109.987 61.4853 109.987C58.3169 110.646 57.0128 108.755 57.0128 108.755L57.0084 108.77ZM54.956 119.307H57.0084C58.5007 119.307 59.4328 120.524 59.4328 120.524C56.2645 121.183 54.9604 119.291 54.9604 119.291L54.956 119.307ZM37.0487 117.28H39.1012C40.5934 117.28 41.5256 118.496 41.5256 118.496C38.3528 119.155 37.0487 117.28 37.0487 117.28ZM46.9695 107.747L48.1686 108.954C49.0438 109.835 48.2167 111.089 48.2167 111.089C45.6085 109.604 46.9695 107.731 46.9695 107.731V107.747ZM36.703 111.783L37.6395 110.462C38.3266 109.512 40.2433 109.455 40.2433 109.455C39.6 111.805 36.703 111.783 36.703 111.783Z" fill="white"/>
<path d="M136.87 104.703C136.681 104.164 133.881 104.975 133.881 104.975C133.881 104.975 134.817 102.409 133.325 102.409C131.833 102.409 131.644 104.31 131.644 104.31C131.644 104.31 128.844 103.502 128.844 104.716C128.844 105.929 130.712 105.932 130.712 105.932C130.712 105.932 128.472 107.96 130.152 108.365C131.833 108.771 132.948 107.282 132.948 107.282C132.948 107.282 134.069 108.634 135.574 108.093C137.08 107.551 135.946 106.338 135.946 106.338C135.946 106.338 137.053 105.241 136.87 104.703ZM133.137 106.73C132.996 106.708 132.867 106.657 132.764 106.583C132.662 106.51 132.59 106.417 132.557 106.315C132.524 106.213 132.532 106.107 132.579 106.008C132.626 105.909 132.711 105.822 132.823 105.757C132.936 105.691 133.072 105.65 133.215 105.638C133.358 105.626 133.504 105.644 133.634 105.689C133.764 105.734 133.874 105.805 133.951 105.894C134.028 105.982 134.069 106.084 134.069 106.189C134.042 106.349 133.93 106.496 133.756 106.597C133.581 106.699 133.359 106.746 133.137 106.73ZM145.635 115.24C145.451 114.698 142.65 115.509 142.65 115.509C142.65 115.509 143.583 112.943 142.09 112.943C140.598 112.943 140.414 114.844 140.414 114.844C140.414 114.844 137.613 114.033 137.613 115.249C137.613 116.466 139.478 116.466 139.478 116.466C139.478 116.466 137.241 118.49 138.922 118.896C140.602 119.301 141.718 117.815 141.718 117.815C141.718 117.815 142.839 119.165 144.344 118.626C145.849 118.088 144.716 116.871 144.716 116.871C144.716 116.871 145.823 115.778 145.635 115.24ZM141.906 117.28C141.765 117.257 141.636 117.206 141.534 117.133C141.431 117.059 141.359 116.966 141.327 116.864C141.294 116.762 141.302 116.655 141.35 116.557C141.397 116.458 141.482 116.371 141.595 116.306C141.708 116.24 141.844 116.199 141.988 116.188C142.131 116.176 142.277 116.194 142.407 116.24C142.537 116.285 142.646 116.357 142.723 116.445C142.799 116.534 142.839 116.637 142.839 116.741C142.811 116.902 142.698 117.048 142.524 117.148C142.35 117.249 142.128 117.296 141.906 117.28ZM136.309 119.308C136.121 118.766 133.325 119.577 133.325 119.577C133.325 119.577 134.257 117.011 132.765 117.011C131.272 117.011 131.084 118.912 131.084 118.912C131.084 118.912 128.283 118.101 128.283 119.317C128.283 120.534 130.152 120.534 130.152 120.534C130.152 120.534 127.911 122.558 129.592 122.964C131.272 123.369 132.388 121.883 132.388 121.883C132.388 121.883 133.509 123.233 135.014 122.694C136.519 122.156 135.39 120.939 135.39 120.939C135.39 120.939 136.48 119.83 136.309 119.292V119.308ZM132.576 121.332C132.435 121.309 132.306 121.258 132.204 121.184C132.101 121.111 132.029 121.018 131.997 120.916C131.964 120.814 131.972 120.707 132.02 120.609C132.067 120.51 132.152 120.423 132.265 120.357C132.378 120.292 132.514 120.251 132.658 120.24C132.801 120.228 132.947 120.246 133.077 120.292C133.207 120.337 133.316 120.409 133.393 120.497C133.469 120.586 133.509 120.689 133.509 120.793C133.476 120.951 133.361 121.093 133.187 121.19C133.014 121.287 132.795 121.333 132.576 121.316V121.332ZM144.891 111.337H146.943C148.436 111.337 149.368 112.553 149.368 112.553C146.195 113.212 144.891 111.321 144.891 111.321V111.337ZM122.875 119.022H124.927C126.419 119.022 127.351 120.236 127.351 120.236C124.179 120.914 122.875 119.022 122.875 119.022ZM134.848 110.31L136.047 111.517C136.922 112.398 136.095 113.653 136.095 113.653C133.487 112.17 134.848 110.31 134.848 110.31ZM146.983 117.863L148.178 119.07C149.053 119.948 148.226 121.205 148.226 121.205C145.617 119.732 146.983 117.863 146.983 117.863ZM124.564 114.35L125.5 113.028C126.187 112.078 128.126 112.021 128.126 112.021C127.478 114.372 124.559 114.35 124.559 114.35H124.564Z" fill="white"/>
</svg>
