<svg width="201" height="126" viewBox="0 0 201 126" fill="none" xmlns="http://www.w3.org/2000/svg">
<path d="M200.452 4.61867V91.8285C200.452 92.8842 199.826 93.8967 198.711 94.6432C197.596 95.3897 196.083 95.8091 194.506 95.8091H6.39809C4.82113 95.8091 3.30876 95.3897 2.19368 94.6432C1.07859 93.8967 0.452148 92.8842 0.452148 91.8285V4.61867C0.452148 3.65894 1.02164 2.73851 2.03535 2.05988C3.04907 1.38125 4.42395 1 5.85755 1H195.047C196.48 1 197.855 1.38125 198.869 2.05988C199.883 2.73851 200.452 3.65894 200.452 4.61867Z" fill="#92E3A9" stroke="#263238" stroke-width="0.827588" stroke-miterlimit="10"/>
<path d="M200.452 4.61867V12.1455H0.452148V4.61867C0.452148 3.65894 1.02164 2.73851 2.03535 2.05988C3.04907 1.38125 4.42395 1 5.85755 1H195.047C196.48 1 197.855 1.38125 198.869 2.05988C199.883 2.73851 200.452 3.65894 200.452 4.61867Z" fill="#C9C9C9" stroke="#263238" stroke-width="0.827588" stroke-miterlimit="10"/>
<path d="M129.349 10.6866H22.6575C22.1767 10.6857 21.7162 10.5571 21.3767 10.3292C21.0373 10.1013 20.8467 9.7926 20.8467 9.47075C20.8467 9.14891 21.0373 8.8402 21.3767 8.61228C21.7162 8.38436 22.1767 8.25584 22.6575 8.25488H129.349C129.831 8.25488 130.293 8.38298 130.634 8.611C130.974 8.83902 131.166 9.14829 131.166 9.47075C131.166 9.79322 130.974 10.1025 130.634 10.3305C130.293 10.5585 129.831 10.6866 129.349 10.6866Z" fill="white" stroke="#263238" stroke-width="0.827588" stroke-miterlimit="10"/>
<path d="M190.317 8.49805H197.215" stroke="#263238" stroke-width="0.827588" stroke-miterlimit="10"/>
<path d="M190.317 9.4707H197.215" stroke="#263238" stroke-width="0.827588" stroke-miterlimit="10"/>
<path d="M190.317 10.4453H197.215" stroke="#263238" stroke-width="0.827588" stroke-miterlimit="10"/>
<path d="M200.452 4.61867V6.78987H0.452148V4.61867C0.452148 3.65894 1.02164 2.73851 2.03535 2.05988C3.04907 1.38125 4.42395 1 5.85755 1H195.047C196.48 1 197.855 1.38125 198.869 2.05988C199.883 2.73851 200.452 3.65894 200.452 4.61867Z" fill="#263238" stroke="#263238" stroke-width="0.827588" stroke-miterlimit="10"/>
<path d="M180.528 4.01476C180.534 3.79473 180.443 3.5784 180.265 3.39339C180.087 3.20838 179.83 3.06308 179.528 2.97604C179.226 2.88899 178.892 2.86415 178.569 2.90469C178.246 2.94522 177.949 3.0493 177.714 3.20362C177.48 3.35795 177.319 3.55553 177.254 3.77114C177.188 3.98675 177.219 4.21061 177.344 4.41415C177.469 4.61769 177.682 4.79168 177.955 4.9139C178.229 5.03612 178.55 5.10104 178.879 5.10036C179.094 5.10276 179.308 5.07646 179.508 5.02298C179.708 4.9695 179.89 4.88991 180.043 4.78886C180.197 4.68782 180.319 4.56733 180.402 4.43442C180.485 4.30152 180.528 4.15886 180.528 4.01476Z" fill="white" stroke="#263238" stroke-width="0.827588" stroke-miterlimit="10"/>
<path d="M187.36 4.01339C187.365 3.79436 187.273 3.57923 187.095 3.39536C186.918 3.21149 186.662 3.06722 186.361 2.9809C186.061 2.89458 185.728 2.87013 185.407 2.91065C185.085 2.95117 184.789 3.05483 184.556 3.20844C184.322 3.36205 184.163 3.55866 184.097 3.77323C184.031 3.98781 184.062 4.21065 184.186 4.41338C184.31 4.61611 184.521 4.78956 184.793 4.91165C185.064 5.03375 185.384 5.09896 185.711 5.09899C185.927 5.10139 186.14 5.07508 186.34 5.0216C186.54 4.96812 186.722 4.88854 186.876 4.78749C187.029 4.68644 187.151 4.56596 187.234 4.43305C187.317 4.30015 187.36 4.15749 187.36 4.01339Z" fill="white" stroke="#263238" stroke-width="0.827588" stroke-miterlimit="10"/>
<path d="M194.193 4.01339C194.198 3.79436 194.106 3.57923 193.928 3.39536C193.75 3.21149 193.495 3.06722 193.194 2.9809C192.893 2.89458 192.561 2.87013 192.239 2.91065C191.918 2.95117 191.621 3.05483 191.388 3.20844C191.155 3.36205 190.995 3.55866 190.929 3.77323C190.863 3.98781 190.894 4.21065 191.018 4.41338C191.142 4.61611 191.354 4.78956 191.625 4.91165C191.897 5.03375 192.217 5.09896 192.544 5.09899C192.759 5.10139 192.973 5.07508 193.173 5.0216C193.373 4.96812 193.555 4.88854 193.708 4.78749C193.862 4.68644 193.983 4.56596 194.067 4.43305C194.15 4.30015 194.193 4.15749 194.193 4.01339Z" fill="white" stroke="#263238" stroke-width="0.827588" stroke-miterlimit="10"/>
<path d="M189.673 15.8613H11.7761V90.3914H189.673V15.8613Z" fill="white" stroke="#263238" stroke-width="0.827588" stroke-miterlimit="10"/>
<path d="M185.133 18.9482H16.3115V87.2976H185.133V18.9482Z" stroke="#92E3A9" stroke-width="4.13794" stroke-miterlimit="10"/>
<path d="M180.82 22.3682H20.625V83.8855H180.82V22.3682Z" stroke="#92E3A9" stroke-width="0.827588" stroke-miterlimit="10"/>
<path d="M73.9328 29.5657V30.199H72.8193V29.5259C72.8193 28.8926 72.4463 28.5127 71.5923 28.5127C70.7382 28.5127 70.3653 28.8745 70.3653 29.5259V33.2387C70.3653 33.8683 70.7544 34.2519 71.5923 34.2519C72.4301 34.2519 72.8193 33.8683 72.8193 33.2387V32.3231H73.9328V33.1844C73.9328 34.2483 73.1815 34.9503 71.5598 34.9503C69.9382 34.9503 69.2085 34.2483 69.2085 33.1844V29.5657C69.2085 28.5018 69.9598 27.7998 71.5598 27.7998C73.1598 27.7998 73.9328 28.4982 73.9328 29.5657Z" fill="#263238"/>
<path d="M78.7278 30.9773V31.6793H76.1603V34.1762H79.3116V34.8999H74.9873V27.8652H79.3116V28.589H76.1603V30.9881L78.7278 30.9773Z" fill="#263238"/>
<path d="M82.7275 27.8652C84.3762 27.8652 85.0626 28.4297 85.0626 29.4719V30.0437C85.0626 30.8181 84.6572 31.2993 83.7599 31.4911C84.7167 31.6829 85.0789 32.2149 85.0789 32.9567V34.0423C85.0445 34.3307 85.1169 34.6203 85.2897 34.8854H84.1059C83.9398 34.6166 83.8731 34.3249 83.9113 34.0351V32.9314C83.9113 32.1353 83.3707 31.8856 82.3816 31.8856H81.5545V34.8854H80.387V27.8652H82.7275ZM82.4248 31.1763C83.3545 31.1763 83.9113 30.9773 83.9113 30.2137V29.5407C83.9113 28.911 83.5653 28.5781 82.6951 28.5781H81.5545V31.1763H82.4248Z" fill="#263238"/>
<path d="M87.8194 34.8882V28.5772H85.8896V27.8535H90.9221V28.5772H88.9923V34.8882H87.8194Z" fill="#263238"/>
<path d="M92.9007 27.8652V34.8891H91.7332V27.8652H92.9007Z" fill="#263238"/>
<path d="M97.6846 31.1365V31.8602H95.2684V34.8999H94.1008V27.8652H98.2684V28.589H95.2684V31.1474L97.6846 31.1365Z" fill="#263238"/>
<path d="M100.366 27.8652V34.8891H99.1926V27.8652H100.366Z" fill="#263238"/>
<path d="M106.192 29.5657V30.199H105.068V29.5259C105.068 28.8926 104.695 28.5127 103.841 28.5127C102.987 28.5127 102.609 28.8745 102.609 29.5259V33.2387C102.609 33.8683 102.998 34.2519 103.841 34.2519C104.684 34.2519 105.068 33.8683 105.068 33.2387V32.3231H106.176V33.1844C106.176 34.2483 105.43 34.9503 103.809 34.9503C102.187 34.9503 101.457 34.2483 101.457 33.1844V29.5657C101.457 28.5018 102.203 27.7998 103.809 27.7998C105.414 27.7998 106.192 28.4982 106.192 29.5657Z" fill="#263238"/>
<path d="M108.442 33.4742L108.036 34.8891H106.955L108.96 27.8652H110.652L112.663 34.8891H111.501L111.096 33.4742H108.442ZM108.593 32.8011H110.928L109.744 28.7482L108.593 32.8011Z" fill="#263238"/>
<path d="M115.111 34.8882V28.5772H113.176V27.8535H118.214V28.5772H116.279V34.8882H115.111Z" fill="#263238"/>
<path d="M120.203 27.8652V34.8891H119.036V27.8652H120.203Z" fill="#263238"/>
<path d="M121.284 29.5657C121.284 28.4801 122.079 27.7998 123.679 27.7998C125.279 27.7998 126.095 28.491 126.095 29.5657V33.1844C126.095 34.2483 125.301 34.9503 123.679 34.9503C122.057 34.9503 121.284 34.27 121.284 33.1844V29.5657ZM122.436 33.2387C122.436 33.8792 122.841 34.2519 123.679 34.2519C124.517 34.2519 124.922 33.89 124.922 33.2387V29.5223C124.922 28.889 124.533 28.5091 123.679 28.5091C122.825 28.5091 122.436 28.8709 122.436 29.5223V33.2387Z" fill="#263238"/>
<path d="M128.252 34.8891H127.23V27.8652H128.712L131.139 32.9314V27.8652H132.176V34.8891H130.96L128.257 29.2114L128.252 34.8891Z" fill="#263238"/>
<path d="M61.4199 38.8027H141.89" stroke="#263238" stroke-width="0.827588" stroke-miterlimit="10"/>
<path d="M169.987 45.6758H175.555" stroke="#263238" stroke-width="0.827588" stroke-miterlimit="10"/>
<path d="M122.349 45.6758H167.046" stroke="#263238" stroke-width="0.827588" stroke-miterlimit="10"/>
<path d="M96.4736 45.6758H119.798" stroke="#263238" stroke-width="0.827588" stroke-miterlimit="10"/>
<path d="M61.7708 45.6758H94.1167" stroke="#263238" stroke-width="0.827588" stroke-miterlimit="10"/>
<path d="M40.7925 45.6758H58.4357" stroke="#263238" stroke-width="0.827588" stroke-miterlimit="10"/>
<path d="M27.7546 45.6758H38.2465" stroke="#263238" stroke-width="0.827588" stroke-miterlimit="10"/>
<path d="M94.7058 48.9727H175.554" stroke="#263238" stroke-width="0.827588" stroke-miterlimit="10"/>
<path d="M31.9707 48.9727H92.1599" stroke="#263238" stroke-width="0.827588" stroke-miterlimit="10"/>
<path d="M27.7546 48.9727H29.6195" stroke="#263238" stroke-width="0.827588" stroke-miterlimit="10"/>
<path d="M169.398 52.2686H175.554" stroke="#263238" stroke-width="0.827588" stroke-miterlimit="10"/>
<path d="M136.268 52.2686H166.458" stroke="#263238" stroke-width="0.827588" stroke-miterlimit="10"/>
<path d="M90.5874 52.2686H133.917" stroke="#263238" stroke-width="0.827588" stroke-miterlimit="10"/>
<path d="M83.9221 52.2686H88.041" stroke="#263238" stroke-width="0.827588" stroke-miterlimit="10"/>
<path d="M27.7546 52.2686H80.3925" stroke="#263238" stroke-width="0.827588" stroke-miterlimit="10"/>
<path d="M150.971 55.5693H175.555" stroke="#263238" stroke-width="0.827588" stroke-miterlimit="10"/>
<path d="M63.1438 55.5693H148.619" stroke="#263238" stroke-width="0.827588" stroke-miterlimit="10"/>
<path d="M55.301 55.5693H60.0091" stroke="#263238" stroke-width="0.827588" stroke-miterlimit="10"/>
<path d="M27.7546 55.5693H52.7546" stroke="#263238" stroke-width="0.827588" stroke-miterlimit="10"/>
<path d="M160.187 58.8652H175.554" stroke="#263238" stroke-width="0.827588" stroke-miterlimit="10"/>
<path d="M94.5117 58.8652H157.052" stroke="#263238" stroke-width="0.827588" stroke-miterlimit="10"/>
<path d="M69.4138 58.8652H91.5706" stroke="#263238" stroke-width="0.827588" stroke-miterlimit="10"/>
<path d="M34.3223 58.8652H66.4736" stroke="#263238" stroke-width="0.827588" stroke-miterlimit="10"/>
<path d="M27.7546 58.8652H32.3654" stroke="#263238" stroke-width="0.827588" stroke-miterlimit="10"/>
<path d="M33.7275 73.3902L38.7978 82.2089L41.2519 78.2211L47.214 79.8459L41.387 71.5664L33.7275 73.3902Z" fill="#263238" stroke="#263238" stroke-width="0.827588" stroke-linecap="round" stroke-linejoin="round"/>
<path d="M31.9169 71.4736L25.7817 79.9811L31.8034 78.4577L34.1115 82.478L39.1493 73.9705L31.9169 71.4736Z" fill="#263238" stroke="#263238" stroke-width="0.827588" stroke-linecap="round" stroke-linejoin="round"/>
<path d="M47.1981 69.3302C47.1981 69.0081 48.2413 68.639 48.1764 68.3278C48.1116 68.0166 46.9548 67.8538 46.8197 67.5534C46.6845 67.2531 47.5278 66.6958 47.3332 66.4099C47.1386 66.124 45.9602 66.1892 45.7116 65.9214C45.4629 65.6536 46.0305 64.9661 45.7116 64.7272C45.3926 64.4884 44.3008 64.7743 43.944 64.5644C43.5872 64.3545 43.8575 63.591 43.4575 63.4173C43.0575 63.2436 42.1278 63.7285 41.6899 63.5946C41.2521 63.4607 41.1981 62.6755 40.7386 62.585C40.2791 62.4945 39.5981 63.135 39.117 63.0916C38.6359 63.0482 38.2575 62.3027 37.7764 62.3027C37.2953 62.3027 36.9008 63.0482 36.4359 63.0916C35.971 63.135 35.2683 62.4981 34.8143 62.585C34.3602 62.6718 34.2737 63.4643 33.8575 63.5946C33.4413 63.7249 32.4953 63.2327 32.0953 63.4173C31.6953 63.6018 31.9656 64.3581 31.6089 64.568C31.2521 64.7779 30.1494 64.4884 29.8413 64.7272C29.5332 64.9661 30.1062 65.6536 29.8413 65.9214C29.5764 66.1892 28.4089 66.1204 28.2197 66.4099C28.0305 66.6994 28.8683 67.2458 28.7332 67.5534C28.5981 67.861 27.4467 68.013 27.3764 68.3278C27.3062 68.6426 28.3548 69.0081 28.3548 69.3302C28.3548 69.6522 27.3116 70.0177 27.3764 70.3289C27.4413 70.6401 28.5981 70.803 28.7332 71.1069C28.8683 71.4109 28.0197 71.961 28.2197 72.2468C28.4197 72.5327 29.5926 72.4712 29.8413 72.7353C30.0899 72.9995 29.517 73.6907 29.8413 73.9295C30.1656 74.1683 31.2467 73.8825 31.6089 74.0923C31.971 74.3022 31.6953 75.0658 32.0953 75.2395C32.4953 75.4132 33.4251 74.9283 33.8575 75.0621C34.2899 75.196 34.3548 75.9813 34.8143 76.0718C35.2737 76.1622 35.9548 75.5217 36.4359 75.5688C36.917 75.6158 37.2953 76.354 37.7764 76.354C38.2575 76.354 38.6521 75.6122 39.117 75.5688C39.5818 75.5253 40.2845 76.1586 40.7386 76.0718C41.1927 75.9849 41.2791 75.1924 41.6953 75.0621C42.1116 74.9319 43.0575 75.424 43.4575 75.2395C43.8575 75.0549 43.5872 74.2986 43.944 74.0923C44.3008 73.8861 45.4035 74.1683 45.7116 73.9295C46.0197 73.6907 45.4467 73.0031 45.7116 72.7353C45.9764 72.4676 47.144 72.5363 47.3332 72.2468C47.5224 71.9573 46.6845 71.4109 46.8197 71.1033C46.9548 70.7957 48.1062 70.6474 48.1764 70.3289C48.2467 70.0105 47.1981 69.6522 47.1981 69.3302Z" fill="#92E3A9" stroke="#263238" stroke-width="0.827588" stroke-miterlimit="10"/>
<path d="M37.7872 73.695C41.3875 73.695 44.3061 71.7411 44.3061 69.3309C44.3061 66.9207 41.3875 64.9668 37.7872 64.9668C34.1869 64.9668 31.2683 66.9207 31.2683 69.3309C31.2683 71.7411 34.1869 73.695 37.7872 73.695Z" fill="#263238" stroke="#263238" stroke-width="0.827588" stroke-linecap="round" stroke-linejoin="round"/>
<path d="M37.7871 66.332L38.7925 68.4055H42.0465L39.4141 69.6829L40.4195 71.7564L37.7871 70.4754L35.1546 71.7564L36.16 69.6829L33.5276 68.4055H36.7816L37.7871 66.332Z" fill="#92E3A9"/>
<path d="M54.8682 67.2402H79.733" stroke="#263238" stroke-width="0.827588" stroke-miterlimit="10"/>
<path d="M54.8682 71.2158H79.733" stroke="#263238" stroke-width="0.827588" stroke-miterlimit="10"/>
<path d="M161.658 76.6815C166.762 76.6815 170.901 73.9111 170.901 70.4936C170.901 67.0761 166.762 64.3057 161.658 64.3057C156.553 64.3057 152.414 67.0761 152.414 70.4936C152.414 73.9111 156.553 76.6815 161.658 76.6815Z" stroke="#92E3A9" stroke-width="0.827588" stroke-miterlimit="10"/>
<path d="M162.996 74.6021C166.379 74.1062 168.521 71.8684 167.78 69.6037C167.039 67.3391 163.696 65.9052 160.314 66.401C156.931 66.8969 154.789 69.1347 155.53 71.3993C156.27 73.664 159.613 75.0979 162.996 74.6021Z" fill="#92E3A9"/>
<path d="M120.136 78.5035C120.143 76.4061 118.488 74.7031 116.437 74.6998C114.387 74.6964 112.719 76.394 112.712 78.4914C112.704 80.5888 114.36 82.2918 116.41 82.2951C118.46 82.2985 120.128 80.6009 120.136 78.5035Z" fill="white" stroke="#263238" stroke-width="0.62937" stroke-linecap="round" stroke-linejoin="round"/>
<path d="M121.085 68.9897C121.085 68.9897 119.083 69.7575 117.176 68.9264C115.269 68.0953 116.605 67.7155 116.987 67.2037C117.369 66.6918 116.416 66.5652 116.222 65.8635C116.029 65.1617 116.699 64.5866 117.082 64.5233C117.464 64.46 117.369 63.7555 117.369 63.0537C117.369 62.352 118.602 61.7135 119.178 61.7135C119.754 61.7135 120.132 61.2044 120.514 60.566C120.896 59.9275 121.661 59.3524 122.98 59.7404C124.3 60.1284 124.982 60.1229 125.652 59.4845C126.322 58.846 127.938 58.7194 128.53 59.0386C129.122 59.3579 129.385 59.9963 130.532 59.3579C131.679 58.7194 133.105 58.8488 133.771 59.2946C134.437 59.7404 134.343 60.2522 135.415 59.9963C136.488 59.7404 138.178 60.1229 138.56 60.8907C138.942 61.6585 141.027 62.4868 141.804 62.2942C142.58 62.1016 143.9 62.2942 143.23 63.2519C142.56 64.2095 143.329 64.848 143.9 64.848C144.471 64.848 145.713 65.1039 145.043 65.9323C144.373 66.7606 143.9 67.4018 144.66 67.655C145.421 67.9082 146.662 67.9742 145.713 69.0612C144.763 70.1482 143.995 70.0822 144.282 70.7124C144.57 71.3426 145.137 71.538 144.282 71.9893C143.427 72.4406 142.375 72.6278 142.375 73.0103C142.375 73.3928 143.518 73.5827 142.182 73.9019C141.411 74.0902 140.611 74.2194 139.797 74.2872C139.797 74.2872 137.894 70.839 132.456 69.6914C127.017 68.5439 123.877 68.6677 122.635 69.1163C121.394 69.5648 121.085 68.9897 121.085 68.9897Z" fill="#263238" stroke="#263238" stroke-width="0.62937" stroke-linecap="round" stroke-linejoin="round"/>
<path d="M123.005 92.3916L116.017 94.5491C116.017 94.5491 112.403 107.94 112.662 111.655C112.921 115.37 116.017 124.614 116.017 124.614H132.805C132.805 124.614 130.224 113.295 131.514 109.236C132.805 105.177 135.905 94.0318 135.905 94.0318C135.905 94.0318 130.741 93.0823 129.192 92.909C127.642 92.7356 123.005 92.3916 123.005 92.3916Z" fill="white" stroke="#263238" stroke-width="0.62937" stroke-miterlimit="10"/>
<path d="M114.989 98.6464L134.309 99.7637C134.153 100.314 133.997 100.864 133.837 101.415L114.598 100.314C114.718 99.7307 114.862 99.172 114.989 98.6464ZM131.522 109.225C131.67 108.757 131.843 108.196 132.032 107.574L113.262 106.489C113.156 107.067 113.061 107.626 112.975 108.157L131.522 109.233V109.225ZM133.167 103.66L114.056 102.56C113.933 103.11 113.809 103.66 113.694 104.227L132.682 105.328C132.858 104.794 133.019 104.238 133.183 103.671L133.167 103.66ZM112.675 110.606C112.65 111.003 112.646 111.352 112.675 111.644C112.675 111.845 112.712 112.062 112.74 112.291L131.161 113.078C131.161 112.489 131.161 111.922 131.161 111.393L112.675 110.606ZM116.136 94.502L116.021 94.5377C116.021 94.5377 115.856 95.1542 115.61 96.1586L134.996 97.2814C135.169 96.6567 135.329 96.0953 135.46 95.6303L116.136 94.502ZM131.757 119.11L114.307 118.986C114.471 119.569 114.64 120.134 114.8 120.67L132.065 120.802C131.983 120.274 131.876 119.707 131.785 119.132L131.757 119.11ZM113.558 116.336L131.469 117.04C131.398 116.477 131.336 115.913 131.284 115.348L113.151 114.635C113.299 115.194 113.439 115.766 113.587 116.347L113.558 116.336Z" fill="#263238"/>
<path d="M121.973 89.9619C121.973 89.9619 120.555 93.589 120.428 95.4906C120.3 97.3922 123.264 98.9443 127.523 98.6856C131.781 98.4269 132.554 95.3172 132.554 94.5384C132.554 93.7596 132.805 87.21 132.805 87.21C131.377 88.0278 129.866 88.7781 128.283 89.4556C125.845 90.4903 121.973 89.9619 121.973 89.9619Z" fill="#B5B5B5" stroke="#263238" stroke-width="0.62937" stroke-miterlimit="10"/>
<path d="M125.846 93.0824C129.878 91.789 131.889 89.249 132.797 87.6363C132.797 87.3611 132.797 87.207 132.797 87.207C131.369 88.0248 129.858 88.7752 128.275 89.4526C125.809 90.4901 121.953 89.9727 121.953 89.9727C121.953 89.9727 121.069 92.2404 120.633 94.1282C122.445 93.9758 124.207 93.6224 125.846 93.0824Z" fill="#263238" stroke="#263238" stroke-width="0.62937" stroke-miterlimit="10"/>
<path d="M139.666 76.1038C139.666 76.1038 139.502 72.2731 137.376 70.0825C135.251 67.892 130.77 66.5518 125.768 67.1214C119.56 67.8369 116.773 70.9521 115.791 73.5802C114.808 76.2084 115.955 80.0391 115.955 82.6617C115.955 85.2843 120.535 89.9956 121.842 90.7634C123.149 91.5312 125.167 91.7844 127.474 91.0028C129.591 90.2818 133.072 87.8298 135.198 86.4071C137.323 84.9843 138.589 80.7518 138.918 79.7666C139.247 78.7814 139.666 76.1038 139.666 76.1038Z" fill="#B5B5B5" stroke="#263238" stroke-width="0.62937" stroke-linecap="round" stroke-linejoin="round"/>
<path d="M122.327 83.5449C122.327 83.5449 122.134 84.3705 124.995 84.2467" stroke="#263238" stroke-width="0.62937" stroke-linecap="round" stroke-linejoin="round"/>
<path d="M121.468 85.7129C121.468 85.7129 124.806 87.2457 128.144 85.7789" stroke="#263238" stroke-width="0.62937" stroke-linecap="round" stroke-linejoin="round"/>
<path d="M128.144 80.6054C128.144 80.6054 128.999 79.6477 131.481 80.476" stroke="#263238" stroke-width="1.25874" stroke-linecap="round" stroke-linejoin="round"/>
<path d="M121.467 80.0326C121.467 80.4922 121.147 80.8582 120.752 80.8582C120.357 80.8582 120.037 80.4867 120.037 80.0326C120.037 79.5785 120.357 79.207 120.752 79.207C121.147 79.207 121.467 79.5758 121.467 80.0326Z" fill="#263238"/>
<path d="M118.418 77.4159C118.418 77.4159 119.277 76.1389 122.117 76.7774" stroke="#263238" stroke-width="0.62937" stroke-linecap="round" stroke-linejoin="round"/>
<path d="M126.902 77.3032C126.902 77.3032 129.574 76.3456 132.529 77.8123" stroke="#263238" stroke-width="0.62937" stroke-linecap="round" stroke-linejoin="round"/>
<path d="M125.767 67.1204C119.56 67.8359 116.773 70.9511 115.791 73.5792C115.585 74.1627 115.464 74.758 115.429 75.357C115.75 74.6882 117.414 71.7547 122.134 70.9538C127.478 70.0622 132.147 71.2098 133.767 72.7426C135.387 74.2754 135 76.2541 135.58 77.2118C135.942 77.8172 137.758 78.7308 139.045 79.3198C139.341 78.1447 139.666 76.089 139.666 76.089C139.666 76.089 139.501 72.2583 137.376 70.0677C135.251 67.8772 130.77 66.5507 125.767 67.1204Z" fill="#263238" stroke="#263238" stroke-width="0.62937" stroke-linecap="round" stroke-linejoin="round"/>
<path d="M138.058 76.7777C138.058 76.7777 138.535 73.3956 137.105 71.161C135.674 68.9264 133.96 67.9688 133.96 67.9688C133.96 67.9688 137.964 69.375 139.394 70.7207C140.825 72.0664 141.014 75.3165 140.628 77.551L137.672 77.2318L138.058 76.7777Z" fill="#92E3A9" stroke="#263238" stroke-width="0.62937" stroke-miterlimit="10"/>
<path d="M141.902 80.096C141.326 82.1572 139.226 83.624 137.207 83.3736C135.189 83.1232 134.026 81.2436 134.601 79.1824C135.177 77.1211 137.277 75.6544 139.292 75.9048C141.306 76.1552 142.477 78.0348 141.902 80.096Z" fill="white" stroke="#263238" stroke-width="0.62937" stroke-linecap="round" stroke-linejoin="round"/>
<path d="M141.538 80.3609C141.974 78.7967 141.089 77.3736 139.56 77.1825C138.031 76.9913 136.438 78.1044 136.002 79.6687C135.565 81.2329 136.451 82.6559 137.979 82.8471C139.508 83.0382 141.101 81.9251 141.538 80.3609Z" fill="#92E3A9" stroke="#263238" stroke-width="0.62937" stroke-miterlimit="10"/>
<path d="M118.232 116.194C119.194 120.762 120.378 124.86 120.378 124.86H113.328C113.328 124.86 111.524 118.638 109.329 115.184C108.095 113.219 107.795 112.432 107.775 112.11C106.817 113.637 100.848 123.074 99.7793 123.393C98.6159 123.737 94.3572 123.118 92.791 122.788C91.2248 122.457 91.118 120.974 91.3769 120.369C91.6359 119.763 102.476 102.225 103.504 101.105C104.467 99.9638 105.205 98.7437 105.699 97.4752C105.826 96.9578 105.567 95.747 106.731 95.3177C107.433 95.0562 112.375 94.2912 116.185 93.7243C118.676 93.3528 120.678 93.0693 120.678 93.0693C120.678 93.0693 117.595 100.756 117.069 106.199C116.843 108.612 117.48 112.553 118.232 116.191C118.237 116.191 118.237 116.191 118.232 116.194Z" fill="#92E3A9" stroke="#263238" stroke-width="0.62937" stroke-miterlimit="10"/>
<path d="M118.232 116.191C117.345 115.214 113.744 111.02 113.263 106.653C112.831 102.734 115.166 96.3025 116.194 93.7184C118.685 93.3469 120.687 93.0635 120.687 93.0635C120.687 93.0635 117.595 100.755 117.069 106.199C116.843 108.612 117.464 112.553 118.232 116.191Z" fill="#92E3A9" stroke="#263238" stroke-width="0.62937" stroke-miterlimit="10"/>
<path d="M108.769 103.056C109.09 102.123 109.328 101.619 109.328 101.619" stroke="#263238" stroke-width="0.62937" stroke-miterlimit="10"/>
<path d="M107.91 111.901C107.91 111.901 107.133 110.085 107.779 106.805C107.951 105.938 108.136 105.167 108.321 104.504" stroke="#263238" stroke-width="0.62937" stroke-miterlimit="10"/>
<path d="M164.688 112.658C161.72 112.569 146.88 106.38 146.88 106.38C146.88 106.38 142.231 112.479 142.104 113.717C141.976 114.955 145.717 124.86 145.717 124.86H129.846C129.846 124.86 129.365 121.384 129.266 117.573C129.221 115.814 129.266 113.995 129.459 112.391C130.104 107.352 132.682 93.127 132.682 93.127L135.268 93.3031C135.268 93.3031 135.999 93.4682 137.146 93.7351C140.2 94.4451 146.19 95.8982 148.817 96.9274C152.426 98.3419 157.449 100.643 159.916 101.705C162.382 102.767 168.174 105.153 169.333 108.337C170.493 111.521 167.656 112.746 164.688 112.658Z" fill="#92E3A9" stroke="#263238" stroke-width="0.62937" stroke-miterlimit="10"/>
<path d="M137.146 93.7241C136.797 97.2631 135.769 105.692 133.553 109.771C131.432 113.67 129.907 116.419 129.266 117.573C129.221 115.814 129.266 113.995 129.459 112.391C130.104 107.352 132.682 93.127 132.682 93.127L135.268 93.3031C135.268 93.3031 135.999 93.4572 137.146 93.7241Z" stroke="#263238" stroke-width="0.62937" stroke-miterlimit="10"/>
<path d="M146.88 106.378L140.944 105.143" stroke="#263238" stroke-width="0.62937" stroke-miterlimit="10"/>
<path d="M138.437 102.464C138.609 103.771 139.148 105.216 140.558 106.025" stroke="#263238" stroke-width="0.62937" stroke-miterlimit="10"/>
<path d="M138.49 99.748C138.407 100.243 138.365 100.741 138.363 101.24" stroke="#263238" stroke-width="0.62937" stroke-miterlimit="10"/>
<path d="M137.738 104.344C137.738 104.344 139.156 106.113 140.833 106.732" stroke="#263238" stroke-width="0.62937" stroke-miterlimit="10"/>
<path d="M146.629 91.6795C146.391 91.031 146.266 90.3659 146.259 89.6981C146.259 88.633 146.629 88.0331 146.05 88.0689C145.47 88.1047 144.459 88.6 144.142 89.4449C143.826 90.2897 144.512 91.074 144.619 91.3575C144.684 91.5313 144.72 91.7095 144.726 91.8886C144.726 91.8886 140.122 91.9932 139.275 91.9932C138.428 91.9932 137.582 92.3124 137.582 92.8435C137.582 93.3747 138.482 93.6691 138.482 93.6691L138.893 93.8122C138.893 93.8122 138.363 94.4837 138.733 94.8387C138.937 95.041 139.188 95.2203 139.477 95.3698C139.365 95.4772 139.297 95.6019 139.279 95.732C139.26 95.8621 139.291 95.9932 139.37 96.1128C139.507 96.354 139.745 96.5634 140.056 96.7155C140.056 96.7155 139.37 97.1421 140.27 97.709C141.17 98.2759 143.127 98.3117 144.5 98.3117C145.873 98.3117 147.04 98.3447 147.04 98.3447L147.624 98.3804L152.491 103.235L157.095 99.7977C157.095 99.7977 150.321 95.3946 149.42 94.6268C148.52 93.859 146.629 91.6795 146.629 91.6795Z" fill="#B5B5B5" stroke="#263238" stroke-width="0.62937" stroke-miterlimit="10"/>
<path d="M156.944 99.3887L150.621 103.362C150.621 103.362 156.43 108.547 159.525 111.153C162.621 113.759 168.302 114.18 170.752 112.879C173.202 111.577 173.465 108.646 171.27 106.824C169.074 105.003 156.944 99.3887 156.944 99.3887Z" fill="#92E3A9" stroke="#263238" stroke-width="0.62937" stroke-miterlimit="10"/>
<path d="M114.635 120.261C114.635 120.261 123.918 121.334 124.785 121.334C125.652 121.334 134.811 119.76 135.428 120.09C136.044 120.421 140.13 122.743 141.121 123.407C141.71 123.798 142.21 124.245 142.605 124.733H134.067L131.469 124.317C131.469 124.317 129.266 125 128.028 125C126.791 125 122.647 124.84 122.647 124.84L115.355 124.761C115.355 124.761 112.901 122 114.635 120.261Z" fill="#B5B5B5" stroke="#263238" stroke-width="0.62937" stroke-miterlimit="10"/>
<path d="M136.665 124.736C136.665 124.736 134.56 123.162 133.697 122.746C133.174 122.493 132.596 122.296 131.983 122.16" stroke="#263238" stroke-width="0.62937" stroke-miterlimit="10"/>
<path d="M139.514 124.818C139.514 124.818 135.428 121.835 134.935 121.584C134.389 121.372 133.806 121.206 133.2 121.089" stroke="#263238" stroke-width="0.62937" stroke-miterlimit="10"/>
<path d="M94.3366 117.443C94.3366 117.443 90.6369 119.432 90.0039 120.745C89.3708 122.058 90.2505 123.646 92.2319 124.144C94.2133 124.642 116.313 124.912 116.313 124.912C115.951 125.024 114.331 124.009 115.252 122.652C115.877 121.733 117.603 120.415 117.603 120.415L99.1626 117.267" fill="#92E3A9"/>
<path d="M94.3366 117.443C94.3366 117.443 90.6369 119.432 90.0039 120.745C89.3708 122.058 90.2505 123.646 92.2319 124.144C94.2133 124.642 116.313 124.912 116.313 124.912C115.951 125.024 114.331 124.009 115.252 122.652C115.877 121.733 117.603 120.415 117.603 120.415L99.1626 117.267" stroke="#263238" stroke-width="0.62937" stroke-miterlimit="10"/>
<path d="M132.564 123.418H54.2417V124.092H132.564V123.418Z" fill="#263238" stroke="#263238" stroke-width="0.649946" stroke-miterlimit="10"/>
<path d="M104.152 124.091H55.3032L50.7864 101.35H99.6351L104.152 124.091Z" fill="white" stroke="#263238" stroke-width="0.649946" stroke-miterlimit="10"/>
<path d="M103.159 124.091H54.3142L49.7974 101.35H98.6419L103.159 124.091Z" fill="white" stroke="#263238" stroke-width="0.649946" stroke-miterlimit="10"/>
<path d="M58.0879 124.091H103.01L99.6138 106.926C93.6027 109.484 86.2798 112.794 78.299 116.872C72.2158 120.022 65.383 122.462 58.0879 124.091Z" fill="#263238" stroke="#263238" stroke-width="0.649946" stroke-miterlimit="10"/>
<path d="M74.9242 114.491C76.6966 114.491 78.1335 113.603 78.1335 112.507C78.1335 111.412 76.6966 110.523 74.9242 110.523C73.1517 110.523 71.7148 111.412 71.7148 112.507C71.7148 113.603 73.1517 114.491 74.9242 114.491Z" fill="white" stroke="#263238" stroke-width="0.649946" stroke-miterlimit="10"/>
</svg>
