<svg width="61" height="62" viewBox="0 0 61 62" fill="none" xmlns="http://www.w3.org/2000/svg">
    <rect y="0.5" width="60.8571" height="60.8571" rx="30.4286" fill="#FFD966" fill-opacity="0.3" />
    <path
        d="M18 22C18 20.8954 18.8954 20 20 20H41C42.1046 20 43 20.8954 43 22V37C43 38.1046 42.1046 39 41 39H20C18.8954 39 18 38.1046 18 37V22Z"
        fill="#FFE066" stroke="#FFA500" stroke-width="2" />
    <rect x="21" y="23" width="18" height="10" rx="2" fill="#FFFAE6" />
    <circle cx="25" cy="28" r="1.5" fill="#FFA500" />
    <circle cx="36" cy="28" r="1.5" fill="#FFA500" />
    <path d="M27 31C28 32 30 32 31 31" stroke="#FFA500" stroke-linecap="round" />
    <rect x="18" y="39" width="25" height="3" rx="1.5" fill="#FFA500" />
</svg>
