<svg width="61" height="62" viewBox="0 0 61 62" fill="none" xmlns="http://www.w3.org/2000/svg">
<rect y="0.202148" width="60.8571" height="60.8571" rx="30.4286" fill="#702DFF" fill-opacity="0.2"/>
<path d="M28.4285 17.6309C26.3933 17.6309 23.9011 18.0605 21.8738 19.7168C19.8464 21.373 18.4285 24.2363 18.4285 28.6309C18.4285 31.4707 19.5886 33.3613 20.616 34.8027C21.6394 36.248 22.4285 37.2129 22.4285 38.6309V42.6309H24.4285V38.6309C24.4285 36.4668 23.2175 35.0137 22.2449 33.6465C21.2722 32.2754 20.4285 30.9551 20.4285 28.6309C20.4285 24.6504 21.616 22.5137 23.1394 21.2637C24.6667 20.0137 26.6785 19.6309 28.4285 19.6309C32.2683 19.6309 34.448 20.666 35.7253 21.9941C36.9988 23.3223 37.4285 25.0449 37.4285 26.6309V26.9316L40.3816 31.3574C40.4949 31.5254 40.4363 31.6934 40.2449 31.752L37.4285 32.6465V35.6309C37.4285 36.2832 37.0652 37.0723 36.4714 37.666C35.8777 38.2637 35.0925 38.6309 34.4285 38.6309H32.4285V42.6309H34.4285V40.6309C35.7683 40.6309 36.9832 39.9902 37.8855 39.0801C38.7917 38.1699 39.4285 36.9551 39.4285 35.6309V34.1113L40.8503 33.6582C42.2605 33.209 42.8699 31.4785 42.0496 30.248L39.366 26.2363C39.2996 24.3691 38.7722 22.2832 37.1667 20.6074C35.4519 18.8223 32.6355 17.6309 28.4285 17.6309ZM29.4285 24.6309L27.4285 32.6309H29.4285L31.4285 24.6309H29.4285ZM25.4714 25.5488L22.3894 28.6309L25.4714 31.7129L26.8855 30.2988L25.2175 28.6309L26.8855 26.9629L25.4714 25.5488ZM33.3855 25.5488L31.9714 26.9629L33.6394 28.6309L31.9714 30.2988L33.3855 31.7129L36.4675 28.6309L33.3855 25.5488Z" fill="#6C53D9"/>
</svg>
