<svg width="54" height="52" viewBox="0 0 54 52" fill="none" xmlns="http://www.w3.org/2000/svg">
<g id="icons8_idea_1 1">
<path id="Vector" d="M18.4669 35.8944L18.99 38.2502H35.01L35.5331 35.8944C35.8875 34.3003 36.6446 32.7984 37.8293 31.6745C40.9444 28.7214 42.75 24.5972 42.75 20.2502C42.75 11.5674 35.6816 4.52828 27 4.5249C18.3184 4.52828 11.25 11.5674 11.25 20.2502C11.25 24.5972 13.0556 28.7214 16.1696 31.6745C17.3554 32.7984 18.1125 34.3003 18.4669 35.8944ZM19.7404 41.6252L20.8046 46.4165C21.2051 48.2188 22.8038 49.5002 24.6488 49.5002H29.3512C31.1963 49.5002 32.7949 48.2188 33.1954 46.4165L34.2596 41.6252H19.7404Z" fill="#DFF6FF"/>
</g>
</svg>
