<svg width="41" height="40" viewBox="0 0 41 40" fill="none" xmlns="http://www.w3.org/2000/svg">
<g id="icons8_video_playlist 1">
<path id="Vector" d="M10.9713 5.00013C10.8057 4.99778 10.6412 5.02838 10.4875 5.09015C10.3338 5.15192 10.1939 5.24362 10.0759 5.35992C9.95797 5.47623 9.8643 5.61482 9.80037 5.76764C9.73643 5.92046 9.70351 6.08447 9.70351 6.25012C9.70351 6.41578 9.73643 6.57979 9.80037 6.73261C9.8643 6.88543 9.95797 7.02402 10.0759 7.14033C10.1939 7.25663 10.3338 7.34833 10.4875 7.4101C10.6412 7.47187 10.8057 7.50247 10.9713 7.50012H30.138C30.3036 7.50247 30.4681 7.47187 30.6218 7.4101C30.7755 7.34833 30.9154 7.25663 31.0334 7.14033C31.1513 7.02402 31.245 6.88543 31.3089 6.73261C31.3729 6.57979 31.4058 6.41578 31.4058 6.25012C31.4058 6.08447 31.3729 5.92046 31.3089 5.76764C31.245 5.61482 31.1513 5.47623 31.0334 5.35992C30.9154 5.24362 30.7755 5.15192 30.6218 5.09015C30.4681 5.02838 30.3036 4.99778 30.138 5.00013H10.9713ZM8.47131 9.16679C8.30567 9.16445 8.14122 9.19505 7.98751 9.25682C7.8338 9.31858 7.6939 9.41029 7.57594 9.52659C7.45797 9.6429 7.3643 9.78149 7.30037 9.93431C7.23643 10.0871 7.20351 10.2511 7.20351 10.4168C7.20351 10.5824 7.23643 10.7465 7.30037 10.8993C7.3643 11.0521 7.45797 11.1907 7.57594 11.307C7.6939 11.4233 7.8338 11.515 7.98751 11.5768C8.14122 11.6385 8.30567 11.6691 8.47131 11.6668H32.638C32.8036 11.6691 32.9681 11.6385 33.1218 11.5768C33.2755 11.515 33.4154 11.4233 33.5334 11.307C33.6513 11.1907 33.745 11.0521 33.8089 10.8993C33.8729 10.7465 33.9058 10.5824 33.9058 10.4168C33.9058 10.2511 33.8729 10.0871 33.8089 9.93431C33.745 9.78149 33.6513 9.6429 33.5334 9.52659C33.4154 9.41029 33.2755 9.31858 33.1218 9.25682C32.9681 9.19505 32.8036 9.16445 32.638 9.16679H8.47131ZM7.63798 13.3335C6.04218 13.3335 4.72131 14.6543 4.72131 16.2501V32.0835C4.72131 33.6793 6.04218 35.0001 7.63798 35.0001H33.4713C35.0671 35.0001 36.388 33.6793 36.388 32.0835V16.2501C36.388 14.6543 35.0671 13.3335 33.4713 13.3335H7.63798ZM7.63798 15.8335H33.4713C33.7172 15.8335 33.888 16.0043 33.888 16.2501V32.0835C33.888 32.3293 33.7172 32.5001 33.4713 32.5001H7.63798C7.39211 32.5001 7.22131 32.3293 7.22131 32.0835V16.2501C7.22131 16.0043 7.39211 15.8335 7.63798 15.8335ZM17.8365 19.1668C17.5857 19.1684 17.3356 19.2349 17.1123 19.3654C16.6639 19.6262 16.388 20.106 16.388 20.6251V27.7085C16.388 28.2276 16.6639 28.7074 17.1123 28.9682C17.3389 29.0999 17.5921 29.1668 17.8463 29.1668C18.0946 29.1668 18.3416 29.103 18.5641 28.9764L24.8141 25.4347C25.2716 25.1764 25.5546 24.6918 25.5546 24.1668C25.5546 23.6418 25.2716 23.1572 24.8141 22.8989L18.5641 19.3572C18.3383 19.2289 18.0874 19.1652 17.8365 19.1668Z" fill="white"/>
</g>
</svg>
