<svg width="61" height="62" viewBox="0 0 61 62" fill="none" xmlns="http://www.w3.org/2000/svg">
<rect y="0.202148" width="60.8571" height="60.8571" rx="30.4286" fill="#D9D9D9"/>
<path d="M37.7058 18.4941L31.7137 20.3848C30.6164 20.6826 29.74 21.5104 29.3816 22.584L29.3719 22.6113L26.0086 35.0508L27.6902 34.5957L38.4578 31.6836L38.4832 31.6738C39.5507 31.3189 40.3733 30.4499 40.6687 29.3633L40.659 29.4023L42.5652 23.3535L37.7058 18.4941ZM37.1512 20.7676L40.2918 23.9082L38.7449 28.8203L38.739 28.8398C38.6187 29.2823 38.2894 29.6278 37.8543 29.7734L37.8523 29.7754L30.7859 31.6875L33.9129 28.5605C34.081 28.6063 34.2543 28.63 34.4285 28.6309C34.9589 28.6309 35.4676 28.4201 35.8427 28.0451C36.2178 27.67 36.4285 27.1613 36.4285 26.6309C36.4285 26.1004 36.2178 25.5917 35.8427 25.2166C35.4676 24.8416 34.9589 24.6309 34.4285 24.6309C34.1221 24.6313 33.8199 24.7021 33.5453 24.8378C33.2706 24.9735 33.0308 25.1705 32.8443 25.4136C32.6578 25.6567 32.5297 25.9394 32.4698 26.2398C32.4099 26.5403 32.4198 26.8505 32.4988 27.1465L29.3719 30.2734L31.282 23.2129C31.4327 22.7674 31.7762 22.4401 32.239 22.3145L32.2586 22.3105L37.1512 20.7676ZM20.4285 21.6309C19.9856 21.632 19.5556 21.7802 19.2059 22.0522C18.8563 22.3241 18.6068 22.7044 18.4967 23.1334C18.3865 23.5625 18.4219 24.0159 18.5973 24.4227C18.7726 24.8294 19.078 25.1664 19.4656 25.3809C19.8509 34.1576 26.9 41.2075 35.6765 41.5938C35.849 41.9076 36.1025 42.1695 36.4107 42.3519C36.7189 42.5343 37.0704 42.6307 37.4285 42.6309C37.9589 42.6309 38.4676 42.4201 38.8427 42.0451C39.2178 41.67 39.4285 41.1613 39.4285 40.6309C39.4285 40.1004 39.2178 39.5917 38.8427 39.2166C38.4676 38.8416 37.9589 38.6309 37.4285 38.6309C37.0847 38.6313 36.7469 38.7202 36.4475 38.8893C36.1482 39.0583 35.8974 39.3016 35.7195 39.5957C27.9925 39.2351 21.8243 33.0669 21.4637 25.3398C21.8363 25.1133 22.1247 24.7712 22.2849 24.3656C22.4451 23.9601 22.4683 23.5132 22.3511 23.0932C22.2339 22.6732 21.9826 22.303 21.6355 22.039C21.2884 21.775 20.8646 21.6317 20.4285 21.6309Z" fill="#8C8C8C"/>
</svg>
