<svg width="172" height="112" viewBox="0 0 172 112" fill="none" xmlns="http://www.w3.org/2000/svg">
<path d="M116.374 0.585938H0.905762V111.506H116.374V0.585938Z" fill="white"/>
<path d="M116.374 111.507C116.374 111.507 116.374 111.455 116.374 111.37C116.374 111.285 116.374 111.149 116.374 110.979C116.374 110.634 116.374 110.127 116.374 109.446C116.374 108.092 116.374 106.095 116.352 103.485C116.352 98.2738 116.32 90.6356 116.298 80.9197C116.275 61.5176 116.239 33.8089 116.194 0.586593L116.397 0.778185L0.941812 0.807988L1.17562 0.586593C1.17562 41.2342 1.17562 79.3103 1.14415 111.502L0.941812 111.315L84.5993 111.409L108.074 111.46L114.27 111.481H115.866H116.271H116.41H115.889H114.315L108.155 111.502L84.7297 111.553L0.941812 111.647H0.739482V111.455C0.739482 79.2635 0.739482 41.2044 0.708008 0.539758V0.318359H0.9553L116.41 0.348163H116.617V0.539758C116.572 33.8132 116.536 61.5602 116.514 81.0091C116.487 90.708 116.469 98.3291 116.46 103.532C116.46 106.121 116.46 108.109 116.433 109.454C116.433 110.119 116.433 110.625 116.433 110.966V111.345C116.42 111.401 116.4 111.455 116.374 111.507Z" fill="#263238"/>
<path d="M9.97036 18.6768V21.6188H9.39034V19.1366H8.73389V18.6768H9.97036Z" fill="black"/>
<path d="M10.5684 21.2999C10.5684 21.2547 10.5778 21.2098 10.5961 21.168C10.6144 21.1261 10.6412 21.0881 10.675 21.0561C10.7088 21.0241 10.749 20.9987 10.7932 20.9813C10.8374 20.964 10.8847 20.9551 10.9326 20.9551C10.9804 20.9551 11.0277 20.964 11.0719 20.9813C11.1161 20.9987 11.1563 21.0241 11.1901 21.0561C11.2239 21.0881 11.2507 21.1261 11.269 21.168C11.2873 21.2098 11.2968 21.2547 11.2968 21.2999C11.2968 21.3452 11.2873 21.3901 11.269 21.4319C11.2507 21.4738 11.2239 21.5118 11.1901 21.5438C11.1563 21.5758 11.1161 21.6012 11.0719 21.6186C11.0277 21.6359 10.9804 21.6448 10.9326 21.6448C10.8847 21.6448 10.8374 21.6359 10.7932 21.6186C10.749 21.6012 10.7088 21.5758 10.675 21.5438C10.6412 21.5118 10.6144 21.4738 10.5961 21.4319C10.5778 21.3901 10.5684 21.3452 10.5684 21.2999Z" fill="black"/>
<path d="M48.6875 6.78513C48.6723 6.46919 48.7572 6.15616 48.9315 5.88636C49.1058 5.61655 49.3614 5.40233 49.6653 5.27128C49.9693 5.14023 50.3077 5.09835 50.6371 5.15104C50.9664 5.20374 51.2715 5.34858 51.5131 5.56693C51.7548 5.78527 51.9218 6.06712 51.9928 6.37616C52.0638 6.6852 52.0354 7.00729 51.9114 7.30094C51.7874 7.59459 51.5733 7.84635 51.2968 8.0238C51.0204 8.20125 50.6941 8.29626 50.3601 8.29659C50.144 8.30701 49.928 8.27559 49.7251 8.20426C49.5222 8.13293 49.3369 8.02317 49.1803 7.88171C49.0238 7.74025 48.8994 7.57004 48.8146 7.3815C48.7299 7.19295 48.6866 6.99003 48.6875 6.78513ZM51.4527 6.78513C51.4527 6.5805 51.3887 6.38047 51.2686 6.21033C51.1485 6.04019 50.9779 5.90758 50.7783 5.82928C50.5786 5.75097 50.3589 5.73048 50.147 5.7704C49.9351 5.81032 49.7404 5.90886 49.5876 6.05355C49.4348 6.19824 49.3307 6.38259 49.2885 6.58329C49.2464 6.78398 49.268 6.992 49.3507 7.18105C49.4334 7.3701 49.5735 7.53169 49.7531 7.64537C49.9328 7.75905 50.1441 7.81973 50.3601 7.81973C50.5044 7.82327 50.648 7.79889 50.782 7.74809C50.916 7.6973 51.0376 7.62115 51.1395 7.5243C51.2413 7.42746 51.3212 7.31195 51.3743 7.18486C51.4274 7.05776 51.4526 6.92174 51.4482 6.78513H51.4527Z" fill="black"/>
<path d="M55.4052 5.31641V8.25843H54.9331L53.2201 6.26586V8.25843H52.6445V5.31641H53.1211L54.8342 7.30047V5.31641H55.4052Z" fill="black"/>
<path d="M56.2417 5.31641H56.8172V7.79435H58.4449V8.25843H56.2417V5.31641Z" fill="black"/>
<path d="M58.8989 5.31641H59.4744V8.25843H58.8989V5.31641Z" fill="black"/>
<path d="M63.0758 5.31641V8.25843H62.5992L60.8906 6.26586V8.25843H60.3196V5.31641H60.7962L62.5048 7.30047V5.31641H63.0758Z" fill="black"/>
<path d="M66.241 7.79861V8.25843H63.9075V5.31641H66.1556V5.77198H64.4875V6.53835H65.9892V6.9854H64.4875V7.79861H66.241Z" fill="black"/>
<path d="M68.7364 5.77623H67.7068V5.31641H70.3326V5.77623H69.303V8.25843H68.7229L68.7364 5.77623Z" fill="black"/>
<path d="M73.1115 7.79861V8.25843H70.7825V5.31641H73.0306V5.77198H71.34V6.53835H72.8373V6.9854H71.34V7.79861H73.1115Z" fill="black"/>
<path d="M73.48 7.94755L73.6823 7.52178C73.9788 7.73046 74.338 7.84385 74.7075 7.84536C75.1931 7.84536 75.3954 7.67932 75.3954 7.46218C75.3954 6.82779 73.5474 7.24504 73.5474 6.15083C73.5474 5.67397 73.9476 5.27375 74.8019 5.27375C75.1654 5.2674 75.5236 5.35736 75.836 5.53347L75.6517 5.95923C75.3938 5.81095 75.099 5.73014 74.7974 5.72506C74.3163 5.72506 74.1229 5.90388 74.1229 6.12528C74.1229 6.75115 75.9619 6.34242 75.9619 7.42386C75.9619 7.89646 75.5573 8.27539 74.7075 8.27539C74.2717 8.29427 73.8411 8.17927 73.48 7.94755Z" fill="black"/>
<path d="M77.1312 5.77623H76.1016V5.31641H78.7364V5.77623H77.7067V8.25843H77.1312V5.77623Z" fill="black"/>
<path d="M24.3585 31.6026H22.8028L22.4971 32.2838H21.9036L23.3019 29.3418H23.8684L25.2713 32.2838H24.6688L24.3585 31.6026ZM24.1652 31.1768L23.5807 29.8995L23.0007 31.1768H24.1652Z" fill="black"/>
<path d="M8.69802 8.25412C9.3958 8.25412 9.96147 7.71847 9.96147 7.05772C9.96147 6.39697 9.3958 5.86133 8.69802 5.86133C8.00023 5.86133 7.43457 6.39697 7.43457 7.05772C7.43457 7.71847 8.00023 8.25412 8.69802 8.25412Z" fill="black"/>
<path d="M12.5242 8.25412C13.222 8.25412 13.7876 7.71847 13.7876 7.05772C13.7876 6.39697 13.222 5.86133 12.5242 5.86133C11.8264 5.86133 11.2607 6.39697 11.2607 7.05772C11.2607 7.71847 11.8264 8.25412 12.5242 8.25412Z" fill="black"/>
<path d="M16.3506 8.25412C17.0484 8.25412 17.6141 7.71847 17.6141 7.05772C17.6141 6.39697 17.0484 5.86133 16.3506 5.86133C15.6528 5.86133 15.0872 6.39697 15.0872 7.05772C15.0872 7.71847 15.6528 8.25412 16.3506 8.25412Z" fill="black"/>
<path d="M116.374 12.9759C116.374 13.0355 90.6556 13.0866 58.9345 13.0866C27.2133 13.0866 1.49023 13.0355 1.49023 12.9759C1.49023 12.9163 27.2043 12.8652 58.9345 12.8652C90.6646 12.8652 116.374 12.9163 116.374 12.9759Z" fill="black"/>
<path d="M103.749 21.2015C103.749 21.2611 83.7271 21.3122 59.0336 21.3122C34.3402 21.3122 14.3093 21.2611 14.3093 21.2015C14.3093 21.1419 34.3312 21.0908 59.0336 21.0908C83.7361 21.0908 103.749 21.1377 103.749 21.2015Z" fill="black"/>
<path d="M48.8226 24.0804C48.8226 24.14 41.1789 24.1911 31.7368 24.1911C22.2946 24.1911 14.624 24.14 14.624 24.0804C14.624 24.0208 22.2677 23.9697 31.7368 23.9697C41.2059 23.9697 48.8226 24.0166 48.8226 24.0804Z" fill="black"/>
<path d="M19.525 32.7478H15.429V28.8691H19.525V32.7478ZM15.8786 32.3221H19.0754V29.2949H15.8786V32.3221Z" fill="black"/>
<path d="M25.0822 38.849C25.0822 39.3514 24.6641 39.6452 23.8637 39.6452H22.3215V36.7031H23.7738C24.5202 36.7031 24.9204 37.0012 24.9204 37.4695C24.925 37.6022 24.8899 37.7333 24.8191 37.8479C24.7483 37.9624 24.6447 38.0556 24.5202 38.1167C24.6874 38.1607 24.834 38.2571 24.936 38.39C25.0381 38.523 25.0896 38.6848 25.0822 38.849ZM22.8971 37.1459V37.9549H23.7154C24.111 37.9549 24.3404 37.8229 24.3404 37.5547C24.3404 37.2864 24.111 37.1289 23.7154 37.1289L22.8971 37.1459ZM24.4977 38.8064C24.4977 38.5126 24.2639 38.3806 23.8278 38.3806H22.8971V39.2322H23.8278C24.2639 39.2322 24.4977 39.0874 24.4977 38.8064Z" fill="black"/>
<path d="M19.525 40.1146H15.429V36.2529H19.525V40.1146ZM15.8786 39.6888H19.0754V36.6787H15.8786V39.6888Z" fill="black"/>
<path d="M22.0969 45.5387C22.113 45.2277 22.2251 44.928 22.4193 44.6767C22.6134 44.4253 22.8811 44.2334 23.1893 44.1247C23.4974 44.0159 23.8325 43.9951 24.153 44.0648C24.4735 44.1346 24.7654 44.2917 24.9925 44.5169L24.6193 44.849C24.5147 44.7386 24.3863 44.6507 24.2429 44.5913C24.0994 44.5318 23.9441 44.5021 23.7875 44.5041C23.4977 44.5041 23.2198 44.6131 23.0149 44.8072C22.81 45.0012 22.6949 45.2643 22.6949 45.5387C22.6949 45.8131 22.81 46.0763 23.0149 46.2703C23.2198 46.4643 23.4977 46.5733 23.7875 46.5733C23.9446 46.5754 24.1002 46.5453 24.2438 46.4851C24.3874 46.4248 24.5155 46.3358 24.6193 46.2242L24.9925 46.5606C24.7654 46.7858 24.4735 46.9429 24.153 47.0126C23.8325 47.0824 23.4974 47.0616 23.1893 46.9528C22.8811 46.8441 22.6134 46.6522 22.4193 46.4008C22.2251 46.1495 22.113 45.8498 22.0969 45.5387Z" fill="black"/>
<path d="M19.525 47.4754H15.429V43.5967H19.525V47.4754ZM15.8786 47.0496H19.0754V44.0224H15.8786V47.0496Z" fill="black"/>
<path d="M22.3215 51.4307H23.6704C24.6776 51.4307 25.3655 52.0182 25.3655 52.8996C25.3655 53.7809 24.6776 54.3727 23.6704 54.3727H22.3215V51.4307ZM23.6704 53.9086C23.8159 53.9176 23.9617 53.8982 24.0989 53.8516C24.2362 53.8051 24.3619 53.7324 24.4682 53.638C24.5746 53.5436 24.6594 53.4296 24.7173 53.3029C24.7753 53.1763 24.8052 53.0397 24.8052 52.9017C24.8052 52.7636 24.7753 52.6271 24.7173 52.5004C24.6594 52.3738 24.5746 52.2597 24.4682 52.1654C24.3619 52.071 24.2362 51.9983 24.0989 51.9517C23.9617 51.9052 23.8159 51.8858 23.6704 51.8948H22.8971V53.9086H23.6704Z" fill="black"/>
<path d="M19.525 54.8416H15.429V50.9629H19.525V54.8416ZM15.8786 54.4158H19.0754V51.3887H15.8786V54.4158Z" fill="black"/>
<path d="M59.0291 30.8119C59.0291 30.8715 52.2847 30.9226 43.9397 30.9226C35.5946 30.9226 28.8457 30.8715 28.8457 30.8119C28.8457 30.7523 35.5901 30.7012 43.9397 30.7012C52.2892 30.7012 59.0291 30.748 59.0291 30.8119Z" fill="black"/>
<path d="M100.575 38.1722C100.575 38.2361 84.5139 38.2829 64.7124 38.2829C44.9108 38.2829 28.8457 38.2361 28.8457 38.1722C28.8457 38.1084 44.9019 38.0615 64.7124 38.0615C84.5229 38.0615 100.575 38.1126 100.575 38.1722Z" fill="black"/>
<path d="M38.715 52.8998C38.715 52.9594 36.5074 53.0105 33.7691 53.0105C31.0309 53.0105 28.8232 52.9594 28.8232 52.8998C28.8232 52.8402 31.0309 52.7891 33.7691 52.7891C36.5074 52.7891 38.715 52.8572 38.715 52.8998Z" fill="black"/>
<path d="M64.7079 45.5384C64.7079 45.598 56.6821 45.6491 46.7768 45.6491C36.8715 45.6491 28.8457 45.598 28.8457 45.5384C28.8457 45.4788 36.8715 45.4277 46.7768 45.4277C56.6821 45.4277 64.7079 45.4746 64.7079 45.5384Z" fill="black"/>
<path d="M10.0828 63.382V63.8419H7.78976V63.4757L9.02623 62.3687C9.32748 62.0962 9.38143 61.9217 9.38143 61.7599C9.38143 61.4874 9.1836 61.3341 8.80141 61.3341C8.66376 61.3274 8.52638 61.3517 8.40055 61.405C8.27472 61.4583 8.16402 61.5391 8.07752 61.6407L7.67285 61.3469C7.81539 61.1841 7.99612 61.055 8.20064 60.97C8.40516 60.885 8.62782 60.8464 8.85087 60.8573C9.52531 60.8573 9.96145 61.1808 9.96145 61.7088C9.95661 61.8903 9.90789 62.0684 9.81903 62.2293C9.73017 62.3902 9.60354 62.5296 9.44887 62.637L8.61707 63.3863L10.0828 63.382Z" fill="black"/>
<path d="M10.4199 63.5226C10.4199 63.4311 10.4583 63.3434 10.5266 63.2787C10.5949 63.2141 10.6875 63.1777 10.7841 63.1777C10.8807 63.1777 10.9733 63.2141 11.0416 63.2787C11.1099 63.3434 11.1483 63.4311 11.1483 63.5226C11.1483 63.6141 11.1099 63.7018 11.0416 63.7665C10.9733 63.8311 10.8807 63.8675 10.7841 63.8675C10.6875 63.8675 10.5949 63.8311 10.5266 63.7665C10.4583 63.7018 10.4199 63.6141 10.4199 63.5226Z" fill="black"/>
<path d="M23.2701 73.8262H21.7189L21.4132 74.5075H20.8152L22.2135 71.5654H22.7845L24.1874 74.5075H23.5714L23.2701 73.8262ZM23.0813 73.4005L22.4968 72.1232L21.9123 73.4005H23.0813Z" fill="black"/>
<path d="M102.661 63.4252C102.661 63.4848 82.6393 63.5359 57.9458 63.5359C33.2523 63.5359 13.2305 63.5018 13.2305 63.4252C13.2305 63.3485 33.2478 63.3145 57.9503 63.3145C82.6528 63.3145 102.661 63.3655 102.661 63.4252Z" fill="black"/>
<path d="M47.739 66.3021C47.739 66.3617 40.0953 66.4128 30.6262 66.4128C21.1571 66.4128 13.5134 66.3617 13.5134 66.3021C13.5134 66.2425 21.1571 66.1914 30.6262 66.1914C40.0953 66.1914 47.739 66.2382 47.739 66.3021Z" fill="black"/>
<path d="M18.4188 74.9959H14.3228V71.1172H18.4188V74.9959ZM14.7724 74.5701H17.9692V71.543H14.7724V74.5701Z" fill="black"/>
<path d="M23.9943 81.0726C23.9943 81.575 23.5762 81.8688 22.7804 81.8688H21.2336V78.9268H22.6724C23.4188 78.9268 23.819 79.2248 23.819 79.6931C23.8226 79.8256 23.787 79.9564 23.7163 80.0707C23.6456 80.1851 23.5426 80.2784 23.4188 80.3403C23.589 80.3812 23.7391 80.4763 23.8439 80.6097C23.9487 80.7431 24.0018 80.9065 23.9943 81.0726ZM21.8137 79.3695V80.1828H22.6275C23.0276 80.1828 23.2525 80.0465 23.2525 79.7783C23.2525 79.5101 23.0276 79.3525 22.6275 79.3525L21.8137 79.3695ZM23.4143 81.03C23.4143 80.7363 23.1805 80.6043 22.7444 80.6043H21.8137V81.4558H22.7444C23.1805 81.443 23.4143 81.311 23.4143 81.0173V81.03Z" fill="black"/>
<path d="M18.4188 82.3377H14.3228V78.459H18.4188V82.3377ZM14.7724 81.9119H17.9692V78.8847H14.7724V81.9119Z" fill="black"/>
<path d="M21.0133 87.7703C21.0111 87.5658 21.0532 87.363 21.137 87.1745C21.2207 86.986 21.3443 86.8157 21.5001 86.6741C21.656 86.5325 21.8408 86.4226 22.0431 86.3512C22.2455 86.2798 22.4612 86.2483 22.6769 86.2588C22.9069 86.2499 23.1362 86.2891 23.3484 86.3738C23.5606 86.4584 23.7504 86.5863 23.9044 86.7484L23.5357 87.0805C23.4307 86.9706 23.3022 86.883 23.1589 86.8235C23.0155 86.7641 22.8604 86.7341 22.7039 86.7357C22.4141 86.7357 22.1362 86.8447 21.9313 87.0387C21.7264 87.2327 21.6113 87.4959 21.6113 87.7703C21.6113 88.0447 21.7264 88.3078 21.9313 88.5018C22.1362 88.6959 22.4141 88.8049 22.7039 88.8049C22.8609 88.8067 23.0164 88.7764 23.16 88.7162C23.3035 88.6559 23.4316 88.5671 23.5357 88.4557L23.9044 88.7921C23.6778 89.0178 23.3862 89.1755 23.0658 89.2455C22.7454 89.3156 22.4103 89.2948 22.1022 89.186C21.7941 89.0771 21.5266 88.8848 21.333 88.6331C21.1394 88.3814 21.0282 88.0813 21.0133 87.7703Z" fill="black"/>
<path d="M18.4188 89.698H14.3228V85.8193H18.4188V89.698ZM14.7724 89.2723H17.9692V86.2451H14.7724V89.2723Z" fill="black"/>
<path d="M21.2336 93.6543H22.5825C23.5897 93.6543 24.2776 94.2418 24.2776 95.1274C24.2776 96.013 23.5897 96.5963 22.5825 96.5963H21.2336V93.6543ZM22.5825 96.1365C22.7307 96.1494 22.8801 96.1329 23.0211 96.0881C23.1622 96.0432 23.2918 95.971 23.4017 95.876C23.5116 95.7811 23.5994 95.6655 23.6595 95.5366C23.7196 95.4077 23.7506 95.2683 23.7506 95.1274C23.7506 94.9865 23.7196 94.8472 23.6595 94.7183C23.5994 94.5894 23.5116 94.4738 23.4017 94.3788C23.2918 94.2839 23.1622 94.2117 23.0211 94.1668C22.8801 94.122 22.7307 94.1055 22.5825 94.1184H21.8316V96.1365H22.5825Z" fill="black"/>
<path d="M18.4188 97.0642H14.3228V93.1855H18.4188V97.0642ZM14.7724 96.6385H17.9692V93.6113H14.7724V96.6385Z" fill="black"/>
<path d="M57.9455 73.0335C57.9455 73.0932 51.2011 73.1442 42.8515 73.1442C34.502 73.1442 27.7576 73.0932 27.7576 73.0335C27.7576 72.9739 34.502 72.9229 42.8515 72.9229C51.2011 72.9229 57.9455 72.9739 57.9455 73.0335Z" fill="black"/>
<path d="M99.4864 80.3958C99.4864 80.4597 83.4303 80.5065 63.6242 80.5065C43.8182 80.5065 27.7576 80.4597 27.7576 80.3958C27.7576 80.332 43.8137 80.2852 63.6242 80.2852C83.4348 80.2852 99.4864 80.3362 99.4864 80.3958Z" fill="black"/>
<path d="M37.6313 95.1224C37.6313 95.1863 35.4191 95.2331 32.6854 95.2331C29.9517 95.2331 27.7395 95.1863 27.7395 95.1224C27.7395 95.0585 29.9517 95.0117 32.6854 95.0117C35.4191 95.0117 37.6313 95.0628 37.6313 95.1224Z" fill="black"/>
<path d="M63.6242 87.7699C63.6242 87.8295 55.5939 87.8806 45.6932 87.8806C35.7924 87.8806 27.7576 87.8295 27.7576 87.7699C27.7576 87.7103 35.7879 87.6592 45.6932 87.6592C55.5984 87.6592 63.6242 87.6975 63.6242 87.7699Z" fill="black"/>
<path d="M92.6611 105.226H74.15C73.4038 105.226 72.665 105.087 71.9758 104.816C71.2865 104.546 70.6603 104.149 70.1329 103.649C69.6055 103.15 69.1873 102.556 68.9022 101.903C68.6171 101.25 68.4706 100.551 68.4712 99.8442C68.4712 98.418 69.0695 97.0502 70.1345 96.0418C71.1994 95.0333 72.6439 94.4668 74.15 94.4668H92.6611C94.1672 94.4668 95.6116 95.0333 96.6766 96.0418C97.7416 97.0502 98.3399 98.418 98.3399 99.8442C98.3405 100.551 98.194 101.25 97.9089 101.903C97.6238 102.556 97.2056 103.15 96.6782 103.649C96.1508 104.149 95.5246 104.546 94.8353 104.816C94.146 105.087 93.4072 105.226 92.6611 105.226Z" fill="#FF725E"/>
<path d="M78.772 98.5674V101.492H78.183L76.6273 99.7169V101.492H75.9214V98.5674H76.5104L78.0436 100.343V98.5674H78.772Z" fill="white"/>
<path d="M81.8927 100.968V101.513H79.5007V98.5879H81.8343V99.1329H80.2246V99.7673H81.6589V100.291H80.2246V100.968H81.8927Z" fill="white"/>
<path d="M84.3745 101.492L83.6281 100.479L82.8952 101.492H82.0769L83.219 100.006L82.1354 98.5674H82.9447L83.6551 99.5168L84.352 98.5674H85.1254L84.0463 99.9809L85.2018 101.492H84.3745Z" fill="white"/>
<path d="M86.0697 99.1209H85.0806V98.5674H87.7783V99.1209H86.7892V101.492H86.0697V99.1209Z" fill="white"/>
<path d="M91.6854 101.271C91.6479 101.27 91.6111 101.261 91.5781 101.244C91.5452 101.227 91.5172 101.202 91.4966 101.173C91.4641 101.126 91.4524 101.069 91.4642 101.014C91.476 100.959 91.5103 100.91 91.5595 100.879L92.9939 99.9721C93.0166 99.9586 93.0353 99.9398 93.0479 99.9173C93.0605 99.8949 93.0667 99.8697 93.0658 99.8443C93.0658 99.8186 93.0587 99.7933 93.0453 99.771C93.0319 99.7486 93.0127 99.7299 92.9894 99.7166L91.5685 98.9204C91.5184 98.8911 91.4823 98.8444 91.4683 98.7902C91.4542 98.736 91.4631 98.6787 91.4932 98.6307C91.5232 98.5826 91.572 98.5477 91.629 98.5335C91.686 98.5192 91.7466 98.5266 91.7978 98.5543L93.2187 99.3462C93.3074 99.3967 93.3813 99.4677 93.4334 99.5524C93.4856 99.6371 93.5143 99.7329 93.517 99.831C93.5197 99.929 93.4963 100.026 93.4488 100.113C93.4014 100.2 93.3315 100.275 93.2456 100.33L91.8113 101.232C91.7743 101.257 91.7305 101.27 91.6854 101.271Z" fill="white"/>
<path d="M14.9208 40.0462C14.7859 39.9184 15.6537 38.8838 16.8632 37.7343C18.0727 36.5847 19.1653 35.7672 19.3047 35.895C19.444 36.0227 18.5718 37.0616 17.3623 38.2069C16.1528 39.3522 15.0602 40.1782 14.9208 40.0462Z" fill="#FF725E"/>
<path d="M20.051 40.4498C19.9161 40.5818 18.7516 39.6877 17.4522 38.4572C16.1528 37.2268 15.204 36.1283 15.3479 35.9963C15.4918 35.8643 16.6518 36.7584 17.9468 37.9889C19.2417 39.2194 20.1904 40.3221 20.051 40.4498Z" fill="#FF725E"/>
<path d="M13.936 75.1838C13.7966 75.0518 14.6689 74.0172 15.8784 72.8719C17.0879 71.7266 18.1805 70.9049 18.3199 71.0326C18.4593 71.1603 17.587 72.1949 16.373 73.3445C15.159 74.4941 14.0709 75.3115 13.936 75.1838Z" fill="#FF725E"/>
<path d="M19.0752 75.5887C18.9358 75.7165 17.7758 74.8266 16.4763 73.5962C15.1769 72.3657 14.2282 71.263 14.3721 71.1352C14.516 71.0075 15.6715 71.8974 16.9709 73.1278C18.2704 74.3583 19.2011 75.4567 19.0752 75.5887Z" fill="#FF725E"/>
<path d="M155.285 36.0021C164.125 35.6132 170.959 28.5115 170.549 20.14C170.138 11.7686 162.638 5.29747 153.797 5.6864C144.957 6.07533 138.123 13.177 138.534 21.5485C138.944 29.9199 146.444 36.3911 155.285 36.0021Z" fill="white"/>
<path d="M145.627 38.3811C145.775 38.3417 145.925 38.309 146.077 38.2832C146.51 38.2324 146.948 38.3114 147.331 38.5089C147.595 38.6387 147.825 38.8219 148.006 39.0453C148.206 39.3051 148.323 39.614 148.343 39.9352C148.385 40.3045 148.307 40.6772 148.118 41.0031C147.93 41.329 147.641 41.5924 147.29 41.758C146.939 41.9236 146.542 41.9833 146.154 41.9292C145.766 41.875 145.405 41.7096 145.119 41.4552C144.862 41.2468 144.671 40.9737 144.571 40.6675C144.487 40.3907 144.471 40.0998 144.521 39.816C144.587 39.4074 144.785 39.0282 145.088 38.7303C145.303 38.5217 145.461 38.4493 145.452 38.4365C145.412 38.4481 145.374 38.4653 145.339 38.4876C145.294 38.5098 145.25 38.5354 145.209 38.5642C145.152 38.6038 145.098 38.6465 145.047 38.692C144.77 38.943 144.568 39.2598 144.464 39.6095C144.36 39.9591 144.356 40.3289 144.454 40.6803C144.553 41.0113 144.753 41.3074 145.029 41.5318C145.33 41.7846 145.699 41.9527 146.095 42.0172C146.521 42.1024 146.965 42.0486 147.356 41.8647C147.746 41.6808 148.059 41.3774 148.244 41.0039C148.427 40.665 148.508 40.2849 148.478 39.9054C148.453 39.5613 148.324 39.2314 148.105 38.9559C147.913 38.7188 147.665 38.5277 147.381 38.3982C146.977 38.2006 146.516 38.1333 146.068 38.2066C145.999 38.2162 145.931 38.2318 145.865 38.2534C145.814 38.2658 145.765 38.2829 145.717 38.3045C145.663 38.3513 145.623 38.3811 145.627 38.3811Z" fill="#263238"/>
<path d="M141.198 29.4789L141.068 29.2618L140.672 28.6402C140.587 28.4997 140.488 28.3464 140.38 28.1803C140.272 28.0143 140.191 27.8099 140.083 27.5971C139.975 27.3842 139.863 27.1713 139.741 26.9158C139.675 26.7925 139.62 26.6644 139.575 26.5326C139.526 26.3964 139.472 26.2602 139.418 26.1069C138.873 24.7258 138.553 23.2744 138.469 21.8024C138.345 19.8528 138.616 17.8987 139.269 16.0461L139.553 15.2712C139.665 15.0115 139.795 14.7603 139.917 14.5006C139.975 14.3728 140.038 14.2451 140.101 14.1131C140.158 13.98 140.228 13.8518 140.308 13.7299L140.758 12.9678C140.834 12.8401 140.911 12.7124 140.991 12.5846L141.27 12.2185L141.832 11.4776C142.026 11.235 142.255 11.0093 142.471 10.7709L142.799 10.4175C142.853 10.3621 142.907 10.2983 142.965 10.2429L143.15 10.0811C143.632 9.62223 144.147 9.19545 144.692 8.80385C144.971 8.61225 145.24 8.37808 145.537 8.21204L146.436 7.68835C146.589 7.6032 146.738 7.50527 146.886 7.42863L147.376 7.20723C147.704 7.06247 148.028 6.90068 148.365 6.78147C149.059 6.52028 149.769 6.30127 150.492 6.12579L151.041 5.99381L151.319 5.92994L151.603 5.89162L152.74 5.72983C153.127 5.69151 153.514 5.683 153.905 5.66171C154.098 5.66171 154.296 5.63191 154.494 5.66171L155.083 5.68726C155.88 5.71489 156.675 5.79313 157.461 5.92143L158.644 6.18966L158.941 6.25778C159.039 6.28333 159.134 6.31739 159.233 6.34719L159.813 6.53878L160.397 6.72612L160.964 6.96455L161.53 7.21149L161.814 7.3307C161.908 7.37754 161.994 7.42863 162.088 7.47972L163.176 8.07153L164.21 8.76978C166.985 10.7391 169.006 13.5121 169.965 16.6677C170.073 17.0551 170.177 17.4469 170.28 17.83L170.469 19.0094L170.514 19.3032V19.597L170.545 20.1845L170.577 20.7721L170.55 21.3554L170.523 21.9387V22.2282L170.482 22.5134C170.424 22.8966 170.37 23.2756 170.316 23.6545C170.157 24.3966 169.945 25.1277 169.682 25.8429L169.493 26.3709C169.43 26.5497 169.336 26.7115 169.259 26.8818C169.093 27.2181 168.949 27.5587 168.769 27.8823C168.59 28.2059 168.387 28.5167 168.198 28.8318L168.054 29.0659C168.001 29.1426 167.942 29.215 167.888 29.2873L167.56 29.7131C167.126 30.2867 166.653 30.8328 166.144 31.348C165.887 31.5992 165.613 31.8249 165.352 32.0633L164.952 32.4124C164.822 32.5274 164.669 32.6253 164.529 32.7275L163.684 33.3406C163.396 33.5322 163.086 33.694 162.785 33.8686C162.208 34.2088 161.607 34.5104 160.986 34.7712L160.762 34.8734L160.528 34.9585L160.078 35.116C159.763 35.2182 159.462 35.3417 159.152 35.4268L158.217 35.6525L157.767 35.7632L157.317 35.8313L156.418 35.9633C156.27 35.988 156.119 36.0022 155.969 36.0059H155.519C155.222 36.0059 154.925 36.0442 154.62 36.0485L153.752 36.0144C151.692 35.9184 149.67 35.4472 147.799 34.6264C147.592 34.537 147.385 34.4561 147.187 34.3667L146.63 34.0602L146.09 33.7706C146 33.7195 145.91 33.677 145.829 33.6259L145.591 33.4641L144.692 32.851C144.409 32.6466 144.166 32.4252 143.919 32.2294L143.568 31.9398C143.455 31.8513 143.348 31.756 143.249 31.6546L142.642 31.1437C142.475 30.9734 142.313 30.8201 142.192 30.6711L141.846 30.2453L141.396 29.6705C141.293 29.5428 141.234 29.4789 141.234 29.4789L141.387 29.679C141.491 29.8153 141.643 30.0069 141.837 30.2623L142.174 30.6881C142.309 30.8414 142.471 30.9946 142.624 31.165L143.163 31.7227C143.262 31.8266 143.369 31.9234 143.482 32.0122L143.833 32.306C144.076 32.5019 144.319 32.7318 144.602 32.9319L145.501 33.5535L145.74 33.7153C145.825 33.7706 145.915 33.8132 146 33.8643L146.54 34.1581L147.102 34.4689L147.713 34.7329C149.593 35.5659 151.625 36.046 153.698 36.1464L154.57 36.1847C154.862 36.1847 155.164 36.1592 155.469 36.1464L155.919 36.1208C156.07 36.1203 156.22 36.1075 156.369 36.0825L157.29 35.9505L157.74 35.8824L158.19 35.7717L159.134 35.5461C159.444 35.4609 159.75 35.3417 160.065 35.2395L160.537 35.0777C160.613 35.0479 160.694 35.0266 160.771 34.9926L161 34.8904C161.631 34.6279 162.242 34.3249 162.83 33.9835C163.127 33.8089 163.437 33.6472 163.729 33.4556L164.583 32.8382C164.727 32.7318 164.876 32.6381 165.033 32.5231L165.433 32.1698C165.694 31.9313 165.977 31.7014 166.233 31.4502C166.747 30.9308 167.225 30.3804 167.663 29.8025C167.771 29.6535 167.884 29.5087 167.996 29.3768C168.05 29.3044 168.108 29.232 168.162 29.1554L168.306 28.9169L168.886 27.9632C169.066 27.6354 169.215 27.2905 169.381 26.9542C169.457 26.7796 169.556 26.6135 169.619 26.439L169.808 25.9025C170.074 25.1822 170.288 24.4453 170.446 23.6971C170.505 23.3181 170.563 22.9307 170.617 22.5475L170.662 22.258V21.9642L170.689 21.3809L170.716 20.7891L170.685 20.1973L170.649 19.6055V19.3032L170.599 19.0094L170.41 17.8215C170.307 17.4298 170.204 17.0381 170.096 16.6464C169.147 13.4537 167.119 10.6435 164.323 8.64632L163.279 7.93955L162.178 7.34348C162.088 7.29239 161.998 7.24129 161.904 7.19446L161.616 7.07099L161.045 6.82404L160.474 6.58562L159.885 6.39403L159.296 6.20243L159.003 6.10876L158.702 6.0449C158.307 5.95123 157.906 5.86182 157.511 5.77667C156.717 5.64487 155.915 5.5652 155.11 5.53824L154.516 5.5127C154.318 5.5127 154.121 5.5127 153.923 5.5127C153.527 5.53824 153.136 5.5425 152.749 5.58082L151.598 5.74686L151.315 5.78944C151.22 5.78944 151.126 5.83202 151.036 5.8533L150.479 5.98955C149.75 6.16388 149.035 6.38436 148.338 6.64948C147.997 6.78573 147.668 6.95177 147.336 7.09653L146.846 7.32219C146.684 7.39883 146.535 7.49675 146.396 7.58616L145.497 8.11411C145.2 8.30145 144.926 8.51859 144.647 8.71444C144.098 9.10608 143.578 9.53284 143.091 9.99173L142.907 10.1578C142.848 10.2131 142.794 10.277 142.741 10.3366C142.687 10.3962 142.52 10.575 142.408 10.69C142.192 10.9327 141.958 11.1583 141.769 11.401L141.203 12.1503L140.924 12.5208C140.843 12.6485 140.767 12.7805 140.69 12.9082L140.241 13.6746C140.162 13.7985 140.095 13.928 140.038 14.062L139.849 14.4537C139.728 14.7134 139.598 14.9689 139.49 15.2286C139.382 15.4883 139.301 15.7523 139.206 16.012C138.554 17.8764 138.288 19.8426 138.424 21.8024C138.514 23.2817 138.843 24.7392 139.4 26.1239L139.562 26.5497C139.606 26.6814 139.662 26.8096 139.728 26.9329L140.079 27.6141C140.191 27.8227 140.281 28.0186 140.384 28.1931L140.681 28.6487L141.09 29.266C141.144 29.4065 141.198 29.4789 141.198 29.4789Z" fill="#263238"/>
<path d="M146.45 21.2268L148.824 18.9788L153.401 22.832L162.385 14.6445L164.588 16.8926L153.064 27.1662L146.45 21.2268Z" fill="#FF725E"/>
</svg>
