<svg width="26" height="24" viewBox="0 0 26 24" fill="none" xmlns="http://www.w3.org/2000/svg">
<path d="M3.36719 0C1.825 0 0.554688 1.27031 0.554688 2.8125V15.9375C0.554688 17.4797 1.825 18.75 3.36719 18.75H9.18018L8.78955 21.875H6.49219C6.36796 21.8732 6.24462 21.8962 6.12933 21.9425C6.01405 21.9888 5.90913 22.0576 5.82065 22.1448C5.73218 22.2321 5.66193 22.336 5.61398 22.4506C5.56603 22.5653 5.54134 22.6883 5.54134 22.8125C5.54134 22.9367 5.56603 23.0597 5.61398 23.1744C5.66193 23.289 5.73218 23.3929 5.82065 23.4801C5.90913 23.5674 6.01405 23.6362 6.12933 23.6825C6.24462 23.7288 6.36796 23.7518 6.49219 23.75H9.46704C9.56649 23.7661 9.66789 23.7661 9.76733 23.75H16.3384C16.4394 23.7667 16.5425 23.7667 16.6436 23.75H19.6172C19.7414 23.7518 19.8648 23.7288 19.98 23.6825C20.0953 23.6362 20.2002 23.5674 20.2887 23.4801C20.3772 23.3929 20.4474 23.289 20.4954 23.1744C20.5433 23.0597 20.568 22.9367 20.568 22.8125C20.568 22.6883 20.5433 22.5653 20.4954 22.4506C20.4474 22.336 20.3772 22.2321 20.2887 22.1448C20.2002 22.0576 20.0953 21.9888 19.98 21.9425C19.8648 21.8962 19.7414 21.8732 19.6172 21.875H17.3198L16.9292 18.75H22.7422C24.2844 18.75 25.5547 17.4797 25.5547 15.9375V2.8125C25.5547 1.27031 24.2844 0 22.7422 0H3.36719ZM3.36719 1.875H22.7422C23.2712 1.875 23.6797 2.28344 23.6797 2.8125V15.9375C23.6797 16.4666 23.2712 16.875 22.7422 16.875H16.021C15.92 16.8583 15.8169 16.8583 15.7158 16.875H10.3923C10.2929 16.8589 10.1915 16.8589 10.092 16.875H3.36719C2.83813 16.875 2.42969 16.4666 2.42969 15.9375V2.8125C2.42969 2.28344 2.83813 1.875 3.36719 1.875ZM13.0547 13.75C12.806 13.75 12.5676 13.8488 12.3918 14.0246C12.216 14.2004 12.1172 14.4389 12.1172 14.6875C12.1172 14.9361 12.216 15.1746 12.3918 15.3504C12.5676 15.5262 12.806 15.625 13.0547 15.625C13.3033 15.625 13.5418 15.5262 13.7176 15.3504C13.8934 15.1746 13.9922 14.9361 13.9922 14.6875C13.9922 14.4389 13.8934 14.2004 13.7176 14.0246C13.5418 13.8488 13.3033 13.75 13.0547 13.75ZM11.0698 18.75H15.0396L15.4302 21.875H10.6792L11.0698 18.75Z" fill="white"/>
</svg>
