<svg width="93" height="76" viewBox="0 0 93 76" fill="none" xmlns="http://www.w3.org/2000/svg">
<path d="M39.2805 28.5195L29.1687 31.71C27.3172 32.2126 25.8381 33.6095 25.2334 35.4211L25.2169 35.4673L19.5414 56.4589L22.3792 55.6909L40.5495 50.7767L40.5923 50.7603C42.3937 50.1614 43.7819 48.6948 44.2804 46.8612L44.2639 46.9271L47.4807 36.7197L39.2805 28.5195ZM38.3445 32.356L43.6443 37.6558L41.034 45.9449L41.0241 45.9779C40.8211 46.7246 40.2652 47.3075 39.531 47.5533L39.5277 47.5566L27.6032 50.7833L32.8799 45.5066C33.1635 45.5839 33.4561 45.6238 33.75 45.6252C34.6451 45.6252 35.5036 45.2697 36.1365 44.6367C36.7694 44.0038 37.125 43.1453 37.125 42.2502C37.125 41.3551 36.7694 40.4967 36.1365 39.8638C35.5036 39.2308 34.6451 38.8752 33.75 38.8752C33.233 38.8759 32.7231 38.9954 32.2596 39.2244C31.7961 39.4534 31.3914 39.7859 31.0767 40.1961C30.762 40.6063 30.5458 41.0833 30.4447 41.5903C30.3436 42.0974 30.3604 42.6208 30.4937 43.1204L25.2169 48.3971L28.4403 36.4824C28.6946 35.7306 29.2743 35.1783 30.0553 34.9663L30.0883 34.9597L38.3445 32.356ZM10.125 33.8127C9.37757 33.8147 8.65193 34.0648 8.06193 34.5237C7.47194 34.9826 7.05097 35.6244 6.86508 36.3484C6.67918 37.0723 6.73888 37.8375 7.0348 38.5239C7.33072 39.2103 7.84612 39.779 8.50014 40.1409C9.15026 54.9517 21.0457 66.8483 35.8561 67.5001C36.1471 68.0298 36.5749 68.4717 37.095 68.7795C37.615 69.0874 38.2082 69.2499 38.8125 69.2502C39.7076 69.2502 40.5661 68.8947 41.199 68.2617C41.8319 67.6288 42.1875 66.7704 42.1875 65.8752C42.1875 64.9801 41.8319 64.1217 41.199 63.4888C40.5661 62.8558 39.7076 62.5002 38.8125 62.5002C38.2324 62.5009 37.6623 62.6511 37.1571 62.9363C36.652 63.2215 36.2289 63.6321 35.9286 64.1284C22.8893 63.5199 12.4804 53.111 11.8718 40.0717C12.5006 39.6894 12.9873 39.1121 13.2576 38.4277C13.528 37.7433 13.5672 36.9893 13.3694 36.2805C13.1716 35.5717 12.7476 34.947 12.1619 34.5015C11.5761 34.056 10.8609 33.8141 10.125 33.8127Z" fill="#D2C8FF"/>
<g opacity="0.7" clip-path="url(#clip0_1656_4208)">
<path d="M83.5419 43.977L79.6889 50.8212C78.9421 52.0303 78.8494 53.5344 79.4395 54.8202L79.454 54.8535L87.0115 69.0781L88.1573 67.2263L95.4954 55.3705L95.5102 55.3399C96.1812 54.1041 96.1894 52.6083 95.5308 51.3644L95.5553 51.4084L92.1275 44.2601L83.5419 43.977ZM84.9778 46.5254L90.5267 46.7084L93.3114 52.5124L93.3227 52.5352C93.5909 53.0417 93.5855 53.6384 93.3129 54.143L93.3128 54.1464L88.4979 61.9279L88.6801 56.4032C88.8726 56.3014 89.0509 56.1749 89.2107 56.0268C89.6947 55.5737 89.9789 54.9469 90.0008 54.2842C90.0226 53.6215 89.7803 52.9773 89.3272 52.4932C88.8741 52.0092 88.2472 51.725 87.5845 51.7031C86.9218 51.6813 86.2776 51.9236 85.7936 52.3767C85.5144 52.6388 85.2991 52.9615 85.1644 53.32C85.0297 53.6785 84.9791 54.0632 85.0166 54.4443C85.0541 54.8254 85.1787 55.1928 85.3807 55.5182C85.5827 55.8435 85.8567 56.1181 86.1817 56.3208L85.9995 61.8455L81.711 53.7707C81.4679 53.2354 81.5018 52.6433 81.8168 52.1333L81.8313 52.113L84.9778 46.5254ZM70.4552 61.5988C70.0521 61.9783 69.7863 62.4809 69.6995 63.0277C69.6128 63.5745 69.71 64.1347 69.976 64.6203C70.242 65.1059 70.6616 65.4895 71.1691 65.7108C71.6766 65.9322 72.2432 65.9788 72.7801 65.8434C80.6293 73.5234 93.0845 73.9348 101.423 66.7898C101.849 66.929 102.304 66.9513 102.741 66.8545C103.178 66.7577 103.581 66.5454 103.908 66.2396C104.392 65.7864 104.676 65.1596 104.698 64.4969C104.72 63.8342 104.478 63.19 104.025 62.706C103.571 62.2219 102.945 61.9377 102.282 61.9159C101.619 61.894 100.975 62.1363 100.491 62.5894C100.178 62.8834 99.9453 63.2533 99.8165 63.6632C99.6877 64.0732 99.6668 64.5094 99.7557 64.9298C92.3964 71.2017 81.4983 70.8423 74.5683 64.0991C74.7149 63.5741 74.6858 63.0156 74.4855 62.5086C74.2852 62.0016 73.9247 61.574 73.4589 61.2909C72.9932 61.0077 72.4476 60.8846 71.9054 60.9402C71.3631 60.9958 70.8539 61.2271 70.4552 61.5988Z" fill="#D2C8FF"/>
</g>
<g opacity="0.7">
<path d="M63.0967 -8.1709L55.6065 -5.80762C54.235 -5.43532 53.1394 -4.40058 52.6914 -3.05859L52.6792 -3.02441L48.4751 12.5249L50.5772 11.9561L64.0367 8.31592L64.0684 8.30371C65.4028 7.86009 66.431 6.77376 66.8003 5.41553L66.7881 5.46436L69.1709 -2.09668L63.0967 -8.1709ZM62.4034 -5.3291L66.3291 -1.40332L64.3955 4.73682L64.3882 4.76123C64.2378 5.31431 63.8261 5.74615 63.2823 5.92822L63.2798 5.93066L54.4468 8.3208L58.3555 4.41211C58.5656 4.46935 58.7823 4.4989 59 4.5C59.6631 4.5 60.299 4.23661 60.7678 3.76777C61.2366 3.29893 61.5 2.66304 61.5 2C61.5 1.33696 61.2366 0.701075 60.7678 0.232233C60.299 -0.236608 59.6631 -0.5 59 -0.5C58.6171 -0.499483 58.2393 -0.410991 57.896 -0.241352C57.5527 -0.0717125 57.2529 0.17454 57.0198 0.478402C56.7867 0.782264 56.6265 1.13561 56.5517 1.51119C56.4768 1.88676 56.4892 2.27451 56.5879 2.64453L52.6792 6.55322L55.0669 -2.27246C55.2553 -2.82937 55.6847 -3.23847 56.2632 -3.39551L56.2876 -3.40039L62.4034 -5.3291ZM41.5 -4.25C40.9464 -4.24852 40.4089 -4.06329 39.9718 -3.72336C39.5348 -3.38343 39.223 -2.90804 39.0853 -2.37177C38.9476 -1.83549 38.9918 -1.26868 39.211 -0.760251C39.4302 -0.251821 39.812 0.169459 40.2964 0.4375C40.778 11.4085 49.5894 20.2208 60.5601 20.7036C60.7756 21.096 61.0925 21.4233 61.4778 21.6513C61.863 21.8794 62.3024 21.9998 62.75 22C63.4131 22 64.049 21.7366 64.5178 21.2678C64.9866 20.7989 65.25 20.163 65.25 19.5C65.25 18.837 64.9866 18.2011 64.5178 17.7322C64.049 17.2634 63.4131 17 62.75 17C62.3203 17.0005 61.898 17.1117 61.5238 17.323C61.1496 17.5342 60.8362 17.8384 60.6138 18.2061C50.955 17.7553 43.2447 10.045 42.794 0.38623C43.2598 0.103076 43.6202 -0.324553 43.8205 -0.831525C44.0208 -1.3385 44.0498 -1.89703 43.9033 -2.42206C43.7568 -2.94708 43.4427 -3.40983 43.0088 -3.73983C42.5749 -4.06982 42.0451 -4.24897 41.5 -4.25Z" fill="#D2C8FF"/>
</g>
<defs>
<clipPath id="clip0_1656_4208">
<rect width="40" height="40" fill="white" transform="translate(59 60.3364) rotate(-43.111)"/>
</clipPath>
</defs>
</svg>
