<svg width="36" height="36" viewBox="0 0 36 36" fill="none" xmlns="http://www.w3.org/2000/svg">
<path d="M13.875 2.24999C13.7259 2.24788 13.5779 2.27542 13.4396 2.33101C13.3012 2.3866 13.1753 2.46914 13.0692 2.57381C12.963 2.67849 12.8787 2.80322 12.8211 2.94076C12.7636 3.0783 12.734 3.2259 12.734 3.37499C12.734 3.52408 12.7636 3.67169 12.8211 3.80922C12.8787 3.94676 12.963 4.0715 13.0692 4.17617C13.1753 4.28085 13.3012 4.36338 13.4396 4.41897C13.5779 4.47456 13.7259 4.5021 13.875 4.49999H22.125C22.2741 4.5021 22.4221 4.47456 22.5604 4.41897C22.6988 4.36338 22.8247 4.28085 22.9308 4.17617C23.037 4.0715 23.1213 3.94676 23.1789 3.80922C23.2364 3.67169 23.266 3.52408 23.266 3.37499C23.266 3.2259 23.2364 3.0783 23.1789 2.94076C23.1213 2.80322 23.037 2.67849 22.9308 2.57381C22.8247 2.46914 22.6988 2.3866 22.5604 2.33101C22.4221 2.27542 22.2741 2.24788 22.125 2.24999H13.875ZM28.5879 5.23827C28.3638 5.24112 28.1456 5.31085 27.9613 5.43853C27.7771 5.5662 27.6352 5.74599 27.5538 5.95485C27.4725 6.16371 27.4553 6.39212 27.5046 6.61078C27.5539 6.82944 27.6674 7.02839 27.8306 7.18212L29.5898 8.89306C29.6957 8.99618 29.8209 9.07744 29.9582 9.13219C30.0955 9.18694 30.2422 9.21411 30.39 9.21214C30.5378 9.21018 30.6838 9.17912 30.8196 9.12074C30.9554 9.06236 31.0784 8.97781 31.1815 8.8719C31.2846 8.766 31.3658 8.64082 31.4206 8.50351C31.4753 8.36621 31.5025 8.21947 31.5005 8.07167C31.4985 7.92387 31.4674 7.7779 31.409 7.64211C31.3506 7.50633 31.2661 7.38337 31.1602 7.28026L29.3994 5.56786C29.2931 5.46146 29.1664 5.37747 29.027 5.32085C28.8877 5.26424 28.7383 5.23616 28.5879 5.23827ZM18 5.99999C10.5562 5.99999 4.5 12.0562 4.5 19.5C4.5 26.9437 10.5562 33 18 33C25.4438 33 31.5 26.9437 31.5 19.5C31.5 12.0562 25.4438 5.99999 18 5.99999ZM18 10.5C18.621 10.5 19.125 11.0032 19.125 11.625V19.875C19.125 20.4967 18.621 21 18 21C17.379 21 16.875 20.4967 16.875 19.875V11.625C16.875 11.0032 17.379 10.5 18 10.5Z" fill="#FF4848"/>
</svg>
