<svg width="24" height="24" viewBox="0 0 24 24" fill="none" xmlns="http://www.w3.org/2000/svg">
<path d="M10.2647 1.49311C10.4594 1.49879 10.6444 1.58004 10.7803 1.71967L20.5303 11.4697C20.6709 11.6103 20.7499 11.8011 20.7499 11.9999C20.7499 12.1988 20.6709 12.3896 20.5303 12.5302L10.7803 22.2802C10.7112 22.3522 10.6284 22.4097 10.5368 22.4492C10.4452 22.4888 10.3466 22.5097 10.2469 22.5108C10.1471 22.5118 10.0481 22.4929 9.95572 22.4552C9.86334 22.4174 9.77941 22.3617 9.70886 22.2911C9.6383 22.2206 9.58253 22.1366 9.54481 22.0442C9.50709 21.9519 9.48819 21.8529 9.4892 21.7531C9.49022 21.6533 9.51113 21.5548 9.55072 21.4632C9.5903 21.3716 9.64777 21.2888 9.71975 21.2197L18.9395 11.9999L9.71975 2.78022C9.61155 2.67484 9.53768 2.53925 9.50781 2.3912C9.47795 2.24315 9.49347 2.08953 9.55235 1.95044C9.61124 1.81136 9.71074 1.69329 9.83783 1.61169C9.96493 1.53009 10.1137 1.48876 10.2647 1.49311ZM4.26467 1.49311C4.45945 1.49879 4.64437 1.58004 4.7803 1.71967L14.5303 11.4697C14.6709 11.6103 14.7499 11.8011 14.7499 11.9999C14.7499 12.1988 14.6709 12.3896 14.5303 12.5302L4.7803 22.2802C4.71119 22.3522 4.62841 22.4097 4.53681 22.4492C4.44522 22.4888 4.34664 22.5097 4.24686 22.5108C4.14709 22.5118 4.04811 22.4929 3.95572 22.4552C3.86334 22.4174 3.77942 22.3617 3.70886 22.2911C3.6383 22.2206 3.58253 22.1366 3.54481 22.0442C3.5071 21.9519 3.48819 21.8529 3.4892 21.7531C3.49022 21.6533 3.51113 21.5548 3.55072 21.4632C3.59031 21.3716 3.64777 21.2888 3.71975 21.2197L12.9395 11.9999L3.71975 2.78022C3.61155 2.67484 3.53768 2.53925 3.50781 2.3912C3.47795 2.24315 3.49347 2.08953 3.55235 1.95044C3.61124 1.81136 3.71074 1.69329 3.83784 1.61169C3.96493 1.53009 4.1137 1.48876 4.26467 1.49311Z" fill="white"/>
</svg>
