<svg width="20" height="20" viewBox="0 0 20 20" fill="none" xmlns="http://www.w3.org/2000/svg">
<path d="M14.3628 1.24428C14.2005 1.24901 14.0464 1.31672 13.9331 1.43308L5.80811 9.55808C5.69094 9.67529 5.62512 9.83424 5.62512 9.99997C5.62512 10.1657 5.69094 10.3247 5.80811 10.4419L13.9331 18.5669C13.9907 18.6269 14.0597 18.6747 14.136 18.7077C14.2123 18.7407 14.2945 18.7581 14.3776 18.759C14.4608 18.7598 14.5433 18.7441 14.6203 18.7127C14.6972 18.6812 14.7672 18.6347 14.826 18.5759C14.8848 18.5171 14.9312 18.4472 14.9627 18.3702C14.9941 18.2932 15.0099 18.2108 15.009 18.1276C15.0082 18.0445 14.9907 17.9623 14.9578 17.886C14.9248 17.8097 14.8769 17.7407 14.8169 17.6831L7.13379 9.99997L14.8169 2.31687C14.9071 2.22905 14.9686 2.11606 14.9935 1.99269C15.0184 1.86931 15.0055 1.74129 14.9564 1.62539C14.9073 1.50949 14.8244 1.4111 14.7185 1.3431C14.6126 1.2751 14.4886 1.24065 14.3628 1.24428Z" fill="#2F55DD"/>
</svg>
