<svg width="30" height="31" viewBox="0 0 30 31" fill="none" xmlns="http://www.w3.org/2000/svg">
<path d="M13.2198 0.439453C5.91428 0.439453 0 6.54739 0 14.0166C0 17.9473 1.63745 21.4953 4.25123 23.9747V23.9761C5.17418 24.8511 5.71669 26.0006 5.71669 27.2141V29.3802C5.71468 29.5222 5.74092 29.6632 5.79389 29.7951C5.84685 29.9269 5.92549 30.0468 6.02522 30.148C6.12495 30.2491 6.24379 30.3295 6.37484 30.3843C6.50588 30.4391 6.64652 30.4673 6.78857 30.4673C6.93062 30.4673 7.07125 30.4391 7.2023 30.3843C7.33334 30.3295 7.45219 30.2491 7.55192 30.148C7.65165 30.0468 7.73029 29.9269 7.78325 29.7951C7.83622 29.6632 7.86246 29.5222 7.86045 29.3802V27.2141C7.86045 25.3606 7.03016 23.6559 5.72646 22.42C3.52821 20.3347 2.14376 17.3532 2.14376 14.0166C2.14376 7.67284 7.10691 2.58321 13.2198 2.58321C18.9791 2.58321 23.6873 7.11082 24.2178 12.9391C24.2368 13.1483 24.3169 13.3473 24.4481 13.5114L27.8703 17.7891C27.8922 17.8166 27.9025 17.7829 27.8689 17.7947L25.0133 18.7926C24.8036 18.8661 24.6219 19.003 24.4934 19.1842C24.3649 19.3655 24.2959 19.5822 24.2959 19.8045V24.2636C24.2959 24.729 24.0042 25.1328 23.5632 25.2797L19.5758 26.6084C18.5582 26.9471 17.8647 27.9085 17.8647 28.981V29.3802C17.8626 29.5222 17.8889 29.6632 17.9419 29.7951C17.9948 29.9269 18.0735 30.0468 18.1732 30.148C18.2729 30.2491 18.3918 30.3295 18.5228 30.3843C18.6538 30.4391 18.7945 30.4673 18.9365 30.4673C19.0786 30.4673 19.2192 30.4391 19.3503 30.3843C19.4813 30.3295 19.6002 30.2491 19.6999 30.148C19.7996 30.0468 19.8783 29.9269 19.9312 29.7951C19.9842 29.6632 20.0104 29.5222 20.0084 29.3802V28.981C20.0084 28.8231 20.1026 28.6932 20.2527 28.6433L24.2415 27.3132C25.5512 26.877 26.4397 25.6434 26.4397 24.2636V20.5651L28.5779 19.817C29.9434 19.3386 30.4492 17.5794 29.5451 16.4493L26.2848 12.3739C25.4901 5.67965 19.9769 0.439453 13.2198 0.439453ZM13.5771 7.58531C12.974 7.58531 12.3893 7.66223 11.8298 7.80444C11.5503 7.87518 11.3504 8.12221 11.3161 8.40876L11.2478 8.98099C11.2077 9.31613 11.0117 9.61207 10.7202 9.78071C10.4286 9.94936 10.0729 9.97085 9.76275 9.83794L9.23938 9.61463C8.97427 9.50172 8.66071 9.55047 8.45919 9.75699C7.64599 10.5931 7.03282 11.6253 6.70483 12.7786C6.62622 13.0566 6.74059 13.3545 6.9714 13.5281L7.43198 13.8742C7.70209 14.0765 7.86045 14.3946 7.86045 14.7312C7.86045 15.0677 7.70209 15.3859 7.43198 15.5881L6.9714 15.9342C6.74059 16.1072 6.62551 16.4058 6.70483 16.6837C7.03282 17.8371 7.64388 18.8693 8.4578 19.7054C8.6586 19.9119 8.97427 19.9613 9.23938 19.8477L9.76136 19.6244C10.0715 19.4915 10.4272 19.5137 10.7188 19.6816C11.0103 19.8496 11.2063 20.1476 11.2464 20.4828L11.3161 21.055C11.3504 21.3415 11.5503 21.5886 11.8298 21.6593C12.39 21.8008 12.974 21.877 13.5771 21.877C14.1802 21.877 14.765 21.8001 15.3245 21.6579C15.6039 21.5872 15.8038 21.3401 15.8381 21.0536L15.9065 20.4814C15.9465 20.1462 16.1425 19.8503 16.4341 19.6816C16.7256 19.513 17.0814 19.4915 17.3915 19.6244L17.9149 19.8477C18.18 19.9613 18.4936 19.9119 18.6951 19.7054C19.5083 18.8693 20.1215 17.8371 20.4494 16.6837C20.5281 16.4058 20.4137 16.1079 20.1829 15.9342L19.7223 15.5881C19.4522 15.3859 19.2938 15.0685 19.2938 14.7312C19.2938 14.3939 19.4522 14.0765 19.7223 13.8742L20.1829 13.5281C20.4137 13.3552 20.5288 13.0566 20.4494 12.7786C20.1215 11.6253 19.5104 10.5931 18.6965 9.75699C18.4957 9.55047 18.18 9.50101 17.9149 9.61463L17.3929 9.83794C17.0828 9.97085 16.727 9.94864 16.4355 9.78071C16.1439 9.61279 15.9479 9.31474 15.9079 8.9796L15.8381 8.40737C15.8038 8.12153 15.6039 7.87378 15.3245 7.80304C14.7643 7.66155 14.1802 7.58531 13.5771 7.58531ZM13.5771 12.5874C14.7612 12.5874 15.7209 13.5471 15.7209 14.7312C15.7209 15.9152 14.7612 16.8749 13.5771 16.8749C12.3931 16.8749 11.4334 15.9152 11.4334 14.7312C11.4334 13.5471 12.3931 12.5874 13.5771 12.5874Z" fill="white"/>
</svg>
