<svg width="94" height="76" viewBox="0 0 94 76" fill="none" xmlns="http://www.w3.org/2000/svg">
<path d="M18.4669 59.8944L18.99 62.2502H35.01L35.5331 59.8944C35.8875 58.3003 36.6446 56.7984 37.8293 55.6745C40.9444 52.7214 42.75 48.5972 42.75 44.2502C42.75 35.5674 35.6816 28.5283 27 28.5249C18.3184 28.5283 11.25 35.5674 11.25 44.2502C11.25 48.5972 13.0556 52.7214 16.1696 55.6745C17.3554 56.7984 18.1125 58.3003 18.4669 59.8944ZM19.7404 65.6252L20.8046 70.4165C21.2051 72.2188 22.8038 73.5002 24.6488 73.5002H29.3512C31.1963 73.5002 32.7949 72.2188 33.1954 70.4165L34.2596 65.6252H19.7404Z" fill="#DFF6FF"/>
<path d="M68.6791 70.5882L69.0666 72.3332H80.9333L81.3208 70.5882C81.5833 69.4074 82.1441 68.2949 83.0216 67.4624C85.3291 65.2749 86.6666 62.2199 86.6666 58.9999C86.6666 52.5682 81.4308 47.3541 75 47.3516C68.5691 47.3541 63.3333 52.5682 63.3333 58.9999C63.3333 62.2199 64.6708 65.2749 66.9775 67.4624C67.8558 68.2949 68.4166 69.4074 68.6791 70.5882ZM69.6225 74.8332L70.4108 78.3824C70.7075 79.7174 71.8916 80.6666 73.2583 80.6666H76.7416C78.1083 80.6666 79.2925 79.7174 79.5891 78.3824L80.3775 74.8332H69.6225Z" fill="#9AE2FF"/>
<path d="M48.6791 11.5882L49.0666 13.3332H60.9333L61.3208 11.5882C61.5833 10.4074 62.1441 9.2949 63.0216 8.4624C65.3291 6.2749 66.6666 3.2199 66.6666 -0.000103951C66.6666 -6.43177 61.4308 -11.6459 55 -11.6484C48.5691 -11.6459 43.3333 -6.43177 43.3333 -0.000103951C43.3333 3.2199 44.6708 6.2749 46.9775 8.4624C47.8558 9.2949 48.4166 10.4074 48.6791 11.5882ZM49.6225 15.8332L50.4108 19.3824C50.7075 20.7174 51.8916 21.6666 53.2583 21.6666H56.7416C58.1083 21.6666 59.2925 20.7174 59.5891 19.3824L60.3775 15.8332H49.6225Z" fill="#9AE2FF"/>
</svg>
