<svg width="100" height="74" viewBox="0 0 100 74" fill="none" xmlns="http://www.w3.org/2000/svg">
<g id="achievement/rafiki">
<g id="background-complete">
<path id="Vector" d="M89.6587 68.1458H83.088V68.1954H89.6587V68.1458Z" fill="#EBEBEB"/>
<path id="Vector_2" d="M66.1135 68.6854H64.3895V68.735H66.1135V68.6854Z" fill="#EBEBEB"/>
<path id="Vector_3" d="M82.8895 66.3047H79.0824V66.3543H82.8895V66.3047Z" fill="#EBEBEB"/>
<path id="Vector_4" d="M19.3782 66.6381H10.8096V66.6877H19.3782V66.6381Z" fill="#EBEBEB"/>
<path id="Vector_5" d="M22.4017 66.6381H21.1459V66.6877H22.4017V66.6381Z" fill="#EBEBEB"/>
<path id="Vector_6" d="M45.07 67.4752H26.4846V67.5248H45.07V67.4752Z" fill="#EBEBEB"/>
<path id="Vector_7" d="M47.6987 56.1054H9.38911C9.08866 56.1054 8.80053 55.986 8.58808 55.7736C8.37564 55.5611 8.25629 55.273 8.25629 54.9725V1.1229C8.2589 0.82418 8.37941 0.538585 8.59157 0.328281C8.80373 0.117977 9.09038 -1.14524e-05 9.38911 8.33753e-10H47.6987C47.8474 8.33755e-10 47.9947 0.029301 48.1322 0.0862306C48.2696 0.14316 48.3945 0.226603 48.4997 0.331796C48.6049 0.436988 48.6883 0.561869 48.7453 0.699309C48.8022 0.836749 48.8315 0.984056 48.8315 1.13282V54.9725C48.8315 55.1213 48.8022 55.2686 48.7453 55.4061C48.6883 55.5435 48.6049 55.6684 48.4997 55.7736C48.3945 55.8788 48.2696 55.9622 48.1322 56.0191C47.9947 56.0761 47.8474 56.1054 47.6987 56.1054ZM9.38911 0.0396786C9.10198 0.0402031 8.82676 0.154496 8.62373 0.357526C8.4207 0.560556 8.30641 0.835774 8.30588 1.1229V54.9725C8.30641 55.2597 8.4207 55.5349 8.62373 55.7379C8.82676 55.941 9.10198 56.0552 9.38911 56.0558H47.6987C47.9858 56.0552 48.261 55.941 48.4641 55.7379C48.6671 55.5349 48.7814 55.2597 48.7819 54.9725V1.1229C48.7814 0.835774 48.6671 0.560556 48.4641 0.357526C48.261 0.154496 47.9858 0.0402031 47.6987 0.0396786H9.38911Z" fill="#EBEBEB"/>
<path id="Vector_8" d="M90.611 56.1054H52.3014C52.001 56.1054 51.7128 55.986 51.5004 55.7736C51.2879 55.5611 51.1686 55.273 51.1686 54.9725V1.1229C51.1712 0.82418 51.2917 0.538585 51.5039 0.328281C51.716 0.117977 52.0027 -1.14524e-05 52.3014 8.33753e-10H90.611C90.9114 8.33756e-10 91.1995 0.11935 91.412 0.331796C91.6244 0.544241 91.7438 0.832378 91.7438 1.13282V54.9725C91.7438 55.273 91.6244 55.5611 91.412 55.7736C91.1995 55.986 90.9114 56.1054 90.611 56.1054ZM52.3014 0.0396786C52.0143 0.0402031 51.7391 0.154496 51.536 0.357526C51.333 0.560556 51.2187 0.835774 51.2182 1.1229V54.9725C51.2187 55.2597 51.333 55.5349 51.536 55.7379C51.7391 55.941 52.0143 56.0552 52.3014 56.0558H90.611C90.8981 56.0552 91.1733 55.941 91.3763 55.7379C91.5794 55.5349 91.6937 55.2597 91.6942 54.9725V1.1229C91.6937 0.835774 91.5794 0.560556 91.3763 0.357526C91.1733 0.154496 90.8981 0.0402031 90.611 0.0396786H52.3014Z" fill="#EBEBEB"/>
<path id="Vector_9" d="M99.5982 64.9536H0.401978V65.0032H99.5982V64.9536Z" fill="#EBEBEB"/>
<path id="Vector_10" d="M18.8029 44.6759C19.0298 45.7589 19.6704 46.7106 20.5884 47.3284C21.5041 47.937 22.5611 48.2998 23.6575 48.3819C24.7189 48.4811 25.8597 48.3601 26.7068 47.7133C27.5539 47.0666 27.9686 45.783 27.3893 44.8882C26.5699 43.6225 24.8102 43.5153 23.3064 43.6244C21.8025 43.7336 20.2214 44.172 18.8029 44.6759Z" fill="#E0E0E0"/>
<path id="Vector_11" d="M32.2995 36.8176C33.1621 37.5105 33.7202 38.5128 33.8549 39.611C33.9829 40.7036 33.8264 41.8107 33.4006 42.8249C33.0038 43.8169 32.3828 44.7771 31.4166 45.2394C30.4505 45.7016 29.1232 45.4894 28.5895 44.5668C27.8337 43.2634 28.538 41.6445 29.3137 40.353C30.0894 39.0614 31.2063 37.8532 32.2995 36.8176Z" fill="#E0E0E0"/>
<path id="Vector_12" d="M15.8527 37.8929C15.858 38.95 16.275 39.9634 17.0153 40.718C17.7561 41.4618 18.6757 42.0029 19.6857 42.2893C20.6598 42.5869 21.7509 42.6861 22.6615 42.2476C23.5722 41.8092 24.211 40.6823 23.8519 39.736C23.3262 38.3948 21.6974 37.9504 20.2709 37.7699C18.8445 37.5893 17.2772 37.6945 15.8527 37.8929Z" fill="#E0E0E0"/>
<path id="Vector_13" d="M29.9843 33.1157C30.6589 33.9295 30.9899 34.9743 30.9068 36.0281C30.8159 37.0739 30.458 38.0788 29.8672 38.9465C29.3097 39.7996 28.54 40.5792 27.554 40.8292C26.5679 41.0792 25.3597 40.6308 25.0364 39.6587C24.5781 38.2938 25.5462 36.913 26.5203 35.8535C27.4944 34.7941 28.7721 33.8756 29.9843 33.1157Z" fill="#E0E0E0"/>
<path id="Vector_14" d="M13.9561 31.0841C13.8767 32.0893 14.1928 33.0858 14.837 33.8616C15.4807 34.6273 16.3109 35.2143 17.2474 35.5658C18.1481 35.9248 19.1778 36.1094 20.0825 35.7642C20.9871 35.4189 21.6696 34.4012 21.4018 33.4707C21.005 32.1574 19.4972 31.6138 18.1581 31.3221C16.8189 31.0305 15.325 31.0087 13.9561 31.0841Z" fill="#E0E0E0"/>
<path id="Vector_15" d="M27.7543 27.6758C28.3306 28.5021 28.5613 29.5208 28.3971 30.5148C28.2302 31.5 27.8128 32.4257 27.1849 33.203C26.5898 33.9688 25.7962 34.6493 24.8399 34.808C23.8837 34.9667 22.7727 34.437 22.5425 33.4966C22.2152 32.1654 23.2449 30.9294 24.2527 30.0029C25.3129 29.0772 26.4902 28.2948 27.7543 27.6758Z" fill="#E0E0E0"/>
<path id="Vector_16" d="M13.5752 24.67C13.3795 25.6067 13.5574 26.5827 14.0712 27.39C14.5869 28.1897 15.2995 28.8434 16.1404 29.2886C16.9459 29.735 17.8942 30.0326 18.789 29.8144C19.6837 29.5961 20.4574 28.7212 20.3087 27.8106C20.0964 26.525 18.7374 25.8267 17.5093 25.3942C16.2353 24.9817 14.9126 24.7382 13.5752 24.67Z" fill="#E0E0E0"/>
<path id="Vector_17" d="M26.9865 23.1127C27.4295 23.9612 27.5248 24.9488 27.2524 25.8664C26.9799 26.7749 26.4784 27.5981 25.7962 28.257C25.1415 28.9077 24.3122 29.4473 23.3917 29.487C22.4711 29.5267 21.4871 28.8918 21.3819 27.9733C21.2351 26.6798 22.3541 25.6402 23.4155 24.8863C24.5236 24.1422 25.7241 23.546 26.9865 23.1127Z" fill="#E0E0E0"/>
<path id="Vector_18" d="M14.6108 17.5895C14.294 18.4396 14.321 19.3798 14.6862 20.2102C15.0546 21.0334 15.6293 21.7476 16.3547 22.2834C17.0471 22.8171 17.8922 23.2318 18.7632 23.1544C19.6341 23.077 20.4813 22.3608 20.4713 21.4938C20.4575 20.2579 19.281 19.4127 18.1918 18.8294C17.0573 18.2618 15.8534 17.8449 14.6108 17.5895Z" fill="#E0E0E0"/>
<path id="Vector_19" d="M27.4091 18.0537C27.7043 18.9119 27.653 19.8514 27.2663 20.6725C26.876 21.4856 26.283 22.1846 25.5443 22.702C24.84 23.2179 23.9849 23.6107 23.1159 23.5115C22.247 23.4123 21.4177 22.6822 21.4494 21.8093C21.4951 20.5733 22.6934 19.7579 23.7964 19.2044C24.9451 18.6644 26.1597 18.2775 27.4091 18.0537Z" fill="#E0E0E0"/>
<path id="Vector_20" d="M16.7059 11.11C16.3007 11.8658 16.2068 12.7499 16.444 13.574C16.6842 14.3917 17.1311 15.1338 17.7415 15.7286C18.3208 16.3237 19.0588 16.8138 19.8841 16.8515C20.7094 16.8892 21.5943 16.3356 21.6974 15.5163C21.8403 14.3577 20.8483 13.4153 19.9119 12.7388C18.9197 12.057 17.8416 11.5093 16.7059 11.11Z" fill="#E0E0E0"/>
<path id="Vector_21" d="M28.6332 13.1792C28.7995 14.0209 28.6308 14.8943 28.163 15.6135C27.6946 16.3255 27.0502 16.9043 26.2921 17.2939C25.566 17.6906 24.705 17.9466 23.9114 17.7422C23.1179 17.5379 22.4255 16.7503 22.5683 15.9329C22.7667 14.7842 23.9947 14.1731 25.0978 13.7942C26.2443 13.4353 27.4329 13.2286 28.6332 13.1792Z" fill="#E0E0E0"/>
<path id="Vector_22" d="M24.3737 8.00507C24.3249 7.92347 24.2462 7.86413 24.1543 7.83967C24.0624 7.81522 23.9646 7.82758 23.8817 7.87414C23.0285 8.31301 22.3254 8.99609 21.8621 9.83624C21.5391 10.4185 21.4423 11.0995 21.5903 11.7487C21.9097 13.07 23.6635 13.4886 24.5225 12.4332C25.1851 11.6178 25.2843 10.4889 25.1375 9.45731C25.0562 8.89784 24.6634 8.48518 24.3737 8.00507Z" fill="#E0E0E0"/>
<path id="Vector_23" d="M42.7984 52.4291C38.1779 51.9787 33.7319 49.9651 29.9188 46.6222C26.2737 43.3985 23.5536 39.2615 22.0387 34.6373C19.7095 27.392 20.2273 18.9762 23.4988 10.9413L23.8659 11.0921C20.638 19.0337 20.1162 27.3523 22.4235 34.5202C25.457 43.9538 33.8529 51.1614 42.8421 52.0442L42.7984 52.4291Z" fill="#E0E0E0"/>
<path id="Vector_24" d="M79.134 44.6759C78.9074 45.7591 78.2667 46.7109 77.3484 47.3284C76.4318 47.9368 75.3743 48.2995 74.2773 48.3819C73.2179 48.4811 72.0752 48.3601 71.228 47.7133C70.3809 47.0666 69.9663 45.783 70.5456 44.8882C71.3649 43.6225 73.1247 43.5153 74.6305 43.6244C76.1363 43.7336 77.7155 44.172 79.134 44.6759Z" fill="#E0E0E0"/>
<path id="Vector_25" d="M65.6374 36.8176C64.7762 37.5112 64.2196 38.5134 64.0859 39.611C63.9589 40.7035 64.1154 41.8104 64.5402 42.8249C64.937 43.8169 65.558 44.7771 66.5242 45.2394C67.4903 45.7016 68.8176 45.4894 69.3513 44.5668C70.1071 43.2634 69.4048 41.6445 68.6271 40.353C67.8494 39.0614 66.7305 37.8532 65.6374 36.8176Z" fill="#E0E0E0"/>
<path id="Vector_26" d="M82.0841 37.8929C82.0788 38.95 81.6617 39.9634 80.9215 40.718C80.1809 41.4622 79.2613 42.0033 78.2511 42.2893C77.277 42.5869 76.1858 42.6861 75.2752 42.2476C74.3646 41.8092 73.7258 40.6823 74.0968 39.736C74.6205 38.3948 76.2493 37.9504 77.6678 37.7699C79.0863 37.5893 80.6596 37.6945 82.0841 37.8929Z" fill="#E0E0E0"/>
<path id="Vector_27" d="M67.9526 33.1157C67.2777 33.9293 66.9474 34.9744 67.0321 36.0281C67.1211 37.0743 67.4792 38.0796 68.0717 38.9465C68.6272 39.7996 69.3969 40.5792 70.3829 40.8292C71.3689 41.0792 72.5771 40.6308 72.9005 39.6587C73.3588 38.2938 72.3907 36.913 71.4166 35.8535C70.4424 34.7941 69.1727 33.8756 67.9526 33.1157Z" fill="#E0E0E0"/>
<path id="Vector_28" d="M83.9807 31.0841C84.0601 32.0893 83.744 33.0858 83.0998 33.8616C82.4561 34.6273 81.6259 35.2143 80.6894 35.5658C79.7887 35.9248 78.761 36.1094 77.8543 35.7642C76.9477 35.4189 76.2672 34.4012 76.537 33.4707C76.9338 32.1574 78.4396 31.6138 79.7787 31.3221C81.1179 31.0305 82.6118 31.0087 83.9807 31.0841Z" fill="#E0E0E0"/>
<path id="Vector_29" d="M70.1845 27.6758C69.6067 28.5015 69.3753 29.5205 69.5397 30.5148C69.7083 31.5005 70.1278 32.4263 70.7578 33.203C71.353 33.9688 72.1466 34.6493 73.1048 34.808C74.0631 34.9667 75.1701 34.437 75.4022 33.4966C75.7276 32.1654 74.6999 30.9294 73.6901 30.0029C72.6284 29.0772 71.4498 28.2948 70.1845 27.6758Z" fill="#E0E0E0"/>
<path id="Vector_30" d="M84.3617 24.67C84.5574 25.6067 84.3794 26.5827 83.8657 27.39C83.3499 28.1897 82.6374 28.8434 81.7964 29.2886C80.991 29.735 80.0446 30.0326 79.1479 29.8144C78.2512 29.5961 77.4794 28.7212 77.6282 27.8106C77.8405 26.525 79.1995 25.8267 80.4295 25.3942C81.7029 24.9816 83.0249 24.7381 84.3617 24.67Z" fill="#E0E0E0"/>
<path id="Vector_31" d="M70.9424 23.1127C70.4994 23.9612 70.4041 24.9488 70.6765 25.8664C70.955 26.7763 71.4626 27.5995 72.1506 28.257C72.8033 28.9077 73.6326 29.4473 74.5531 29.487C75.4737 29.5267 76.4577 28.8918 76.5628 27.9733C76.7096 26.6798 75.5927 25.6402 74.5293 24.8863C73.4163 24.141 72.2103 23.5447 70.9424 23.1127Z" fill="#E0E0E0"/>
<path id="Vector_32" d="M83.33 17.5895C83.6462 18.4398 83.6185 19.38 83.2526 20.2102C82.8842 21.0334 82.3095 21.7476 81.5841 22.2834C80.8917 22.8171 80.0466 23.2318 79.1776 23.1544C78.3087 23.077 77.4576 22.3608 77.4675 21.4938C77.4814 20.2579 78.6578 19.4127 79.747 18.8294C80.8821 18.2616 82.0867 17.8448 83.33 17.5895Z" fill="#E0E0E0"/>
<path id="Vector_33" d="M70.5277 18.0537C70.2326 18.9119 70.2838 19.8514 70.6705 20.6725C71.0608 21.4856 71.6539 22.1846 72.3926 22.702C73.0969 23.2179 73.9519 23.6107 74.8209 23.5115C75.6899 23.4123 76.5191 22.6822 76.4874 21.8093C76.4418 20.5733 75.2455 19.7579 74.1404 19.2044C72.9917 18.6644 71.7771 18.2775 70.5277 18.0537Z" fill="#E0E0E0"/>
<path id="Vector_34" d="M81.231 11.11C81.6361 11.8658 81.7301 12.7499 81.4929 13.574C81.2538 14.3922 80.8067 15.1345 80.1954 15.7286C79.6161 16.3237 78.8781 16.8138 78.0527 16.8515C77.2274 16.8892 76.3426 16.3356 76.2394 15.5163C76.0966 14.3577 77.0886 13.4153 78.0349 12.7388C79.024 12.0576 80.0986 11.5099 81.231 11.11Z" fill="#E0E0E0"/>
<path id="Vector_35" d="M69.3036 13.1792C69.1372 14.0209 69.3059 14.8943 69.7738 15.6135C70.2421 16.3255 70.8866 16.9043 71.6446 17.2939C72.3707 17.6906 73.2218 17.9466 74.0253 17.7422C74.8288 17.5379 75.5113 16.7503 75.3684 15.9329C75.1701 14.7842 73.944 14.1731 72.8389 13.7942C71.6925 13.4353 70.5039 13.2286 69.3036 13.1792Z" fill="#E0E0E0"/>
<path id="Vector_36" d="M73.5631 8.0051C73.6123 7.92335 73.6914 7.86396 73.7836 7.83952C73.8758 7.81508 73.9739 7.8275 74.0571 7.87416C74.9094 8.31364 75.6117 8.99662 76.0748 9.83626C76.3978 10.4186 76.4946 11.0995 76.3466 11.7488C76.0272 13.0701 74.2734 13.4887 73.4143 12.4332C72.7517 11.6178 72.6525 10.489 72.8013 9.45733C72.8807 8.89786 73.2735 8.48521 73.5631 8.0051Z" fill="#E0E0E0"/>
<path id="Vector_37" d="M55.1384 52.4292L55.1007 52.0324C64.0859 51.1515 72.4878 43.9439 75.5193 34.5203C77.8206 27.3623 77.3048 19.0457 74.071 11.0961L74.44 10.9453C77.7095 18.9802 78.2273 27.396 75.8982 34.6413C74.3838 39.2642 71.6643 43.3998 68.02 46.6222C64.2129 49.9651 59.759 51.9788 55.1384 52.4292Z" fill="#E0E0E0"/>
<path id="Vector_38" d="M43.1297 48.1518L41.9394 54.4071H43.4273L45.5124 49.4175C45.5124 49.4175 45.3636 47.8542 43.1297 48.1518Z" fill="#E0E0E0"/>
<path id="Vector_39" d="M56.1502 48.1518L57.3406 54.4071H55.8527L53.7695 49.4175C53.7695 49.4175 53.9203 47.8542 56.1502 48.1518Z" fill="#E0E0E0"/>
<path id="Vector_40" d="M60.4928 42.9293C61.9093 36.9277 58.1924 30.9141 52.1907 29.4976C46.1891 28.081 40.1754 31.798 38.7589 37.7997C37.3424 43.8013 41.0594 49.8149 47.061 51.2315C53.0627 52.648 59.0763 48.931 60.4928 42.9293Z" fill="#EBEBEB"/>
<path id="Vector_41" d="M49.7699 48.9949C54.5351 48.9949 58.398 45.132 58.398 40.3669C58.398 35.6017 54.5351 31.7388 49.7699 31.7388C45.0048 31.7388 41.1418 35.6017 41.1418 40.3669C41.1418 45.132 45.0048 48.9949 49.7699 48.9949Z" fill="white"/>
<path id="Vector_42" d="M56.3724 41.9568C57.2518 38.2309 54.9442 34.4975 51.2182 33.6181C47.4922 32.7386 43.7588 35.0462 42.8794 38.7722C42 42.4982 44.3076 46.2316 48.0336 47.111C51.7595 47.9904 55.4929 45.6828 56.3724 41.9568Z" fill="#E6E6E6"/>
<path id="Vector_43" d="M49.6271 45.7234C52.5855 45.7234 54.9837 43.3252 54.9837 40.3668C54.9837 37.4085 52.5855 35.0103 49.6271 35.0103C46.6687 35.0103 44.2705 37.4085 44.2705 40.3668C44.2705 43.3252 46.6687 45.7234 49.6271 45.7234Z" fill="white"/>
<path id="Vector_44" d="M49.627 41.9144C50.4817 41.9144 51.1745 41.2216 51.1745 40.3669C51.1745 39.5123 50.4817 38.8195 49.627 38.8195C48.7724 38.8195 48.0796 39.5123 48.0796 40.3669C48.0796 41.2216 48.7724 41.9144 49.627 41.9144Z" fill="#E0E0E0"/>
<path id="Vector_45" d="M63.3499 43.0432L61.0287 44.0332L56.9735 42.8072L56.9716 42.8052L58.5825 41.5632L63.3499 43.0432Z" fill="#E6E6E6"/>
<path id="Vector_46" opacity="0.1" d="M63.3499 43.0432L61.0287 44.0332L56.9735 42.8072L56.9716 42.8052L58.5825 41.5632L63.3499 43.0432Z" fill="black"/>
<path id="Vector_47" d="M49.4783 40.3967C49.4855 40.3732 49.4973 40.3514 49.513 40.3325C49.5287 40.3136 49.548 40.298 49.5697 40.2865C49.5915 40.2751 49.6153 40.2681 49.6398 40.2659C49.6642 40.2637 49.6889 40.2663 49.7124 40.2737L61.0822 43.8547L60.9751 44.2118L49.6032 40.6288C49.5576 40.6122 49.5197 40.5793 49.4966 40.5365C49.4736 40.4937 49.467 40.444 49.4783 40.3967Z" fill="#E0E0E0"/>
<g id="Group" opacity="0.1">
<path id="Vector_48" d="M49.4783 40.3967C49.4855 40.3732 49.4973 40.3514 49.513 40.3325C49.5287 40.3136 49.548 40.298 49.5697 40.2865C49.5915 40.2751 49.6153 40.2681 49.6398 40.2659C49.6642 40.2637 49.6889 40.2663 49.7124 40.2737L61.0822 43.8547L60.9751 44.2118L49.6032 40.6288C49.5576 40.6122 49.5197 40.5793 49.4966 40.5365C49.4736 40.4937 49.467 40.444 49.4783 40.3967Z" fill="black"/>
</g>
<path id="Vector_49" d="M61.8699 46.1183L57.8663 44.9002L56.9736 42.8071L61.0287 44.0332L61.8699 46.1183Z" fill="#E6E6E6"/>
<g id="Group_2" opacity="0.1">
<path id="Vector_50" d="M61.8699 46.1183L57.8663 44.9002L56.9736 42.8071L61.0287 44.0332L61.8699 46.1183Z" fill="black"/>
</g>
<path id="Vector_51" d="M35.2456 26.0926C35.3461 26.2353 35.4965 26.3349 35.6671 26.3717C35.8377 26.4085 36.0159 26.3796 36.1662 26.291L41.1002 23.3607C41.2077 23.2972 41.3304 23.2636 41.4553 23.2635L53.091 23.2893L58.6619 19.6012L59.1817 20.3055L60.4692 17.5558L57.6263 17.7859L57.9536 18.4486L52.964 22.0018L41.2966 22.0196C41.1814 22.0199 41.0681 22.0492 40.9673 22.1049L35.4817 25.0808C35.3954 25.1276 35.3199 25.1921 35.2604 25.2701C35.2008 25.3482 35.1585 25.438 35.1361 25.5336C35.1138 25.6292 35.1121 25.7285 35.1309 25.8249C35.1498 25.9212 35.1889 26.0125 35.2456 26.0926Z" fill="#EBEBEB"/>
<path id="Vector_52" d="M62.4869 14.5521H61.8917C61.7543 14.5538 61.6227 14.6072 61.523 14.7017C61.4234 14.7962 61.363 14.9249 61.354 15.0619L61.2112 17.8156C61.2068 17.8816 61.2161 17.9478 61.2385 18.01C61.2609 18.0723 61.296 18.1292 61.3414 18.1773C61.3869 18.2253 61.4418 18.2635 61.5027 18.2893C61.5636 18.3152 61.6291 18.3281 61.6953 18.3275H62.2905C62.4281 18.3257 62.56 18.272 62.6597 18.1771C62.7595 18.0821 62.8196 17.953 62.8281 17.8156L62.9729 15.0619C62.977 14.9959 62.9674 14.9298 62.9448 14.8676C62.9221 14.8055 62.8869 14.7487 62.8412 14.7008C62.7956 14.653 62.7406 14.615 62.6796 14.5894C62.6186 14.5638 62.553 14.5511 62.4869 14.5521Z" fill="#EBEBEB"/>
<path id="Vector_53" d="M67.2026 14.5521H65.4548L65.8516 13.6335C65.8931 13.5353 65.9088 13.428 65.8972 13.322L65.8159 12.5979C65.8006 12.4571 65.7334 12.327 65.6274 12.2331C65.5214 12.1392 65.3841 12.0882 65.2425 12.09H64.5482L64.4886 13.2109L63.3638 14.6294C63.2515 14.77 63.1857 14.9419 63.1753 15.1214L63.0404 17.7005C63.0355 17.7817 63.0473 17.8629 63.075 17.9393C63.1027 18.0157 63.1458 18.0856 63.2016 18.1447C63.2573 18.2038 63.3246 18.2509 63.3992 18.283C63.4739 18.3151 63.5543 18.3316 63.6356 18.3314H66.0698C66.1779 18.3303 66.2846 18.3066 66.383 18.2619C66.4814 18.2171 66.5693 18.1523 66.6412 18.0715L66.8674 17.8196C66.9627 17.7183 67.0297 17.5938 67.0618 17.4585L67.5975 15.0778L67.2026 14.5521Z" fill="#EBEBEB"/>
</g>
<g id="Shadow">
<path id="path" d="M50.0001 73.804C71.2444 73.804 88.4664 72.7985 88.4664 71.5582C88.4664 70.3179 71.2444 69.3124 50.0001 69.3124C28.7557 69.3124 11.5338 70.3179 11.5338 71.5582C11.5338 72.7985 28.7557 73.804 50.0001 73.804Z" fill="#F5F5F5"/>
</g>
<g id="Podium">
<path id="Vector_54" d="M69.2976 62.7277H30.7023V73.3317H69.2976V62.7277Z" fill="#263238"/>
<path id="Vector_55" opacity="0.2" d="M69.2976 62.7277H30.7023V73.3337H69.2976V62.7277Z" fill="white"/>
<path id="Vector_56" d="M57.892 54.3853H41.1398V62.7197H57.892V54.3853Z" fill="#263238"/>
<path id="Vector_57" opacity="0.2" d="M57.892 54.3853H41.1398V62.7197H57.892V54.3853Z" fill="white"/>
<path id="Vector_58" d="M49.0219 56.7401L48.8474 57.621H49.8016L49.0299 61.4797H50.127L51.0674 56.7401H49.0219Z" fill="white"/>
<g id="Group_3" opacity="0.2">
<path id="Vector_59" d="M49.1886 56.7401L49.012 57.621H49.9603L49.1886 61.4797H50.1191L51.0674 56.7401H49.1886Z" fill="white"/>
</g>
</g>
<g id="Lines">
<path id="Vector_60" d="M45.0402 3.99758C45.0244 3.99828 45.0087 3.99486 44.9946 3.98766L43.4868 3.19409C43.4744 3.18852 43.4633 3.18046 43.4541 3.1704C43.4449 3.16035 43.4379 3.14852 43.4335 3.13566C43.4292 3.12279 43.4274 3.10915 43.4285 3.09559C43.4296 3.08204 43.4335 3.06885 43.4399 3.05686C43.4463 3.04486 43.4551 3.03431 43.4658 3.02586C43.4764 3.01741 43.4887 3.01125 43.5019 3.00774C43.515 3.00424 43.5287 3.00348 43.5422 3.0055C43.5556 3.00752 43.5685 3.01229 43.58 3.0195L45.0878 3.81307C45.0993 3.8193 45.1094 3.82774 45.1177 3.8379C45.1259 3.84806 45.132 3.85974 45.1357 3.87228C45.1394 3.88482 45.1406 3.89796 45.1391 3.91095C45.1377 3.92394 45.1338 3.93652 45.1275 3.94798C45.1188 3.96341 45.1061 3.97618 45.0908 3.98492C45.0754 3.99366 45.0579 3.99804 45.0402 3.99758Z" fill="white"/>
<path id="Vector_61" d="M46.0481 4.53722C46.0317 4.53776 46.0153 4.53436 46.0005 4.5273L45.4926 4.25749C45.4809 4.25143 45.4706 4.24312 45.4622 4.23303C45.4538 4.22295 45.4474 4.21129 45.4436 4.19874C45.4397 4.18619 45.4383 4.173 45.4396 4.15992C45.4409 4.14685 45.4447 4.13416 45.4509 4.12258C45.4636 4.09942 45.4847 4.08211 45.5099 4.07433C45.5351 4.06655 45.5624 4.06891 45.5858 4.08092L46.0937 4.35073C46.1169 4.36336 46.1342 4.38452 46.142 4.40972C46.1498 4.43492 46.1474 4.46216 46.1354 4.48564C46.1268 4.50129 46.1142 4.51435 46.0988 4.52343C46.0835 4.53251 46.0659 4.53727 46.0481 4.53722Z" fill="white"/>
<path id="Vector_62" d="M45.0402 5.98745H41.1438C41.1175 5.98745 41.0923 5.977 41.0737 5.9584C41.0551 5.9398 41.0446 5.91457 41.0446 5.88826C41.0446 5.86195 41.0551 5.83672 41.0737 5.81812C41.0923 5.79951 41.1175 5.78906 41.1438 5.78906H45.0402C45.0665 5.78906 45.0918 5.79951 45.1104 5.81812C45.129 5.83672 45.1394 5.86195 45.1394 5.88826C45.1394 5.91457 45.129 5.9398 45.1104 5.9584C45.0918 5.977 45.0665 5.98745 45.0402 5.98745Z" fill="white"/>
<path id="Vector_63" d="M40.3165 10.481C40.2987 10.4813 40.281 10.4766 40.2656 10.4675C40.2502 10.4584 40.2376 10.4452 40.2293 10.4294C40.223 10.4179 40.2192 10.4052 40.2179 10.3921C40.2167 10.379 40.218 10.3658 40.2219 10.3533C40.2258 10.3407 40.2321 10.3291 40.2405 10.319C40.2489 10.3089 40.2593 10.3006 40.2709 10.2945L42.1993 9.27082C42.2109 9.26461 42.2236 9.26076 42.2366 9.25949C42.2497 9.25823 42.2629 9.25957 42.2754 9.26345C42.288 9.26733 42.2997 9.27366 42.3097 9.28207C42.3198 9.29049 42.3281 9.30082 42.3342 9.31248C42.3404 9.32391 42.3442 9.33645 42.3454 9.34938C42.3467 9.3623 42.3453 9.37534 42.3414 9.38773C42.3375 9.40012 42.3312 9.41161 42.3228 9.42151C42.3144 9.43142 42.3041 9.43954 42.2925 9.4454L40.3642 10.4691C40.3494 10.4768 40.3331 10.4809 40.3165 10.481Z" fill="white"/>
<path id="Vector_64" d="M42.7726 9.20139C42.7548 9.20166 42.7371 9.19698 42.7217 9.18788C42.7063 9.17878 42.6937 9.16561 42.6853 9.14981C42.673 9.1268 42.67 9.09992 42.6771 9.07478C42.6841 9.04964 42.7006 9.02818 42.723 9.0149L43.5265 8.56654C43.5378 8.5599 43.5503 8.55561 43.5633 8.55392C43.5762 8.55223 43.5894 8.55317 43.602 8.55669C43.6146 8.56021 43.6264 8.56623 43.6366 8.5744C43.6468 8.58257 43.6552 8.59272 43.6614 8.60423C43.6743 8.62713 43.6775 8.65419 43.6705 8.67947C43.6634 8.70476 43.6466 8.72622 43.6237 8.73914L42.8203 9.18949C42.8056 9.19738 42.7893 9.20147 42.7726 9.20139Z" fill="white"/>
<path id="Vector_65" d="M44.0483 8.49909C44.0304 8.49936 44.0128 8.49469 43.9974 8.48559C43.982 8.47649 43.9694 8.46331 43.961 8.44751C43.9548 8.43594 43.9509 8.42324 43.9497 8.41017C43.9484 8.3971 43.9498 8.3839 43.9536 8.37135C43.9575 8.3588 43.9638 8.34715 43.9723 8.33706C43.9807 8.32698 43.991 8.31866 44.0027 8.31261L45.9548 7.277C45.9662 7.27076 45.9786 7.26683 45.9914 7.26545C46.0043 7.26407 46.0173 7.26526 46.0296 7.26895C46.042 7.27265 46.0535 7.27877 46.0635 7.28696C46.0735 7.29516 46.0817 7.30526 46.0878 7.31668C46.0941 7.32813 46.098 7.34072 46.0994 7.35371C46.1008 7.3667 46.0996 7.37984 46.096 7.39237C46.0923 7.40491 46.0861 7.41659 46.0779 7.42675C46.0697 7.43692 46.0596 7.44535 46.0481 7.45158L44.0959 8.48719C44.0812 8.49486 44.0649 8.49894 44.0483 8.49909Z" fill="white"/>
<path id="Vector_66" d="M55.2138 4.53718C55.1959 4.53745 55.1783 4.53278 55.1629 4.52367C55.1475 4.51457 55.1349 4.5014 55.1265 4.4856C55.1203 4.47403 55.1165 4.46133 55.1152 4.44826C55.1139 4.43518 55.1153 4.42199 55.1192 4.40944C55.123 4.39689 55.1294 4.38523 55.1378 4.37515C55.1462 4.36507 55.1565 4.35675 55.1682 4.35069L57.6917 3.01155C57.7032 3.00538 57.7157 3.00156 57.7286 3.00032C57.7416 2.99908 57.7546 3.00044 57.767 3.00433C57.7794 3.00821 57.7909 3.01454 57.8008 3.02293C57.8107 3.03133 57.8188 3.04162 57.8247 3.05321C57.8309 3.06451 57.8348 3.07695 57.8362 3.08979C57.8376 3.10263 57.8364 3.11562 57.8327 3.12799C57.829 3.14037 57.8229 3.15188 57.8147 3.16186C57.8065 3.17185 57.7964 3.1801 57.785 3.18613L55.2614 4.52726C55.2466 4.53432 55.2303 4.53772 55.2138 4.53718Z" fill="white"/>
<path id="Vector_67" d="M58.2512 5.98745H56.2316C56.2053 5.98745 56.18 5.977 56.1614 5.9584C56.1428 5.9398 56.1324 5.91457 56.1324 5.88826C56.1324 5.86195 56.1428 5.83672 56.1614 5.81812C56.18 5.79951 56.2053 5.78906 56.2316 5.78906H58.2512C58.2775 5.78906 58.3028 5.79951 58.3214 5.81812C58.34 5.83672 58.3504 5.86195 58.3504 5.88826C58.3504 5.90129 58.3478 5.91419 58.3429 5.92622C58.3379 5.93826 58.3306 5.94919 58.3214 5.9584C58.3121 5.96761 58.3012 5.97492 58.2892 5.9799C58.2771 5.98489 58.2642 5.98745 58.2512 5.98745Z" fill="white"/>
<path id="Vector_68" d="M59.4158 5.98745H58.9674C58.9411 5.98745 58.9159 5.977 58.8973 5.9584C58.8787 5.9398 58.8682 5.91457 58.8682 5.88826C58.8682 5.86195 58.8787 5.83672 58.8973 5.81812C58.9159 5.79951 58.9411 5.78906 58.9674 5.78906H59.4158C59.4419 5.78957 59.4669 5.80018 59.4854 5.81868C59.5039 5.83717 59.5145 5.86211 59.515 5.88826C59.515 5.91457 59.5045 5.9398 59.4859 5.9584C59.4673 5.977 59.4421 5.98745 59.4158 5.98745Z" fill="white"/>
<path id="Vector_69" d="M60.9434 5.98745H60.1181C60.0917 5.98745 60.0665 5.977 60.0479 5.9584C60.0293 5.9398 60.0189 5.91457 60.0189 5.88826C60.0189 5.86195 60.0293 5.83672 60.0479 5.81812C60.0665 5.79951 60.0917 5.78906 60.1181 5.78906H60.9394C60.9657 5.78906 60.9909 5.79951 61.0095 5.81812C61.0281 5.83672 61.0386 5.86195 61.0386 5.88826C61.0386 5.91389 61.0287 5.93854 61.011 5.95703C60.9932 5.97553 60.969 5.98643 60.9434 5.98745Z" fill="white"/>
<path id="Vector_70" d="M60.9434 10.481C60.9274 10.4811 60.9116 10.477 60.8977 10.4691L55.2118 7.45158C55.1887 7.43896 55.1713 7.4178 55.1636 7.3926C55.1558 7.3674 55.1581 7.34016 55.1702 7.31668C55.1764 7.30519 55.1848 7.29505 55.195 7.28683C55.2051 7.27862 55.2168 7.27249 55.2294 7.2688C55.2419 7.26511 55.255 7.26394 55.268 7.26535C55.281 7.26675 55.2936 7.27071 55.3051 7.277L60.991 10.2945C61.0105 10.3051 61.0258 10.3218 61.0347 10.342C61.0436 10.3623 61.0455 10.3849 61.04 10.4064C61.0345 10.4278 61.022 10.4468 61.0045 10.4603C60.987 10.4739 60.9655 10.4811 60.9434 10.481Z" fill="white"/>
</g>
<g id="character-3">
<path id="Vector_71" d="M66.3277 57.0953L65.923 61.3072L66.9764 61.4679L67.4347 57.5754L66.3277 57.0953Z" fill="#DD8C6A"/>
<path id="Vector_72" d="M66.9606 61.3032C67.0034 61.3082 67.0427 61.3292 67.0706 61.3619C67.0986 61.3947 67.1132 61.4368 67.1114 61.4798C67.0978 61.9153 67.0607 62.3498 67.0003 62.7813C66.9467 62.9082 63.5681 62.69 63.5681 62.69C63.449 62.6027 63.5165 62.5115 63.582 62.317C63.8161 61.9917 64.6473 61.9937 65.1413 61.8865C65.7266 61.7576 65.6889 61.4362 65.796 61.2675C65.8134 61.2409 65.8378 61.2196 65.8665 61.2059C65.8952 61.1923 65.9271 61.1868 65.9587 61.1902L66.9606 61.3032Z" fill="white"/>
<path id="Vector_73" d="M71.6406 37.75C71.6406 37.75 72.8488 39.8172 72.0136 41.7674L71.3113 43.0729C71.0103 43.6321 70.7453 44.2099 70.5177 44.8028L68.393 50.6634L68.4267 52.1592C68.4442 52.871 68.3911 53.5828 68.268 54.284L67.3613 59.96L65.546 59.6743L65.6472 50.4015L68.4505 37.75H71.6406Z" fill="#263238"/>
<g id="Group_4" opacity="0.2">
<path id="Vector_74" d="M71.6406 37.75C71.6406 37.75 72.8488 39.8172 72.0136 41.7674L71.3113 43.0729C71.0103 43.6321 70.7453 44.2099 70.5177 44.8028L68.393 50.6634L68.4267 52.1592C68.4442 52.871 68.3911 53.5828 68.268 54.284L67.3613 59.96L65.546 59.6743L65.6472 50.4015L68.4505 37.75H71.6406Z" fill="black"/>
</g>
<path id="Vector_75" d="M65.4607 59.3193C65.5044 59.3054 67.9486 59.6426 67.9486 59.6426L67.6014 60.3112L65.2465 60.1128L65.4607 59.3193Z" fill="white"/>
<path id="Vector_76" d="M64.9846 30.0167L63.7664 32.9688L59.9672 34.0619L60.4751 34.917C60.4751 34.917 63.82 34.7186 64.814 33.9687C65.0362 33.8001 66.5499 30.596 66.5499 30.596L64.9846 30.0167Z" fill="#DD8C6A"/>
<path id="Vector_77" d="M59.9672 34.0619L58.755 34.1492C58.755 34.1492 57.9516 34.917 58.1004 35.0856C58.2491 35.2542 58.8245 35.8157 58.8245 35.8157C59.122 35.6478 59.4341 35.507 59.7569 35.3951C60.0049 35.3495 60.4751 34.913 60.4751 34.913L59.9672 34.0619Z" fill="#DD8C6A"/>
<g id="freepik--Character--inject-282">
<path id="Vector_78" d="M68.5914 43.3586C68.5914 43.3586 65.8139 48.1676 65.6929 48.8461C65.6214 49.2429 65.919 49.4254 66.1571 51.5522C66.3317 53.0877 66.4329 56.2699 66.3852 56.5755L64.7187 56.9147C64.7187 56.9147 62.9154 50.8082 62.6118 49.354C62.0305 46.5765 65.8774 37.7183 65.8774 37.7183L70.7638 37.75L70.855 39.3629C70.9344 40.7517 69.9821 43.1939 68.5914 43.3586Z" fill="#263238"/>
<path id="Vector_79" d="M65.0024 56.6152L65.3615 58.5852L66.4745 58.2797L66.1253 56.1708L65.0024 56.6152Z" fill="#DD8C6A"/>
<path id="Vector_80" d="M66.04 58.0039C66.1496 57.9594 66.2707 57.9515 66.3852 57.9816C66.4996 58.0116 66.6012 58.0779 66.6749 58.1706C66.9067 58.4456 67.1208 58.7352 67.3157 59.0375C67.3573 59.1685 64.4152 61.4381 64.4152 61.4381C64.2703 61.45 64.1096 61.1881 64.183 61.1048C64.3517 60.6763 64.7961 60.1783 64.9905 59.716C65.1179 59.3532 65.2109 58.9793 65.2683 58.5991C65.2834 58.5071 65.3221 58.4207 65.3805 58.348C65.4389 58.2754 65.515 58.219 65.6016 58.1844L66.04 58.0039Z" fill="white"/>
<path id="Vector_81" d="M64.1891 56.4366C64.2268 56.4108 66.8237 56.0299 66.8237 56.0299L66.7761 56.758L64.1831 57.256L64.1891 56.4366Z" fill="white"/>
<path id="Vector_82" d="M66.4924 24.5133C66.4204 24.7637 66.3219 25.0058 66.1987 25.2355C66.2336 25.2763 66.2792 25.3067 66.3303 25.3232C66.3815 25.3396 66.4362 25.3416 66.4884 25.3287L66.4924 24.5133Z" fill="#DF5753"/>
<path id="Vector_83" d="M66.4765 24.1443C66.4011 24.1443 66.3416 24.2355 66.3396 24.3427C66.3376 24.4498 66.3991 24.5411 66.4745 24.5411C66.5499 24.5411 66.6114 24.4498 66.6114 24.3427C66.6114 24.2355 66.5519 24.1443 66.4765 24.1443Z" fill="#263238"/>
<path id="Vector_84" d="M70.0178 25.8604C69.8492 26.7015 69.6766 28.2411 70.2638 28.8104C70.2638 28.8104 70.0277 29.6635 68.4624 29.6556C66.7403 29.6556 67.645 28.7966 67.645 28.7966C68.5854 28.5763 68.5656 27.88 68.4049 27.2233L70.0178 25.8604Z" fill="#E58A7B"/>
<path id="Vector_85" d="M70.488 23.944C70.3928 25.3506 70.3828 25.9477 69.6686 26.6659C68.5933 27.7471 66.8911 27.3246 66.5598 25.9259C66.2642 24.6582 66.288 22.8409 67.6728 22.2894C68.6548 21.8926 69.9523 22.091 70.3511 23.0829C70.4613 23.3559 70.5081 23.6503 70.488 23.944Z" fill="#DD8C6A"/>
<path id="Vector_86" d="M70.7617 28.9077C70.7738 28.8247 70.753 28.7403 70.7037 28.6724C70.6544 28.6046 70.5805 28.5587 70.4979 28.5446C69.863 28.4375 68.4167 28.2153 67.6867 28.3125C67.145 28.3859 67.0022 28.6993 66.9764 28.9592C66.9692 29.0422 66.9949 29.1247 67.048 29.1889C67.1011 29.2531 67.1772 29.2939 67.2601 29.3025H67.3117L70.4582 29.1755C70.5317 29.172 70.6019 29.1436 70.6571 29.0949C70.7122 29.0462 70.7492 28.9802 70.7617 28.9077Z" fill="white"/>
<path id="Vector_87" opacity="0.6" d="M70.7617 28.9077C70.7738 28.8247 70.753 28.7403 70.7037 28.6724C70.6544 28.6046 70.5805 28.5587 70.4979 28.5446C69.863 28.4375 68.4167 28.2153 67.6867 28.3125C67.145 28.3859 67.0022 28.6993 66.9764 28.9592C66.9692 29.0422 66.9949 29.1247 67.048 29.1889C67.1011 29.2531 67.1772 29.2939 67.2601 29.3025H67.3117L70.4582 29.1755C70.5317 29.172 70.6019 29.1436 70.6571 29.0949C70.7122 29.0462 70.7492 28.9802 70.7617 28.9077Z" fill="black"/>
<path id="Vector_88" d="M71.8946 28.0625L72.9223 25.5926L71.4383 21.3827L72.4303 21.2656C72.4303 21.2656 74.2515 24.7355 74.2614 25.9814C74.2614 26.2611 72.6445 29.4176 72.6445 29.4176L71.8946 28.0625Z" fill="#DD8C6A"/>
<path id="Vector_89" d="M70.4523 28.8819C70.4523 28.2768 72.4739 26.4734 72.4739 26.4734C73.1009 26.966 73.5896 27.6126 73.8924 28.3502L73.936 28.4593C73.936 28.4593 72.9441 30.2448 72.1703 30.1556C71.3589 30.0663 70.4523 29.6397 70.4523 28.8819Z" fill="white"/>
<path id="Vector_90" opacity="0.1" d="M70.4523 28.8819C70.4523 28.2768 72.4739 26.4734 72.4739 26.4734C73.1009 26.966 73.5896 27.6126 73.8924 28.3502L73.936 28.4593C73.936 28.4593 72.9441 30.2448 72.1703 30.1556C71.3589 30.0663 70.4523 29.6397 70.4523 28.8819Z" fill="black"/>
<path id="Vector_91" d="M65.5421 28.382C65.5421 28.382 65.7087 30.6833 65.8674 37.7064L71.6327 37.7382C71.5593 35.7086 71.7815 33.7961 72.583 30.2231C72.6383 29.9801 72.6411 29.7282 72.5914 29.4841C72.5417 29.24 72.4406 29.0093 72.2947 28.8073C72.1489 28.6053 71.9617 28.4367 71.7456 28.3128C71.5295 28.1888 71.2895 28.1123 71.0415 28.0884C70.8828 28.0725 70.7221 28.0606 70.5634 28.0507C69.6919 27.9826 68.8167 27.9779 67.9446 28.0368C66.8177 28.13 65.5421 28.382 65.5421 28.382Z" fill="white"/>
<path id="Vector_92" d="M64.3458 29.9572C64.0462 31.3003 63.6812 31.8578 63.6812 31.8578L65.8099 33.1076C65.8099 33.1076 67.3177 29.4255 67.0518 28.6875C66.8892 28.2371 66.4031 28.2193 66.042 28.3423C66.042 28.3423 66.0321 28.3423 66.0281 28.3423C65.3814 28.0824 64.6076 28.7966 64.3458 29.9572Z" fill="white"/>
<path id="Vector_93" d="M67.0618 22.5869C66.9001 23.4184 67.0611 24.2803 67.5121 24.9974C67.7978 25.4457 68.0319 25.9259 68.3374 26.3345C68.4345 26.4662 68.5576 26.5765 68.6992 26.6585C68.8407 26.7404 68.9977 26.7923 69.1602 26.811C69.3227 26.8296 69.4873 26.8145 69.6437 26.7667C69.8002 26.7188 69.9451 26.6393 70.0694 26.5329C70.6177 26.0633 70.9616 25.3987 71.0282 24.6799C71.0949 23.9611 70.8791 23.2446 70.4265 22.6821C70.1165 22.276 69.6602 22.0069 69.1548 21.9322C68.7237 21.9202 68.2949 22 67.897 22.1663C67.5954 22.2814 67.3633 22.4837 67.0618 22.5869Z" fill="#263238"/>
<path id="Vector_94" d="M67.8395 24.7177C67.8376 24.9845 67.7598 25.2453 67.6153 25.4696C67.4169 25.7592 67.1967 25.6481 67.1411 25.3366C67.0915 25.0648 67.1411 24.5808 67.3792 24.3943C67.6173 24.2078 67.8395 24.4022 67.8395 24.7177Z" fill="#DD8C6A"/>
<path id="Vector_95" opacity="0.2" d="M65.7048 33.0084L66.6114 30.4293L66.2146 33.2405C66.0316 33.196 65.8586 33.1172 65.7048 33.0084Z" fill="black"/>
<path id="Vector_96" d="M71.4383 21.3906L70.7677 20.3768C70.7677 20.3768 70.8867 19.2698 71.1109 19.2857C71.3351 19.3016 72.1307 19.4146 72.1307 19.4146C72.1803 19.7516 72.2593 20.0835 72.3667 20.4066C72.4818 20.6328 72.4223 21.2716 72.4223 21.2716L71.4383 21.3906Z" fill="#DD8C6A"/>
<path id="Vector_97" d="M65.9051 22.831C65.8607 22.9535 65.8637 23.0883 65.9136 23.2087C65.9636 23.3292 66.0568 23.4265 66.1749 23.4817C66.1842 23.6022 66.2189 23.7195 66.2766 23.8257C66.3343 23.9319 66.4138 24.0248 66.5098 24.0982C66.6059 24.1716 66.7164 24.2239 66.8341 24.2517C66.9517 24.2795 67.0739 24.2821 67.1927 24.2594C66.9685 24.1741 66.9328 23.8626 67.0359 23.6384C67.2244 23.2416 67.8732 22.7893 67.3296 22.3925C66.9169 22.089 66.0698 22.3588 65.9051 22.831Z" fill="#263238"/>
</g>
<path id="Vector_98" d="M66.2681 24.0173C66.3341 23.9907 66.4056 23.9804 66.4764 23.9873C66.5472 23.9942 66.6152 24.0181 66.6748 24.0569L66.6907 24.0669C66.7036 24.0716 66.7177 24.0717 66.7306 24.0669C66.7435 24.0622 66.7543 24.053 66.761 24.041C66.7677 24.0291 66.7699 24.0151 66.7672 24.0016C66.7645 23.9882 66.7571 23.9761 66.7463 23.9677C66.6725 23.9173 66.5877 23.8852 66.499 23.8742C66.4103 23.8631 66.3203 23.8734 66.2364 23.9042C66.224 23.9094 66.2136 23.9184 66.2066 23.93C66.2028 23.9366 66.2003 23.9439 66.1993 23.9515C66.1983 23.9591 66.1988 23.9668 66.2009 23.9742C66.2029 23.9816 66.2064 23.9885 66.2111 23.9946C66.2159 24.0006 66.2218 24.0056 66.2285 24.0093C66.2402 24.0169 66.2544 24.0197 66.2681 24.0173Z" fill="#263238"/>
<path id="Vector_99" d="M70.355 31.6654C70.355 31.6535 70.6586 31.1198 70.6149 30.7905C70.7026 30.7163 70.7747 30.6255 70.8271 30.5234C70.8796 30.4213 70.9113 30.3098 70.9205 30.1953C70.9472 29.9552 70.8796 29.7141 70.732 29.5228C70.8749 29.2911 70.9333 29.0171 70.8971 28.7473C70.861 28.4775 70.7325 28.2286 70.5336 28.0428C70.8887 27.6222 70.8332 26.8266 70.3511 26.5647C70.5057 26.4466 70.6098 26.2742 70.6422 26.0823C70.6746 25.8905 70.633 25.6934 70.5257 25.5311C70.4483 25.5311 70.4503 25.4379 70.3808 25.4696C70.0793 25.6322 69.8219 25.8657 69.6309 26.1501C69.3478 25.9695 69.0083 25.8989 68.6767 25.9517C68.5951 26.0456 68.5422 26.1609 68.5242 26.2839C68.5062 26.4069 68.5238 26.5325 68.5749 26.6459C68.6261 26.7592 68.7086 26.8555 68.8128 26.9234C68.9169 26.9913 69.0384 27.0279 69.1627 27.029C69.0635 27.5765 69.3611 28.1777 69.9186 28.255C69.6686 28.8641 69.8511 29.2966 70.4602 29.5406C70.1943 29.8818 70.0793 30.4254 70.3134 30.7905C70.2147 30.8788 70.135 30.9862 70.079 31.1063C70.0231 31.2263 69.9922 31.3565 69.988 31.4888C69.9464 31.9015 70.355 31.6654 70.355 31.6654Z" fill="#263238"/>
<path id="Vector_100" d="M70.1249 31.4849C69.9925 31.4486 69.8514 31.4613 69.7277 31.5208C69.604 31.5803 69.5059 31.6825 69.4515 31.8086C69.3972 31.9347 69.3902 32.0762 69.4319 32.207C69.4737 32.3378 69.5612 32.4491 69.6785 32.5205C69.6497 32.4925 69.6277 32.4583 69.6142 32.4205C69.6007 32.3827 69.596 32.3423 69.6006 32.3024C69.6052 32.2625 69.619 32.2242 69.6407 32.1905C69.6625 32.1567 69.6917 32.1284 69.7261 32.1078C69.6839 32.1501 69.6547 32.2036 69.6421 32.262C69.6294 32.3204 69.6338 32.3812 69.6547 32.4371C69.7102 32.5236 69.7712 32.6064 69.8372 32.6851C69.8692 32.7251 69.8893 32.7733 69.8953 32.8241C69.9012 32.875 69.8928 32.9265 69.871 32.9728C70.0345 32.8997 70.1808 32.793 70.3004 32.6597C70.42 32.5265 70.5103 32.3695 70.5654 32.1991C70.6288 32.0385 70.6288 31.8597 70.5654 31.6991C70.5265 31.6193 70.462 31.5548 70.3821 31.5159C70.3023 31.4771 70.2117 31.4661 70.1249 31.4849Z" fill="#263238"/>
<path id="Vector_101" d="M70.1249 31.2169L69.5456 31.451C69.4537 31.4782 69.3574 31.4876 69.2619 31.4788C69.0725 31.2467 68.9808 30.95 69.006 30.6515C69.0503 30.3296 69.207 30.0338 69.4484 29.8163C69.6616 29.9581 69.8563 30.1261 70.0277 30.3162C70.122 30.4135 70.2228 30.5043 70.3293 30.588C70.3775 30.6413 70.407 30.7089 70.4134 30.7805C70.4199 30.852 70.4029 30.9238 70.365 30.9848C70.2904 31.1004 70.1854 31.1931 70.0615 31.2526C70.0674 31.215 70.119 31.2467 70.1249 31.2169Z" fill="white"/>
<path id="Vector_102" d="M70.5396 31.3915L71.0415 31.7645C71.1226 31.8149 71.213 31.8486 71.3073 31.8637C71.5495 31.6877 71.7138 31.4245 71.7656 31.1296C71.8051 30.8071 71.7292 30.4811 71.5514 30.2091C71.309 30.2921 71.0777 30.4047 70.8629 30.5444C70.747 30.6136 70.6271 30.6758 70.5038 30.7309C70.4448 30.7699 70.3997 30.8267 70.3751 30.893C70.3505 30.9594 70.3476 31.0318 70.367 31.0999C70.4104 31.2307 70.4885 31.3473 70.5931 31.4372C70.5971 31.4054 70.5376 31.4233 70.5396 31.3915Z" fill="white"/>
<path id="Vector_103" opacity="0.4" d="M70.1249 31.2169L69.5456 31.451C69.4537 31.4782 69.3574 31.4876 69.2619 31.4788C69.0725 31.2467 68.9808 30.95 69.006 30.6515C69.0503 30.3296 69.207 30.0338 69.4484 29.8163C69.6616 29.9581 69.8563 30.1261 70.0277 30.3162C70.122 30.4135 70.2228 30.5043 70.3293 30.588C70.3775 30.6413 70.407 30.7089 70.4134 30.7805C70.4199 30.852 70.4029 30.9238 70.365 30.9848C70.2904 31.1004 70.1854 31.1931 70.0615 31.2526C70.0674 31.215 70.119 31.2467 70.1249 31.2169Z" fill="black"/>
<path id="Vector_104" opacity="0.4" d="M70.5396 31.3915L71.0415 31.7645C71.1226 31.8149 71.213 31.8486 71.3073 31.8637C71.5495 31.6877 71.7138 31.4245 71.7656 31.1296C71.8051 30.8071 71.7292 30.4811 71.5514 30.2091C71.309 30.2921 71.0777 30.4047 70.8629 30.5444C70.747 30.6136 70.6271 30.6758 70.5038 30.7309C70.4448 30.7699 70.3997 30.8267 70.3751 30.893C70.3505 30.9594 70.3476 31.0318 70.367 31.0999C70.4104 31.2307 70.4885 31.3473 70.5931 31.4372C70.5971 31.4054 70.5376 31.4233 70.5396 31.3915Z" fill="black"/>
</g>
<g id="character-2">
<path id="Vector_105" d="M45.9113 54.3059C45.7919 54.1448 45.644 54.0069 45.4748 53.8992C45.4748 53.8992 45.0622 53.2108 45.2209 51.4927L44.5444 51.1197C44.429 51.0589 44.2978 51.0349 44.1683 51.0508C44.0389 51.0668 43.9174 51.122 43.8202 51.209C43.7924 51.2325 43.7689 51.2607 43.7508 51.2923C43.6702 51.4574 43.5994 51.6269 43.5385 51.8002C43.3456 52.3935 43.188 52.9977 43.0663 53.6096L43.1953 53.6473L43.5365 52.5224C43.6476 52.1395 43.8361 52.6712 43.8143 53.1076C43.7925 53.5441 43.8599 54.0361 44.7011 54.2722C45.6792 54.544 46.1017 54.6114 45.9113 54.3059Z" fill="#2E353A"/>
<path id="Vector_106" d="M45.1554 51.6693L44.2706 51.3856L44.215 50.0941L44.3777 48.6022L45.8597 48.7668L45.4391 50.5048L45.1554 51.6693Z" fill="#FFC3BD"/>
<path id="Vector_107" d="M45.2823 50.8698C45.2823 50.8698 45.2427 51.6633 45.2823 52.562C45.2747 53.0189 45.3556 53.473 45.5204 53.8992C45.5204 53.8992 44.8558 53.8496 44.6911 53.3516C44.5265 52.8537 44.5245 51.3022 43.8599 51.215C43.9383 51.1209 44.0268 51.0358 44.1237 50.961C44.2725 50.842 45.2823 50.8698 45.2823 50.8698Z" fill="#FFC3BD"/>
<path id="Vector_108" d="M52.1011 7.55082L52.6745 8.00117L53.3728 7.71152L52.738 7.20958C52.738 7.20958 52.3511 6.98143 52.1011 7.55082Z" fill="#FFC3BD"/>
<path id="Vector_109" d="M49.6153 7.61822C49.7077 7.54652 49.7898 7.4624 49.8593 7.36825C49.9211 7.27794 49.9491 7.1687 49.9382 7.0598C49.9273 6.9509 49.8783 6.84935 49.7998 6.77307C49.6294 6.58915 49.4344 6.42959 49.2205 6.29891C49.0479 6.06084 49.0439 5.76921 48.8455 5.55494C48.6471 5.34068 48.3039 5.4121 48.0519 5.60653C48.0519 5.60653 48.1373 6.33463 48.3376 6.63221C48.4586 6.81275 48.5519 7.06074 48.7582 7.13018C48.7662 7.12026 49.4208 7.51308 49.6153 7.61822Z" fill="#FFC3BD"/>
<path id="Vector_110" d="M48.9566 7.20956L48.2463 7.80474L49.0082 8.2293L49.8513 7.39406C49.8513 7.39406 49.6688 6.8346 48.9566 7.20956Z" fill="#FFC3BD"/>
<path id="Vector_111" d="M52.2003 7.63217C52.1066 7.56222 52.0225 7.48016 51.9503 7.38815C51.8839 7.29828 51.852 7.18755 51.8604 7.07613C51.8688 6.96471 51.9169 6.86 51.996 6.78107C52.1616 6.59294 52.3526 6.4287 52.5634 6.29302C52.728 6.05098 52.7261 5.75935 52.9205 5.53913C53.1149 5.31891 53.4581 5.38438 53.714 5.57286C53.714 5.57286 53.6466 6.30294 53.4542 6.6045C53.3371 6.789 53.2558 7.03898 53.0455 7.11238C53.0375 7.11238 52.3927 7.52107 52.2003 7.63217Z" fill="#FFC3BD"/>
<path id="Vector_112" d="M52.3808 16.3911L53.9858 18.0854C54.5393 17.4089 56.3963 14.4647 56.67 11.7924C56.7593 10.9175 56.3367 10.737 56.3367 10.737L53.1406 7.41785C52.3987 7.19961 52.4403 7.88605 52.4403 7.88605C52.4403 7.88605 54.9301 11.6892 54.8488 11.9055C54.8012 12.0285 52.3808 16.3911 52.3808 16.3911Z" fill="white"/>
<path id="Vector_113" opacity="0.1" d="M52.3808 16.3911L53.9858 18.0854C54.5393 17.4089 56.3963 14.4647 56.67 11.7924C56.7593 10.9175 56.3367 10.737 56.3367 10.737L53.1406 7.41785C52.3987 7.19961 52.4403 7.88605 52.4403 7.88605C52.4403 7.88605 54.9301 11.6892 54.8488 11.9055C54.8012 12.0285 52.3808 16.3911 52.3808 16.3911Z" fill="black"/>
<path id="Vector_114" opacity="0.1" d="M52.3808 16.3911L53.9858 18.0854C54.5393 17.4089 56.3963 14.4647 56.67 11.7924C56.7593 10.9175 56.3367 10.737 56.3367 10.737L53.1406 7.41785C52.3987 7.19961 52.4403 7.88605 52.4403 7.88605C52.4403 7.88605 54.9301 11.6892 54.8488 11.9055C54.8012 12.0285 52.3808 16.3911 52.3808 16.3911Z" fill="white"/>
<path id="Vector_115" d="M48.7423 16.173L48.7066 16.3357C48.5677 16.9765 47.7147 17.9129 47.0877 17.7363C46.5858 17.0201 44.7963 14.0879 44.7189 11.4017C44.6931 10.5208 45.1296 10.374 45.1296 10.374L48.7007 7.30686C49.4546 7.20965 49.4546 7.85442 49.4546 7.85442C49.4546 7.85442 46.4787 11.4255 46.5362 11.6477C46.5699 11.7747 48.7423 16.173 48.7423 16.173Z" fill="white"/>
<g id="Group_5" opacity="0.2">
<path id="Vector_116" d="M48.7423 16.173L48.7066 16.3357C48.5677 16.9765 47.7147 17.9129 47.0877 17.7363C46.5858 17.0201 44.7963 14.0879 44.7189 11.4017C44.6931 10.5208 45.1296 10.374 45.1296 10.374L48.7007 7.30686C49.4546 7.20965 49.4546 7.85442 49.4546 7.85442C49.4546 7.85442 46.4787 11.4255 46.5362 11.6477C46.5699 11.7747 48.7423 16.173 48.7423 16.173Z" fill="white"/>
</g>
<path id="Vector_117" d="M46.556 16.8892C46.931 17.5339 47.3337 18.3315 47.7206 19.0417C47.7584 19.1104 47.8122 19.1689 47.8775 19.2122C47.9428 19.2556 48.0177 19.2825 48.0956 19.2907C48.1736 19.2989 48.2523 19.2881 48.3252 19.2592C48.3981 19.2304 48.4629 19.1844 48.5142 19.1251C49.1867 18.3553 49.5319 17.2006 49.2304 16.2642C48.8336 16.0896 48.3951 15.9151 48.0063 15.7405C47.4448 16.0162 46.8794 16.3555 46.556 16.8892Z" fill="white"/>
<path id="Vector_118" opacity="0.2" d="M46.556 16.8892C46.931 17.5339 47.3337 18.3315 47.7206 19.0417C47.7584 19.1104 47.8122 19.1689 47.8775 19.2122C47.9428 19.2556 48.0177 19.2825 48.0956 19.2907C48.1736 19.2989 48.2523 19.2881 48.3252 19.2592C48.3981 19.2304 48.4629 19.1844 48.5142 19.1251C49.1867 18.3553 49.5319 17.2006 49.2304 16.2642C48.8336 16.0896 48.3951 15.9151 48.0063 15.7405C47.4448 16.0162 46.8794 16.3555 46.556 16.8892Z" fill="white"/>
<path id="Vector_119" d="M54.3925 20.0932L54.1941 20.7518C54.0652 21.4343 53.8906 22.081 53.8152 22.6901C53.7869 23.932 53.8532 25.1742 54.0136 26.406C54.0136 26.406 54.1723 29.247 54.1664 29.4394L46.6274 29.4077C46.8913 25.9556 48.6272 22.9659 48.6272 22.4858C48.6272 21.8767 48.5876 22.1763 48.0678 20.5018C48.0678 20.5018 48.0678 20.4919 48.0678 20.482C48.0678 20.4721 48.0579 20.4463 48.0499 20.4284C48.0442 20.4035 48.0369 20.379 48.0281 20.355C48.0281 20.3392 48.0281 20.3233 48.0142 20.3054L47.9567 20.107C47.8237 19.6547 47.5976 18.8413 47.3774 17.8573C47.2345 17.2105 47.5758 16.3852 48.2205 16.2404L48.3296 16.2225C48.6669 16.1789 49.0399 16.1372 49.4208 16.1194C50.2722 16.0588 51.1267 16.0588 51.9781 16.1194C52.3952 16.1478 52.8104 16.1988 53.222 16.2721C53.3529 16.292 53.5335 16.4705 53.722 16.7086C54.0793 17.1869 54.3249 17.7392 54.441 18.3248C54.557 18.9105 54.5405 19.5147 54.3925 20.0932Z" fill="white"/>
<g id="Group_6" opacity="0.2">
<path id="Vector_120" d="M54.3925 20.0932L54.1941 20.7518C54.0652 21.4343 53.8906 22.081 53.8152 22.6901C53.7869 23.932 53.8532 25.1742 54.0136 26.406C54.0136 26.406 54.1723 29.247 54.1664 29.4394L46.6274 29.4077C46.8913 25.9556 48.6272 22.9659 48.6272 22.4858C48.6272 21.8767 48.5876 22.1763 48.0678 20.5018C48.0678 20.5018 48.0678 20.4919 48.0678 20.482C48.0678 20.4721 48.0579 20.4463 48.0499 20.4284C48.0442 20.4035 48.0369 20.379 48.0281 20.355C48.0281 20.3392 48.0281 20.3233 48.0142 20.3054L47.9567 20.107C47.8237 19.6547 47.5976 18.8413 47.3774 17.8573C47.2345 17.2105 47.5758 16.3852 48.2205 16.2404L48.3296 16.2225C48.6669 16.1789 49.0399 16.1372 49.4208 16.1194C50.2722 16.0588 51.1267 16.0588 51.9781 16.1194C52.3952 16.1478 52.8104 16.1988 53.222 16.2721C53.3529 16.292 53.5335 16.4705 53.722 16.7086C54.0793 17.1869 54.3249 17.7392 54.441 18.3248C54.557 18.9105 54.5405 19.5147 54.3925 20.0932Z" fill="white"/>
</g>
<path id="Vector_121" d="M50.9326 15.3775C50.9683 15.3775 48.8792 15.3021 48.6372 15.6155C48.5498 15.721 48.5014 15.8535 48.5003 15.9905C48.5006 16.0585 48.5216 16.1247 48.5606 16.1804C48.5996 16.2361 48.6547 16.2785 48.7185 16.302C48.4467 16.4646 48.0777 16.6333 48.1234 16.9467C48.1487 17.0586 48.2078 17.1601 48.2926 17.2374C48.3773 17.3147 48.4838 17.3642 48.5975 17.3792C48.8262 17.403 49.0573 17.3787 49.276 17.3078C49.2457 17.4057 49.2472 17.5107 49.2804 17.6077C49.3135 17.7047 49.3766 17.7886 49.4605 17.8474C49.6241 17.9408 49.8099 17.9881 49.9982 17.9843C50.346 18.0018 50.6947 17.9865 51.0397 17.9387C51.1469 17.653 51.01 17.3078 50.8592 17.042C50.5041 16.4131 51.3591 15.9587 50.9326 15.3775Z" fill="white"/>
<path id="Vector_122" d="M50.9326 15.3775C50.9683 15.3775 48.8792 15.3021 48.6372 15.6155C48.5498 15.721 48.5014 15.8535 48.5003 15.9905C48.5006 16.0585 48.5216 16.1247 48.5606 16.1804C48.5996 16.2361 48.6547 16.2785 48.7185 16.302C48.4467 16.4646 48.0777 16.6333 48.1234 16.9467C48.1487 17.0586 48.2078 17.1601 48.2926 17.2374C48.3773 17.3147 48.4838 17.3642 48.5975 17.3792C48.8262 17.403 49.0573 17.3787 49.276 17.3078C49.2457 17.4057 49.2472 17.5107 49.2804 17.6077C49.3135 17.7047 49.3766 17.7886 49.4605 17.8474C49.6241 17.9408 49.8099 17.9881 49.9982 17.9843C50.346 18.0018 50.6947 17.9865 51.0397 17.9387C51.1469 17.653 51.4365 17.3316 51.2778 17.0638C50.9227 16.4349 51.3591 15.9587 50.9326 15.3775Z" fill="white"/>
<path id="Vector_123" d="M51.1667 15.3873C51.131 15.3873 53.1268 15.302 53.3688 15.6155C53.4579 15.7202 53.507 15.853 53.5077 15.9904C53.5066 16.0582 53.4852 16.1241 53.4463 16.1796C53.4074 16.2351 53.3528 16.2777 53.2895 16.3019C53.5613 16.4646 53.9283 16.6332 53.8846 16.9467C53.8589 17.0587 53.7995 17.1602 53.7144 17.2375C53.6292 17.3149 53.5225 17.3643 53.4085 17.3792C53.1798 17.4027 52.9488 17.3784 52.73 17.3077C52.7612 17.4054 52.7603 17.5105 52.7274 17.6076C52.6946 17.7047 52.6315 17.7887 52.5475 17.8474C52.3833 17.9409 52.1968 17.9882 52.0079 17.9843C51.6607 18.0018 51.3126 17.9866 50.9683 17.9386C50.8611 17.6529 50.998 17.3077 51.1468 17.0419C51.502 16.413 50.7401 15.9686 51.1667 15.3873Z" fill="white"/>
<path id="Vector_124" d="M50.8036 17.7581L51.6071 18.8214L52.1031 17.7581H50.8036Z" fill="white"/>
<path id="Vector_125" d="M48.413 12.3103C48.211 12.4412 48.0292 12.601 47.8734 12.7845C47.7957 12.8769 47.7388 12.985 47.7066 13.1014C47.6745 13.2178 47.6677 13.3398 47.6869 13.459C47.71 13.5773 47.7739 13.6838 47.8674 13.7599C47.9609 13.836 48.0782 13.8769 48.1987 13.8756C48.0241 14.1097 47.7067 14.4291 47.6472 14.7148C47.6093 14.856 47.6172 15.0056 47.6696 15.1421C47.722 15.2786 47.8162 15.395 47.9388 15.4747C48.7562 15.3913 49.5795 15.3437 50.3949 15.2604C50.4068 14.8398 50.4604 14.4668 50.4703 14.0502C49.9426 13.3519 49.145 12.8063 48.413 12.3103Z" fill="#263238"/>
<path id="Vector_126" d="M52.8887 12.3103C53.0903 12.4417 53.2721 12.6014 53.4283 12.7845C53.5057 12.8771 53.5623 12.9852 53.5945 13.1016C53.6267 13.2179 53.6336 13.3398 53.6148 13.459C53.5917 13.5773 53.5278 13.6838 53.4343 13.7599C53.3408 13.836 53.2235 13.8769 53.103 13.8756C53.2776 14.1097 53.595 14.4291 53.6545 14.7148C53.6925 14.8562 53.6845 15.0061 53.6317 15.1427C53.5789 15.2792 53.4841 15.3955 53.3609 15.4747C52.5455 15.3913 51.7222 15.3437 50.9068 15.2604C50.8949 14.8398 50.8413 14.4668 50.8294 14.0502C51.3651 13.3519 52.1626 12.8063 52.8887 12.3103Z" fill="#263238"/>
<path id="Vector_127" d="M50.1985 13.3162C50.2997 14.1097 50.3632 15.5441 49.7839 16.0302C50.2164 16.6253 50.7758 16.9705 51.4028 17.6292C52.0852 16.5936 52.2102 16.1849 52.2102 16.1849C51.3532 15.9211 51.4166 15.2783 51.615 14.6811L50.1985 13.3162Z" fill="#FFC3BD"/>
<path id="Vector_128" opacity="0.2" d="M50.3532 13.4648C50.3335 13.9297 50.4147 14.3933 50.5913 14.8238C50.7143 15.1214 51.0952 15.2742 51.488 15.3297C51.494 15.1088 51.5334 14.8901 51.6051 14.681L50.3532 13.4648Z" fill="black"/>
<path id="Vector_129" d="M49.0201 12.2606C49.3177 13.5363 49.4069 14.0799 50.1727 14.6413C51.3155 15.4706 52.8153 14.8397 52.9106 13.4966C52.9939 12.3062 52.4939 10.4136 51.1548 10.112C50.8586 10.0442 50.5501 10.0532 50.2583 10.1379C49.9665 10.2227 49.7013 10.3805 49.4875 10.5964C49.2738 10.8123 49.1187 11.0792 49.0369 11.3718C48.9551 11.6644 48.9493 11.9731 49.0201 12.2685V12.2606Z" fill="#FFC3BD"/>
<path id="Vector_130" d="M50.012 9.76886C50.8989 9.05664 51.7976 9.42763 52.2678 9.71331C52.503 9.85683 52.7053 10.0483 52.8615 10.2753C53.0178 10.5023 53.1244 10.7597 53.1744 11.0306C53.2121 11.2429 53.1228 11.723 52.7122 11.8242C52.6157 11.5739 52.4722 11.3442 52.2896 11.1477C52.0039 10.8878 51.4524 10.5525 51.2222 10.6061C50.9762 11.0802 50.5834 11.9611 49.891 12.1258C49.3693 12.2488 49.9029 14.9033 48.8415 13.8002C47.5718 12.0623 48.2345 11.2211 48.6114 10.5287C48.9883 9.83632 50.012 9.76886 50.012 9.76886Z" fill="#263238"/>
<path id="Vector_131" d="M52.0872 13.5542C52.0927 13.5507 52.097 13.5455 52.0995 13.5395C52.102 13.5335 52.1025 13.5268 52.1011 13.5205C52.0992 13.5127 52.0945 13.506 52.0879 13.5016C52.0813 13.4972 52.0732 13.4954 52.0654 13.4966C51.9367 13.5258 51.8029 13.5241 51.675 13.4916C51.5471 13.4592 51.4287 13.397 51.3294 13.3102C51.3231 13.3044 51.315 13.3013 51.3065 13.3013C51.2981 13.3013 51.2899 13.3044 51.2837 13.3102C51.2781 13.3161 51.275 13.3239 51.275 13.332C51.275 13.3401 51.2781 13.3479 51.2837 13.3538C51.3902 13.4484 51.518 13.5159 51.6561 13.5505C51.7943 13.585 51.9388 13.5856 52.0773 13.5522L52.0872 13.5542Z" fill="#263238"/>
<path id="Vector_132" d="M52.236 12.9729C52.3023 12.9727 52.3679 12.9583 52.4281 12.9306C52.4883 12.9028 52.5419 12.8625 52.5852 12.8122C52.3734 12.6477 52.1845 12.4555 52.0237 12.2408L52.236 12.9729Z" fill="#ED893E"/>
<path id="Vector_133" d="M48.8097 13.334C48.8461 13.4547 48.9061 13.567 48.9861 13.6643C49.0661 13.7617 49.1646 13.8423 49.276 13.9014C49.5735 14.0522 49.7898 13.8042 49.764 13.4887C49.7402 13.205 49.5656 12.7825 49.2323 12.7587C49.1759 12.756 49.1194 12.7645 49.0663 12.7838C49.0132 12.803 48.9644 12.8325 48.9227 12.8707C48.881 12.9089 48.8473 12.9549 48.8235 13.0062C48.7997 13.0574 48.7862 13.1129 48.7839 13.1693C48.7826 13.2253 48.7914 13.2811 48.8097 13.334Z" fill="#FFC3BD"/>
<path id="Vector_134" d="M48.0836 20.121C48.1035 20.1944 48.1233 20.2579 48.1392 20.3194C48.1194 20.2598 48.1015 20.1964 48.0817 20.121H48.0836Z" fill="white"/>
<path id="Vector_135" d="M54.6504 52.2684L53.6525 52.2268L53.2776 50.6357L53.0078 49.1596L54.4759 48.8938L54.5691 50.6793L54.6504 52.2684Z" fill="#FFC3BD"/>
<path id="Vector_136" d="M56.1503 54.1771C55.9889 54.0562 55.8067 53.9661 55.6127 53.9112C55.6127 53.9112 55.0175 53.3696 54.6842 51.6773L53.9303 51.5126C53.8024 51.4875 53.6699 51.502 53.5505 51.5541C53.431 51.6062 53.3303 51.6935 53.2617 51.8043C53.2415 51.8353 53.2267 51.8695 53.2181 51.9055C53.1879 52.0867 53.1687 52.2695 53.1605 52.453C53.144 53.0767 53.1652 53.7008 53.224 54.3219H53.3589V53.1454C53.3589 52.7486 53.6882 53.203 53.7914 53.6275C53.8946 54.0521 54.0989 54.5024 54.9818 54.4885C55.9916 54.4707 56.4142 54.4151 56.1503 54.1771Z" fill="#2E353A"/>
<path id="Vector_137" d="M54.5235 51.0741C54.5235 51.0741 54.712 51.8458 54.9996 52.6989C55.1233 53.1382 55.3301 53.5497 55.6087 53.9111C55.6087 53.9111 54.96 54.052 54.6584 53.6234C54.3568 53.1949 53.9144 51.707 53.2538 51.8121C53.3011 51.6999 53.361 51.5934 53.4323 51.4947C53.5474 51.336 54.5235 51.0741 54.5235 51.0741Z" fill="#FFC3BD"/>
<path id="Vector_138" d="M54.7715 39.4444L54.5493 50.1933L53.228 50.3302C52.5926 47.8063 52.1764 45.2321 51.9841 42.6365C51.9305 41.7478 52.1428 40.7141 52.0456 40.0098C51.9583 39.3948 51.7143 39.0179 51.371 37.6172C50.9564 35.9329 50.5239 33.6732 50.635 31.9134C50.635 31.9134 48.8296 30.0287 49.2899 27.4595L50.8989 27.033L53.2637 26.4021H54.0077L54.0235 26.7156L54.7715 39.4444Z" fill="#263238"/>
<g id="Group_7" opacity="0.1">
<path id="Vector_139" d="M54.7715 39.4444L54.5493 50.1933L53.228 50.3302C52.5926 47.8063 52.1764 45.2321 51.9841 42.6365C51.9305 41.7478 52.1428 40.7141 52.0456 40.0098C51.9583 39.3948 51.7143 39.0179 51.371 37.6172C50.9564 35.9329 50.5239 33.6732 50.635 31.9134C50.635 31.9134 48.8296 30.0287 49.2899 27.4595L50.8989 27.033L53.2637 26.4021H53.9283L53.9442 26.7156L54.7715 39.4444Z" fill="black"/>
</g>
<path id="Vector_140" d="M51.8789 26.8881L48.8415 39.7955L45.5601 50.0326L44.2468 49.7965C44.3605 47.1929 44.6997 44.6042 45.2606 42.0592C45.4589 41.1902 45.9609 40.2598 46.068 39.5575C46.1613 38.9424 46.0363 38.504 46.1057 37.0716C46.189 35.3376 46.4192 33.0482 47.0282 31.3956C47.0282 31.3956 45.8379 29.0724 47.0104 26.7433L51.8789 26.8881Z" fill="#263238"/>
<path id="Vector_141" d="M54.0453 27.0865L51.7896 27.263L47.0103 26.7452L47.177 26.3762L53.2656 26.402L54.0076 26.406H54.0156L54.0255 26.7194L54.0453 27.0865Z" fill="#263238"/>
<path id="Vector_142" d="M51.746 9.63988H50.0001C50.1732 9.52541 50.3042 9.35752 50.3731 9.16176C50.4723 8.87012 50.5477 8.84235 50.5933 8.51103C50.6303 8.25476 50.6496 7.99623 50.6508 7.7373C50.6513 7.38664 50.6039 7.03756 50.51 6.69971H51.2302C51.1379 7.03726 51.0899 7.38538 51.0873 7.73532C51.0952 8.22363 51.1899 8.70665 51.367 9.16176C51.4383 9.35795 51.5712 9.52572 51.746 9.63988Z" fill="white"/>
<path id="Vector_143" opacity="0.2" d="M51.2361 6.69971C51.2063 6.87032 51.1726 7.02507 51.1369 7.17188C51.0296 7.64449 50.8467 8.09668 50.5953 8.51103C50.6323 8.25476 50.6515 7.99623 50.6528 7.7373C50.6532 7.38664 50.6058 7.03756 50.512 6.69971H51.2361Z" fill="black"/>
<path id="Vector_144" d="M49.653 4.67812L49.4248 4.95983L49.3098 4.82493C49.1509 4.66632 48.9388 4.5723 48.7146 4.56106H48.663C48.6147 4.56826 48.5682 4.58493 48.5263 4.61012C48.4845 4.63532 48.448 4.66854 48.419 4.70788C48.3733 4.76695 48.3397 4.83433 48.3198 4.90627C48.314 4.92649 48.3094 4.94702 48.3059 4.96777C48.2824 5.12552 48.2994 5.28666 48.3555 5.43597C48.3891 5.56524 48.4612 5.68126 48.5621 5.76875C48.6631 5.85623 48.7882 5.91106 48.9209 5.926H49.0836V6.31088H48.9209C48.5578 6.31088 48.2206 6.02917 48.0579 5.5927C48.0579 5.56295 48.0381 5.53319 48.0301 5.50541C47.9695 5.32819 47.9516 5.13916 47.9778 4.95369C48.004 4.76823 48.0736 4.59156 48.1809 4.43806C48.2412 4.35483 48.3197 4.28651 48.4105 4.23836C48.5013 4.19021 48.6019 4.16351 48.7047 4.16031C48.8461 4.15915 48.9861 4.18824 49.1153 4.24562C49.2721 4.31339 49.4138 4.41188 49.532 4.53527L49.653 4.67812Z" fill="white"/>
<path id="Vector_145" opacity="0.2" d="M49.1193 4.25352C49.1121 4.27365 49.1006 4.29194 49.0856 4.30709C49.0371 4.3508 48.9804 4.38451 48.9189 4.40628C48.8291 4.44684 48.7445 4.49813 48.667 4.55905C48.6186 4.56624 48.5722 4.58291 48.5303 4.6081C48.4884 4.6333 48.4519 4.66652 48.4229 4.70586C48.3634 4.78498 48.3245 4.87772 48.3098 4.97567C48.2548 5.06694 48.2103 5.1641 48.1769 5.26532C48.1559 5.36068 48.106 5.44725 48.0341 5.51331C47.9365 5.21622 47.9542 4.89329 48.0837 4.60864C48.1112 4.55081 48.1452 4.49625 48.1849 4.44596C48.2451 4.36273 48.3237 4.29441 48.4145 4.24626C48.5053 4.19812 48.6059 4.17142 48.7086 4.16821H48.7642C48.8867 4.17492 49.0071 4.20382 49.1193 4.25352Z" fill="white"/>
<path id="Vector_146" opacity="0.3" d="M48.7641 4.16623C48.7651 4.17014 48.7651 4.17422 48.7641 4.17813C48.7507 4.23354 48.7262 4.28565 48.6921 4.33134C48.658 4.37702 48.615 4.41534 48.5657 4.44398C48.4461 4.52383 48.3109 4.57726 48.169 4.60071C48.1439 4.60268 48.1187 4.60268 48.0936 4.60071C48.1211 4.54288 48.1551 4.48831 48.1947 4.43803C48.255 4.35479 48.3336 4.28648 48.4244 4.23833C48.5152 4.19018 48.6158 4.16348 48.7185 4.16028L48.7641 4.16623Z" fill="white"/>
<path id="Vector_147" opacity="0.2" d="M48.9566 5.93392C48.9295 5.97162 48.89 5.99861 48.8451 6.01021C48.8001 6.02181 48.7525 6.01728 48.7106 5.99741C48.6055 5.95835 48.5112 5.89477 48.4357 5.81196C48.3601 5.72914 48.3054 5.62948 48.2761 5.52127C48.2244 5.31921 48.2411 5.1057 48.3237 4.91418C48.3179 4.93441 48.3133 4.95494 48.3098 4.97569C48.2863 5.13343 48.3034 5.29458 48.3594 5.44389C48.3931 5.57316 48.4651 5.68918 48.5661 5.77667C48.667 5.86415 48.7921 5.91898 48.9249 5.93392H48.9566Z" fill="black"/>
<path id="Vector_148" d="M52.1408 4.67812L52.369 4.95983L52.484 4.82493C52.6429 4.66632 52.855 4.5723 53.0792 4.56106H53.1308C53.1791 4.56826 53.2256 4.58493 53.2674 4.61012C53.3093 4.63532 53.3458 4.66854 53.3748 4.70788C53.4204 4.76695 53.4541 4.83433 53.474 4.90627C53.4807 4.92624 53.4854 4.94685 53.4879 4.96777C53.5114 5.12552 53.4943 5.28666 53.4383 5.43597C53.4046 5.56524 53.3326 5.68126 53.2316 5.76875C53.1307 5.85623 53.0056 5.91106 52.8729 5.926H52.7102V6.31088H52.8729C53.2359 6.31088 53.5732 6.02917 53.7359 5.5927L53.7656 5.50541C53.826 5.32803 53.8436 5.13892 53.817 4.95345C53.7905 4.76798 53.7205 4.5914 53.6129 4.43806C53.5526 4.35483 53.474 4.28651 53.3833 4.23836C53.2925 4.19021 53.1918 4.16351 53.0891 4.16031C52.9477 4.15915 52.8077 4.18824 52.6784 4.24562C52.5216 4.31339 52.38 4.41188 52.2618 4.53527L52.1408 4.67812Z" fill="white"/>
<path id="Vector_149" opacity="0.2" d="M52.6744 4.25352C52.6816 4.27365 52.6931 4.29194 52.7082 4.30709C52.7566 4.3508 52.8133 4.38451 52.8748 4.40628C52.9647 4.44684 53.0493 4.49813 53.1268 4.55905C53.1751 4.56624 53.2216 4.58291 53.2634 4.6081C53.3053 4.6333 53.3418 4.66652 53.3708 4.70586C53.4303 4.78498 53.4692 4.87772 53.4839 4.97567C53.5389 5.06694 53.5835 5.1641 53.6168 5.26532C53.6385 5.36087 53.6891 5.44744 53.7616 5.51331C53.8576 5.21585 53.8392 4.89327 53.71 4.60864C53.6825 4.55081 53.6486 4.49625 53.6089 4.44596C53.5486 4.36273 53.47 4.29441 53.3792 4.24626C53.2885 4.19812 53.1878 4.17142 53.0851 4.16821H53.0296C52.907 4.17492 52.7867 4.20382 52.6744 4.25352Z" fill="white"/>
<path id="Vector_150" opacity="0.3" d="M53.0296 4.16623C53.0296 4.16623 53.0296 4.16623 53.0296 4.17813C53.043 4.23354 53.0675 4.28565 53.1016 4.33134C53.1357 4.37702 53.1787 4.41534 53.228 4.44398C53.3476 4.52383 53.4829 4.57726 53.6248 4.60071C53.6499 4.60268 53.6751 4.60268 53.7002 4.60071C53.6726 4.54288 53.6387 4.48831 53.599 4.43803C53.5387 4.35479 53.4602 4.28648 53.3694 4.23833C53.2786 4.19018 53.178 4.16348 53.0752 4.16028L53.0296 4.16623Z" fill="white"/>
<path id="Vector_151" opacity="0.2" d="M52.8372 5.93392C52.8643 5.97162 52.9037 5.99861 52.9487 6.01021C52.9936 6.02181 53.0412 6.01728 53.0832 5.99741C53.1883 5.95835 53.2825 5.89477 53.3581 5.81196C53.4336 5.72914 53.4884 5.62948 53.5176 5.52127C53.5703 5.31929 53.5535 5.10548 53.47 4.91418C53.4768 4.93416 53.4814 4.95477 53.4839 4.97569C53.5074 5.13343 53.4904 5.29458 53.4343 5.44389C53.4007 5.57316 53.3286 5.68918 53.2277 5.77667C53.1267 5.86415 53.0016 5.91898 52.8689 5.93392H52.8372Z" fill="black"/>
<path id="Vector_152" d="M52.9125 5.8724C52.9085 5.92647 52.9005 5.98017 52.8887 6.0331C52.8357 6.33638 52.6671 6.6073 52.4185 6.78897C51.8075 7.19964 50.8314 7.31669 50.0378 7.08457L49.9684 7.06275C49.7696 7.00066 49.5816 6.90832 49.4109 6.78897C49.3056 6.71172 49.2149 6.61633 49.1431 6.50725C49.0147 6.31842 48.9369 6.09985 48.9169 5.8724C48.8966 5.65997 48.9244 5.44569 48.9983 5.24548L49.0241 5.18001C49.0666 5.07836 49.1205 4.98186 49.1847 4.89234C49.2641 4.78124 49.3574 4.69395 49.4308 4.57293C49.5087 4.47057 49.5486 4.34436 49.5438 4.21582L50.9127 4.33882L52.2817 4.21582C52.2769 4.34436 52.3168 4.47057 52.3947 4.57293C52.4681 4.68403 52.5614 4.77132 52.6407 4.89234C52.7239 5.00537 52.7907 5.1296 52.8391 5.26135C52.9068 5.45749 52.9318 5.66581 52.9125 5.8724Z" fill="white"/>
<path id="Vector_153" opacity="0.1" d="M51.1905 5.35655C50.3969 5.69381 49.5339 5.45178 49.1748 5.31488C49.1176 5.29375 49.0619 5.26856 49.0082 5.2395L49.0201 5.20775C49.0648 5.09385 49.1235 4.9859 49.1947 4.88636C49.274 4.77526 49.3673 4.68796 49.4407 4.56694C49.5186 4.46459 49.5585 4.33838 49.5538 4.20984L50.9227 4.33284L51.9741 4.26142C51.996 4.40228 52.0198 5.00142 51.1905 5.35655Z" fill="white"/>
<path id="Vector_154" opacity="0.1" d="M52.9125 5.87243C52.9015 6.05189 52.8517 6.22681 52.7664 6.38508C52.6811 6.54335 52.5624 6.68117 52.4185 6.789C51.613 7.33061 50.2064 7.36037 49.4148 6.789C49.273 6.67921 49.1558 6.54092 49.0707 6.38305C48.9857 6.22519 48.9346 6.05124 48.9209 5.87243C48.9169 5.8196 48.9169 5.76655 48.9209 5.71372C49.4506 6.3327 50.4762 6.53308 51.3016 6.1105C51.74 5.89151 52.0739 5.50772 52.23 5.04315C52.3217 4.77322 52.3341 4.48269 52.2658 4.20593H52.3015C52.2967 4.33447 52.3366 4.46069 52.4145 4.56304C52.4879 4.67414 52.5812 4.76143 52.6605 4.88245C52.8618 5.17096 52.9514 5.5228 52.9125 5.87243Z" fill="black"/>
<path id="Vector_155" opacity="0.1" d="M52.8888 6.03316C52.8357 6.33645 52.6672 6.60737 52.4186 6.78904C51.7897 7.21161 50.7759 7.32271 49.9724 7.06282C49.8712 7.02314 49.774 6.97751 49.6728 6.92791C49.4703 6.82566 49.2913 6.68244 49.1471 6.50732C49.0187 6.31848 48.9409 6.09992 48.9209 5.87246C48.9015 5.65875 48.9293 5.44339 49.0023 5.24158C49.2383 5.36859 49.4906 5.46271 49.7522 5.52131C49.9469 5.57544 50.1461 5.61196 50.3474 5.63043C50.8929 5.68002 51.9623 5.6959 52.8292 5.25745C52.9028 5.50908 52.923 5.77327 52.8888 6.03316Z" fill="black"/>
<path id="Vector_156" opacity="0.2" d="M52.9126 5.87247C52.9016 6.05192 52.8517 6.22685 52.7664 6.38512C52.6811 6.54339 52.5624 6.68121 52.4186 6.78904C51.6131 7.33065 50.2065 7.36041 49.4149 6.78904C49.2731 6.67925 49.1559 6.54096 49.0708 6.38309C48.9857 6.22522 48.9346 6.05128 48.9209 5.87247C48.9209 5.8189 49.1808 6.40416 49.1788 6.34464C49.7641 7.0529 50.885 7.0906 51.7579 6.69381C52.8094 6.2137 52.6289 5.10667 52.4047 4.573C52.4781 4.68211 52.5713 4.77139 52.6487 4.88844C52.8528 5.17375 52.9465 5.52334 52.9126 5.87247Z" fill="black"/>
<path id="Vector_157" opacity="0.3" d="M52.3312 4.44993C50.5774 4.9479 49.4565 4.25154 49.4466 4.16028L50.9167 4.33486L52.2856 4.21186C52.2793 4.29387 52.295 4.37608 52.3312 4.44993Z" fill="black"/>
<path id="Vector_158" d="M52.4384 4.01343C52.4415 4.09594 52.4216 4.17769 52.3808 4.24951C51.6488 4.51536 50.1529 4.49949 49.4526 4.24951C49.4118 4.17769 49.3919 4.09594 49.395 4.01343C49.6331 4.17214 50.4049 4.21182 50.9167 4.22372C51.4286 4.23563 52.2003 4.16619 52.4384 4.01343Z" fill="white"/>
<path id="Vector_159" opacity="0.1" d="M51.9841 4.36458H51.9702C51.2515 4.48094 50.5182 4.47423 49.8018 4.34474C49.6819 4.32169 49.5638 4.28986 49.4486 4.24951C49.4064 4.17823 49.3857 4.09622 49.3891 4.01343C49.6725 4.13213 49.9766 4.19349 50.2838 4.19396C50.5021 4.21182 50.7243 4.21976 50.9108 4.22372C51.2484 4.21861 51.5855 4.19543 51.9206 4.15429H51.9325C51.9563 4.21976 51.9702 4.36458 51.9841 4.36458Z" fill="white"/>
<path id="Vector_160" d="M52.4384 4.01346C52.4503 4.13051 51.7698 4.22772 50.9167 4.22772C50.0636 4.22772 49.3831 4.13051 49.3951 4.01346C49.407 3.8964 50.0874 3.81506 50.9167 3.81506C51.746 3.81506 52.4265 3.89839 52.4384 4.01346Z" fill="white"/>
<path id="Vector_161" opacity="0.2" d="M52.2876 3.99166C52.2876 4.07895 51.6924 4.14839 50.9365 4.14839C50.1807 4.14839 49.5756 4.07895 49.5815 3.99166C49.5875 3.90437 50.1926 3.83691 50.9346 3.83691C51.6766 3.83691 52.2836 3.90635 52.2876 3.99166Z" fill="black"/>
<path id="Vector_162" opacity="0.3" d="M50.1589 4.86656C50.1417 4.91125 50.1111 4.94954 50.0713 4.97617C50.0316 5.00281 49.9845 5.0165 49.9367 5.01536C49.9004 5.01849 49.8639 5.01373 49.8296 5.0014C49.7954 4.98907 49.7642 4.96946 49.7383 4.94393C49.7165 4.92211 49.649 4.813 49.7145 4.74554C49.7671 4.71581 49.8266 4.7002 49.8871 4.7002C49.9475 4.7002 50.007 4.71581 50.0597 4.74554C50.1609 4.80109 50.1668 4.83283 50.1589 4.86656Z" fill="white"/>
<path id="Vector_163" opacity="0.3" d="M49.9545 4.71186C50.0656 4.72773 50.0398 4.87256 49.9228 4.87454C49.9083 4.87629 49.8936 4.87629 49.8791 4.87454C49.7641 4.85669 49.7938 4.71186 49.9109 4.70988C49.9255 4.70857 49.9401 4.70924 49.9545 4.71186Z" fill="white"/>
<path id="Vector_164" opacity="0.2" d="M50.2739 4.20793C50.1962 4.26312 50.1076 4.301 50.014 4.31903C49.9489 4.33419 49.8825 4.34283 49.8156 4.34483C49.6958 4.32177 49.5777 4.28994 49.4625 4.2496C49.4322 4.19709 49.4127 4.1391 49.405 4.07898C49.4407 4.0913 49.4783 4.09734 49.5161 4.09684H49.5716C49.5716 4.09684 49.5716 4.11072 49.5994 4.11667L49.651 4.12858L49.8256 4.15834L49.9724 4.17619L50.0993 4.19008L50.2739 4.20793Z" fill="white"/>
<path id="Vector_165" opacity="0.2" d="M51.127 4.22773C51.0034 4.35094 50.8372 4.42197 50.6627 4.42612C50.5745 4.43775 50.4851 4.43775 50.3969 4.42612L50.3195 4.41422C50.2139 4.39526 50.1112 4.36258 50.014 4.31701C49.9321 4.2886 49.8622 4.23337 49.8156 4.16028C49.9446 4.17813 50.0993 4.194 50.2719 4.20591C50.4445 4.21781 50.6866 4.22575 50.9147 4.22575H51.125L51.127 4.22773Z" fill="white"/>
<path id="Vector_166" opacity="0.3" d="M50.0914 4.19406C50.0882 4.20734 50.0806 4.21912 50.0697 4.22743C50.0589 4.23574 50.0455 4.24007 50.0319 4.23969C50.0319 4.23969 49.9485 4.23969 49.9644 4.18018L50.0914 4.19406Z" fill="white"/>
<path id="Vector_167" d="M52.9264 9.82637H48.8673C49.2518 9.61167 49.6848 9.49898 50.1251 9.49902H51.6686C52.109 9.49898 52.542 9.61167 52.9264 9.82637Z" fill="white"/>
<path id="Vector_168" opacity="0.3" d="M52.9264 9.82637H48.8673C49.2518 9.61167 49.6848 9.49898 50.1251 9.49902H51.6686C52.109 9.49898 52.542 9.61167 52.9264 9.82637Z" fill="white"/>
<path id="Vector_169" d="M53.9442 25.8764C54.1247 28.5864 54.3568 32.0087 54.5393 34.7207C51.7916 35.2465 48.9754 35.3095 46.2069 34.9072C46.1553 33.8478 46.5223 32.6832 46.2565 31.6555C45.7902 29.8442 46.2307 27.8444 47.2484 26.2692C48.8356 26.1442 49.641 26.043 51.2282 25.918C51.8848 25.8665 53.9442 25.8764 53.9442 25.8764Z" fill="white"/>
<path id="Vector_170" opacity="0.2" d="M53.9442 25.8764C54.1247 28.5864 54.3568 32.0087 54.5393 34.7207C51.7916 35.2465 48.9754 35.3095 46.2069 34.9072C46.1553 33.8478 46.5223 32.6832 46.2565 31.6555C45.7902 29.8442 46.2307 27.8444 47.2484 26.2692C48.8356 26.1442 49.641 26.043 51.2282 25.918C51.8848 25.8665 53.9442 25.8764 53.9442 25.8764Z" fill="white"/>
<path id="Vector_171" d="M50.5815 12.0385C50.5711 12.0414 50.5601 12.0414 50.5497 12.0385C50.5373 12.0324 50.5277 12.0218 50.5229 12.0089C50.5181 11.996 50.5185 11.9817 50.5239 11.969C50.5724 11.8668 50.6435 11.7768 50.7319 11.706C50.8202 11.6352 50.9234 11.5854 51.0338 11.5603C51.0403 11.5579 51.0473 11.5569 51.0542 11.5576C51.0612 11.5582 51.0678 11.5605 51.0738 11.5641C51.0797 11.5677 51.0847 11.5727 51.0885 11.5786C51.0922 11.5844 51.0945 11.5911 51.0953 11.598C51.0978 11.6116 51.0951 11.6257 51.0878 11.6374C51.0804 11.6492 51.069 11.6578 51.0556 11.6615C50.9607 11.6825 50.872 11.7251 50.7963 11.786C50.7206 11.8469 50.6599 11.9245 50.6192 12.0127C50.615 12.0193 50.6095 12.025 50.603 12.0295C50.5965 12.0339 50.5892 12.037 50.5815 12.0385Z" fill="#263238"/>
<path id="Vector_172" d="M52.4701 11.2885C52.4623 11.2905 52.4541 11.2905 52.4463 11.2885C52.3655 11.2622 52.2797 11.2547 52.1955 11.2663C52.1113 11.278 52.0309 11.3087 51.9603 11.356C51.9486 11.3637 51.9344 11.3665 51.9207 11.3639C51.907 11.3614 51.8949 11.3535 51.8869 11.3421C51.8793 11.3308 51.8765 11.3169 51.8791 11.3035C51.8817 11.2901 51.8895 11.2783 51.9007 11.2707C51.9844 11.214 52.0799 11.1772 52.18 11.1631C52.28 11.149 52.382 11.158 52.4781 11.1893C52.491 11.1939 52.5017 11.2032 52.508 11.2154C52.5142 11.2275 52.5156 11.2416 52.5118 11.2548C52.5081 11.2634 52.5024 11.2709 52.4951 11.2768C52.4879 11.2827 52.4793 11.2867 52.4701 11.2885Z" fill="#263238"/>
<path id="Vector_173" d="M51.3889 12.2229C51.4206 12.3261 51.4067 12.4213 51.3373 12.4531C51.2679 12.4848 51.1845 12.4193 51.1389 12.3162C51.0933 12.213 51.1211 12.1178 51.1905 12.086C51.2599 12.0543 51.3552 12.1217 51.3889 12.2229Z" fill="#263238"/>
<path id="Vector_174" d="M51.1746 12.1019L51.3611 11.9313C51.3611 11.9313 51.3234 12.1614 51.1746 12.1019Z" fill="#263238"/>
<path id="Vector_175" d="M52.5455 11.9433C52.5752 12.0464 52.5613 12.1416 52.4939 12.1734C52.4264 12.2051 52.3391 12.1377 52.2955 12.0365C52.2518 11.9353 52.2816 11.8381 52.349 11.8064C52.4165 11.7746 52.5038 11.8341 52.5455 11.9433Z" fill="#263238"/>
<path id="Vector_176" d="M52.3253 11.8203L52.5137 11.6497C52.5137 11.6497 52.4741 11.8778 52.3253 11.8203Z" fill="#263238"/>
<path id="Vector_177" opacity="0.1" d="M49.9307 35.0499L50.4128 33.0006C50.417 32.9811 50.4278 32.9636 50.4433 32.9511C50.4588 32.9386 50.4781 32.9318 50.4981 32.9318C50.518 32.9318 50.5373 32.9386 50.5529 32.9511C50.5684 32.9636 50.5792 32.9811 50.5834 33.0006L50.8631 35.0142L49.9307 35.0499Z" fill="black"/>
</g>
<g id="character-1">
<path id="Vector_178" d="M36.5095 58.5972L35.8845 61.2398L37.0769 61.3151L37.7593 58.6765L36.5095 58.5972Z" fill="#FFB573"/>
<path id="Vector_179" d="M18.1839 61.9481L20.7471 58.9642L22.0863 59.8987L18.9854 62.8527L18.1839 61.9481Z" fill="#FFB573"/>
<path id="Vector_180" d="M39.2671 62.8903C38.164 62.7832 37.7434 62.7257 37.1205 62.6424C36.5888 62.5709 36.4678 62.6285 36.0452 62.5789C35.6901 62.5352 35.6603 62.1821 35.7238 61.7734C35.7536 61.575 35.8448 61.0751 35.8805 60.7457L37.2276 60.7914C37.5073 61.2715 38.7929 62.075 39.4218 62.2297C40.0507 62.3845 39.7075 62.93 39.2671 62.8903Z" fill="#263238"/>
<path id="Vector_181" d="M19.2136 65.4477C18.5768 64.5252 18.3446 64.1641 18.0014 63.6284C17.7078 63.1701 17.5868 63.1166 17.3487 62.7575C17.1503 62.4539 17.3963 62.1941 17.7455 61.9758C17.9161 61.8647 18.3407 61.6088 18.6085 61.4183L19.4477 62.4936C19.2751 63.0293 19.5171 64.551 19.8108 65.1382C20.0945 65.6818 19.4675 65.8147 19.2136 65.4477Z" fill="#263238"/>
<path id="Vector_182" d="M30.6331 39.0833L33.9264 39.8034C33.9264 39.8034 40.7352 47.0189 41.2133 49.6238C41.4554 50.9372 37.6581 59.6069 37.6581 59.6069L36.0353 59.5633C36.0353 59.5633 37.0273 52.1414 38.2077 50.4075L30.03 44.7057C30.03 44.7057 28.5539 40.3708 30.6331 39.0833Z" fill="white"/>
<path id="Vector_183" opacity="0.5" d="M30.6331 39.0833L33.9264 39.8034C33.9264 39.8034 40.7352 47.0189 41.2133 49.6238C41.4554 50.9372 37.6581 59.6069 37.6581 59.6069L36.0353 59.5633C36.0353 59.5633 37.0273 52.1414 38.2077 50.4075L30.03 44.7057C30.03 44.7057 28.5539 40.3708 30.6331 39.0833Z" fill="white"/>
<path id="Vector_184" opacity="0.1" d="M35.2655 48.2986L30.1748 42.7932L30.0081 44.551L35.2655 48.2986Z" fill="black"/>
<path id="Vector_185" d="M32.3432 39.3313C32.3432 39.3313 28.6908 38.0894 28.5479 37.9981C28.4051 37.9069 26.4152 41.5434 26.0918 43.9678C25.7685 46.3921 26.0026 52.1415 26.0026 52.1415C26.0026 52.1415 24.0107 53.3676 22.6577 55.2563L19.5746 60.0415L20.7392 61.3152L27.9607 54.9151C28.8203 54.2285 29.4137 53.2639 29.6391 52.1872L32.3432 39.3313Z" fill="white"/>
<path id="Vector_186" opacity="0.5" d="M32.3432 39.3313C32.3432 39.3313 28.6908 38.0894 28.5479 37.9981C28.4051 37.9069 26.4152 41.5434 26.0918 43.9678C25.7685 46.3921 26.0026 52.1415 26.0026 52.1415C26.0026 52.1415 24.0107 53.3676 22.6577 55.2563L19.5746 60.0415L20.7392 61.3152L27.9607 54.9151C28.8203 54.2285 29.4137 53.2639 29.6391 52.1872L32.3432 39.3313Z" fill="white"/>
<path id="Vector_187" d="M32.9919 31.5444C33.1784 31.6376 33.3411 31.717 33.5177 31.7943C33.6943 31.8717 33.8609 31.9431 34.0414 32.0185C34.3906 32.1574 34.7477 32.2864 35.1187 32.4054C35.8791 32.6648 36.6714 32.819 37.4736 32.8637C37.7017 32.8716 37.9301 32.8597 38.1561 32.828C38.4116 32.7946 38.6605 32.7224 38.8941 32.6137C39.337 32.4028 39.7167 32.0792 39.9952 31.6753C40.2391 31.3219 40.424 30.9313 40.5428 30.5187C40.6005 30.3233 40.6462 30.1245 40.6796 29.9235C40.6986 29.8246 40.7105 29.7245 40.7154 29.6239C40.7154 29.5208 40.7292 29.4255 40.7352 29.3105L39.8583 29.1656L39.7611 29.3839L39.6559 29.6081C39.5825 29.7588 39.5052 29.9017 39.4199 30.0445C39.2708 30.306 39.0873 30.5462 38.8743 30.7587C38.7086 30.9285 38.5045 31.0558 38.2791 31.1297C38.1776 31.1593 38.0731 31.1772 37.9676 31.1833C37.8352 31.188 37.7027 31.184 37.5708 31.1714C37.2597 31.1375 36.9519 31.0784 36.6503 30.9948C36.3329 30.9135 36.0135 30.8103 35.6921 30.6972C35.3707 30.5842 35.0513 30.4572 34.7299 30.3302L34.2517 30.1318C34.097 30.0644 33.9284 29.9929 33.7954 29.9334L32.9919 31.5444Z" fill="#FFB573"/>
<path id="Vector_188" d="M30.9684 30.973C30.6549 29.6338 31.7619 28.872 33.5673 29.3858C34.5352 29.6434 35.4781 29.9873 36.3845 30.4135L35.3191 33.435C33.5594 33.0422 31.2898 32.3498 30.9684 30.973Z" fill="white"/>
<path id="Vector_189" opacity="0.1" d="M30.9684 30.973C30.6549 29.6338 31.7619 28.872 33.5673 29.3858C34.5352 29.6434 35.4781 29.9873 36.3845 30.4135L35.3191 33.435C33.5594 33.0422 31.2898 32.3498 30.9684 30.973Z" fill="black"/>
<path id="Vector_190" d="M39.6341 28.8264L39.7492 28.1737L40.8919 28.8244C40.8919 28.8244 40.7431 29.9473 40.1916 29.864L39.9475 29.6319C39.8419 29.527 39.7595 29.4011 39.7055 29.2624C39.6515 29.1236 39.6272 28.9751 39.6341 28.8264Z" fill="#FFB573"/>
<path id="Vector_191" d="M40.1539 27.5646L41.2887 27.8165L40.8879 28.8283L39.7472 28.1776L40.1539 27.5646Z" fill="#FFB573"/>
<path id="Vector_192" d="M31.2123 28.999L29.6549 28.8483L27.7345 29.1042C27.4424 29.1418 27.1709 29.2748 26.9621 29.4825C26.7533 29.6902 26.619 29.961 26.5799 30.2529C26.4172 31.4294 26.5799 38.4405 26.9251 40.5693L28.0718 40.6883C29.9585 40.8292 32.3729 40.5177 34.1366 39.8293C34.1366 39.8293 34.2338 32.1217 34.22 30.6298C34.2177 30.3371 34.1195 30.0531 33.9403 29.8216C33.7611 29.5901 33.5108 29.4238 33.228 29.3482L31.2123 28.999Z" fill="white"/>
<path id="Vector_193" d="M28.5737 29.1081C28.5509 29.3894 28.6344 29.6691 28.8078 29.8918C28.9802 30.1146 29.1802 30.3146 29.403 30.4869C29.6748 30.7151 29.9982 30.9571 30.3473 30.8956C30.6965 30.8341 30.8473 30.6655 30.9624 30.2747C31.2599 30.7091 31.2818 30.9313 31.5893 30.9472C31.6882 30.9376 31.7838 30.9066 31.8695 30.8562C31.9552 30.8058 32.0288 30.7374 32.0853 30.6556C32.3029 30.4597 32.4347 30.186 32.4523 29.8937C32.4999 29.3244 32.0178 28.8185 31.4722 28.6419C30.92 28.4843 30.35 28.3976 29.776 28.384C29.274 28.3403 28.6491 28.5228 28.5737 29.1081Z" fill="white"/>
<path id="Vector_194" opacity="0.6" d="M28.5737 29.1081C28.5509 29.3894 28.6344 29.6691 28.8078 29.8918C28.9802 30.1146 29.1802 30.3146 29.403 30.4869C29.6748 30.7151 29.9982 30.9571 30.3473 30.8956C30.6965 30.8341 30.8473 30.6655 30.9624 30.2747C31.2599 30.7091 31.2818 30.9313 31.5893 30.9472C31.6882 30.9376 31.7838 30.9066 31.8695 30.8562C31.9552 30.8058 32.0288 30.7374 32.0853 30.6556C32.3029 30.4597 32.4347 30.186 32.4523 29.8937C32.4999 29.3244 32.0178 28.8185 31.4722 28.6419C30.92 28.4843 30.35 28.3976 29.776 28.384C29.274 28.3403 28.6491 28.5228 28.5737 29.1081Z" fill="white"/>
<path id="Vector_195" d="M29.8058 26.3286L30.5418 27.1043L31.5338 28.1618C31.4517 28.2824 31.3919 28.4168 31.3572 28.5585C31.2985 28.7096 31.2965 28.8769 31.3515 29.0293C31.4066 29.1818 31.515 29.3092 31.6568 29.3878C31.8056 29.4493 31.9127 30.2052 30.9545 30.1675C30.6817 30.1747 30.4103 30.1256 30.1574 30.0232C29.9044 29.9208 29.6753 29.7673 29.4844 29.5723C29.2979 29.3462 29.2463 29.2212 29.415 28.9573C29.907 28.2133 29.901 27.1619 29.8058 26.3286Z" fill="#FFB573"/>
<path id="Vector_196" opacity="0.2" d="M31.2997 27.8999L30.6648 27.1321C30.6648 27.1559 30.6509 27.1817 30.645 27.2095C30.6209 27.3225 30.6056 27.4373 30.5993 27.5527C30.5815 27.9495 30.9723 28.4355 31.3433 28.6359L31.3671 28.5565C31.4033 28.4229 31.4573 28.2948 31.5278 28.1756L31.5457 28.1578L31.2997 27.8999Z" fill="black"/>
<path id="Vector_197" d="M31.9464 26.0787C32.5118 24.9459 32.3809 24.3091 32.9384 23.698C33.236 23.5611 33.7657 24.1067 33.4284 25.0471C33.0911 25.9875 31.9464 26.0787 31.9464 26.0787Z" fill="#263238"/>
<path id="Vector_198" d="M29.8058 24.8388C29.7542 26.1462 29.6689 26.91 30.2601 27.6163C31.5457 28.8403 32.8194 28.2293 33.2558 26.9556C33.6526 25.8089 33.6526 23.8627 32.4285 23.2457C32.1547 23.109 31.8508 23.0439 31.5451 23.0563C31.2393 23.0687 30.9417 23.1583 30.6799 23.3168C30.4181 23.4752 30.2007 23.6973 30.0479 23.9623C29.895 24.2274 29.8117 24.5269 29.8058 24.8328V24.8388Z" fill="#FFB573"/>
<path id="Vector_199" d="M29.6649 26.0013L30.2244 26.1104L30.4545 25.2672L31.0318 24.9299L31.2302 24.1919C31.2491 24.1183 31.2523 24.0416 31.2396 23.9667C31.2269 23.8918 31.1985 23.8204 31.1564 23.7572C31.1143 23.6939 31.0594 23.6402 30.9952 23.5996C30.931 23.559 30.859 23.5323 30.7838 23.5214C30.4188 23.4678 29.9783 23.4043 29.7383 23.3745C29.5776 23.3567 29.0221 23.7991 28.9447 23.9816C28.8398 24.2406 28.8091 24.5237 28.856 24.7991C28.903 25.0745 29.0258 25.3314 29.2106 25.541C29.3471 25.7084 29.4993 25.8625 29.6649 26.0013Z" fill="#263238"/>
<path id="Vector_200" d="M29.1689 25.791C29.2086 26.0805 29.3533 26.3453 29.5756 26.5349C29.8653 26.777 30.1926 26.4853 30.2164 26.1143C30.2343 25.781 30.0478 25.3069 29.7065 25.2097C29.3653 25.1125 29.1292 25.4259 29.1689 25.791Z" fill="#FFB573"/>
<path id="Vector_201" d="M31.9722 25.5251C31.9583 25.6342 32.0019 25.7235 32.0734 25.7433C32.1448 25.7632 32.2043 25.6799 32.2261 25.5727C32.2479 25.4656 32.1983 25.3743 32.1269 25.3545C32.0555 25.3347 31.988 25.418 31.9722 25.5251Z" fill="#263238"/>
<path id="Vector_202" d="M32.4583 27.1936C32.4444 27.3007 32.488 27.392 32.5575 27.4099C32.6269 27.4277 32.6904 27.3464 32.7122 27.2392C32.734 27.1321 32.6844 27.0408 32.613 27.021C32.5416 27.0012 32.4741 27.0845 32.4583 27.1936Z" fill="#263238"/>
<path id="Vector_203" d="M33.0475 25.6819C33.0316 25.791 33.0772 25.8802 33.1467 25.9001C33.2161 25.9199 33.2855 25.8346 33.3014 25.7295C33.3173 25.6243 33.2717 25.5311 33.2022 25.5112C33.1328 25.4914 33.0633 25.5747 33.0475 25.6819Z" fill="#263238"/>
<path id="Vector_204" d="M32.6804 25.7454C32.8105 26.025 32.9766 26.2865 33.1744 26.5231C33.1134 26.5705 33.0425 26.6038 32.9671 26.6206C32.8916 26.6374 32.8134 26.6373 32.738 26.6203L32.6804 25.7454Z" fill="#FF5652"/>
<path id="Vector_205" d="M31.629 25.2256C31.6184 25.223 31.6088 25.2175 31.6012 25.2097C31.5893 25.1975 31.5827 25.1811 31.5827 25.1641C31.5827 25.147 31.5893 25.1307 31.6012 25.1185C31.6736 25.0483 31.7621 24.997 31.859 24.969C31.9558 24.941 32.058 24.9371 32.1567 24.9578C32.1728 24.9624 32.1864 24.973 32.1949 24.9874C32.2034 25.0018 32.206 25.0189 32.2024 25.0351C32.1973 25.0513 32.1863 25.065 32.1716 25.0735C32.1569 25.0819 32.1395 25.0845 32.123 25.0808C32.0455 25.0654 31.9655 25.069 31.8898 25.0915C31.8141 25.114 31.745 25.1546 31.6885 25.2097C31.6809 25.2174 31.6713 25.2229 31.6609 25.2256C31.6504 25.2284 31.6394 25.2284 31.629 25.2256Z" fill="#263238"/>
<path id="Vector_206" d="M33.0772 25.2217C33.0742 25.2106 33.0742 25.199 33.0772 25.1879C33.0791 25.1797 33.0826 25.1719 33.0875 25.165C33.0924 25.1581 33.0987 25.1523 33.1059 25.1478C33.1131 25.1434 33.1211 25.1405 33.1295 25.1392C33.1379 25.1379 33.1464 25.1383 33.1546 25.1403C33.2532 25.1599 33.3456 25.2034 33.4234 25.2671C33.5012 25.3308 33.5622 25.4126 33.601 25.5054C33.6067 25.5212 33.606 25.5386 33.599 25.5538C33.5919 25.5691 33.5791 25.5809 33.5633 25.5867C33.5555 25.5899 33.5471 25.5914 33.5388 25.5911C33.5304 25.5909 33.5221 25.589 33.5145 25.5855C33.5068 25.5819 33.5 25.5769 33.4944 25.5706C33.4888 25.5643 33.4846 25.557 33.482 25.549C33.4499 25.4767 33.4009 25.4131 33.3391 25.3637C33.2773 25.3143 33.2045 25.2806 33.1268 25.2653C33.1155 25.2629 33.105 25.2576 33.0963 25.25C33.0876 25.2423 33.0811 25.2326 33.0772 25.2217Z" fill="#263238"/>
<path id="Vector_207" d="M24.6972 28.8225C23.6259 28.4951 22.9692 28.6915 22.7589 28.019C22.5486 27.3464 22.3125 23.6385 22.4772 23.5948C22.1716 23.6901 21.9058 23.7932 21.6022 23.8885C21.4911 24.9082 21.3688 25.9273 21.2352 26.9457C21.138 27.6897 21.019 28.8959 21.3265 29.5803C21.6042 30.1974 23.4354 30.5822 24.7607 30.8362C25.1495 30.4473 24.6972 28.8225 24.6972 28.8225Z" fill="#FFB573"/>
<path id="Vector_208" d="M28.0718 30.864C28.9983 29.8422 28.2702 28.9296 26.4529 28.4991C25.4825 28.2535 24.4917 28.0961 23.4929 28.0289L23.0723 30.8977C24.8043 31.4076 27.1235 31.9075 28.0718 30.864Z" fill="white"/>
<path id="Vector_209" d="M22.7787 24.4796L23.1001 23.942L21.6538 23.6206C21.6538 23.6206 21.0249 24.811 21.5864 25.0371L21.9415 24.9558C22.249 24.8903 22.622 24.7792 22.7787 24.4796Z" fill="#FFB573"/>
<path id="Vector_210" d="M22.9335 22.9659L22.0824 22.9282L21.6558 23.6206L23.1021 23.942L22.9335 22.9659Z" fill="#FFB573"/>
<path id="Vector_211" d="M35.8269 59.0674C35.8726 59.0496 38.2473 59.2122 38.2473 59.2122L38.0489 59.9383L35.6523 59.8967L35.8269 59.0674Z" fill="white"/>
<path id="Vector_212" d="M19.5528 59.6982C19.5984 59.7161 21.2233 61.456 21.2233 61.456L20.5745 61.8528L18.8525 60.1783L19.5528 59.6982Z" fill="white"/>
</g>
</g>
</svg>
