<svg width="24" height="15" viewBox="0 0 24 15" fill="none" xmlns="http://www.w3.org/2000/svg">
<path d="M1.89844 0.46875C1.04395 0.46875 0.335938 1.17676 0.335938 2.03125V12.9688C0.335938 13.8232 1.04395 14.5312 1.89844 14.5312H22.2109C23.0654 14.5312 23.7734 13.8232 23.7734 12.9688V2.03125C23.7734 1.17676 23.0654 0.46875 22.2109 0.46875H1.89844ZM1.89844 2.03125H22.2109V12.9688H1.89844V2.03125ZM3.46094 3.59375V5.15625H5.02344V3.59375H3.46094ZM6.58594 3.59375V5.15625H8.14844V3.59375H6.58594ZM9.71094 3.59375V5.15625H11.2734V3.59375H9.71094ZM12.8359 3.59375V5.15625H14.3984V3.59375H12.8359ZM15.9609 3.59375V5.15625H17.5234V3.59375H15.9609ZM19.0859 3.59375V5.15625H20.6484V3.59375H19.0859ZM3.46094 6.71875V8.28125H6.58594V6.71875H3.46094ZM8.14844 6.71875V8.28125H9.71094V6.71875H8.14844ZM11.2734 6.71875V8.28125H12.8359V6.71875H11.2734ZM14.3984 6.71875V8.28125H15.9609V6.71875H14.3984ZM17.5234 6.71875V8.28125H20.6484V6.71875H17.5234ZM3.46094 9.84375V11.4062H6.58594V9.84375H3.46094ZM8.14844 9.84375V11.4062H15.9609V9.84375H8.14844ZM17.5234 9.84375V11.4062H20.6484V9.84375H17.5234Z" fill="white"/>
</svg>
